<?xml version="1.0" encoding="UTF-8" standalone="no"?>
<!DOCTYPE svg PUBLIC "-//W3C//DTD SVG 1.1//EN" "http://www.w3.org/Graphics/SVG/1.1/DTD/svg11.dtd">
<svg width="100%" height="100%" viewBox="0 0 129 28" version="1.1" xmlns="http://www.w3.org/2000/svg" xmlns:xlink="http://www.w3.org/1999/xlink" xml:space="preserve" xmlns:serif="http://www.serif.com/" style="fill-rule:evenodd;clip-rule:evenodd;stroke-linejoin:round;stroke-miterlimit:2;">
    <path d="M33.759,0.186L33.759,1.656L37.449,1.656L37.449,25.805L33.759,25.805L33.759,27.265L42.599,27.265L42.599,25.805L39.459,25.805L39.459,1.656L42.599,1.656L42.599,0.186L33.759,0.186Z" style="fill:rgb(29,29,27);fill-rule:nonzero;"/>
    <path d="M63.418,0.166L63.418,1.636L66.458,1.636L58.478,12.816L51.268,12.816L51.268,1.636L54.688,1.636L54.688,0.166L45.849,0.166L45.849,1.636L49.258,1.636L49.258,25.785L45.849,25.785L45.849,27.245L54.688,27.245L54.688,25.785L51.268,25.785L51.268,14.076L58.458,14.076L66.278,25.785L63.418,25.785L63.418,27.245L72.248,27.245L72.248,25.785L68.368,25.785L60.008,13.206L68.258,1.636L72.248,1.636L72.248,0.166L63.418,0.166Z" style="fill:rgb(29,29,27);fill-rule:nonzero;"/>
    <path d="M119.466,0.166L119.466,1.636L122.876,1.636L122.876,24.345L107.157,0.216L107.147,0.226L107.147,0.166L101.277,0.166L101.277,1.636L105.137,1.636L105.137,25.785L101.277,25.785L101.277,27.245L110.107,27.245L110.107,25.785L107.147,25.785L107.147,3.486L122.356,27.245L124.886,27.245L124.886,1.636L128.296,1.636L128.296,0.166L119.466,0.166Z" style="fill:rgb(29,29,27);fill-rule:nonzero;"/>
    <path d="M0,0.256L0,27.255L26.999,27.255L26.999,0.256L0,0.256ZM22.429,16.255L22.429,14.255L16.609,14.255C16.532,14.735 16.344,15.191 16.06,15.585L20.169,19.695L21.599,18.265L21.599,21.845L17.999,21.845L19.429,20.415L15.32,16.305C14.925,16.59 14.47,16.778 13.99,16.855L13.99,22.675L15.99,22.675L13.46,25.205L11,22.685L13,22.685L13,16.865C12.52,16.788 12.064,16.6 11.67,16.315L7.55,20.435L9,21.865L5.41,21.865L5.41,18.285L6.84,19.715L11,15.605C10.716,15.211 10.527,14.755 10.45,14.275L4.58,14.275L4.58,16.275L2.05,13.766L4.58,11.236L4.58,13.236L10.4,13.236C10.495,12.758 10.701,12.31 11,11.926L6.84,7.816L5.41,9.246L5.41,5.666L9,5.666L7.55,7.096L11.66,11.206C12.057,10.92 12.516,10.732 13,10.656L13,4.846L11,4.846L13.53,2.316L16,4.846L14,4.846L14,10.666C14.48,10.743 14.935,10.931 15.33,11.216L19.439,7.106L17.999,5.666L21.599,5.666L21.599,9.246L20.169,7.816L16.06,11.926C16.344,12.32 16.532,12.776 16.609,13.256L22.429,13.256L22.429,11.256L24.999,13.766L22.429,16.255Z" style="fill:rgb(161,191,36);fill-rule:nonzero;"/>
    <path d="M95.267,7.886L95.267,19.485C95.267,23.315 92.587,25.965 87.367,25.965L85.367,25.965C80.148,25.965 77.668,23.055 77.468,19.485L77.468,7.886C77.468,4.496 80.178,1.476 85.367,1.476L87.367,1.476C92.367,1.476 95.197,4.836 95.257,7.886M97.257,7.886C97.257,3.476 93.257,0.086 88.697,0.006L84.137,0.006C79.138,0.226 75.498,3.006 75.498,7.886L75.498,19.485C75.498,24.145 78.998,27.405 83.997,27.405L88.677,27.405C93.787,27.405 97.207,24.405 97.207,19.475L97.257,7.886Z" style="fill:rgb(29,29,27);fill-rule:nonzero;"/>
</svg>
