<?xml version="1.0" encoding="utf-8"?>
<!-- Generator: Adobe Illustrator 21.1.0, SVG Export Plug-In . SVG Version: 6.00 Build 0)  -->
<svg version="1.1" id="Ebene_1" xmlns="http://www.w3.org/2000/svg" xmlns:xlink="http://www.w3.org/1999/xlink" x="0px" y="0px"
	 width="170.1px" height="170.1px" viewBox="0 0 170.1 170.1" style="enable-background:new 0 0 170.1 170.1;" xml:space="preserve"
	>
<style type="text/css">
	.st0{fill:#ADC913;}
</style>
<g>
	<path class="st0" d="M34.9,86.9l3.7,1.9c3.4,1.8,6,4.6,8,8l1.9,3.7c0.4,0.5,0.9,0.9,1.6,0.9s1.2-0.4,1.6-0.9l1.9-3.7
		c1.8-3.4,4.6-6,8-8l3.7-1.9c0.5-0.4,0.9-0.9,0.9-1.6c0-0.7-0.4-1.2-0.9-1.6l-3.7-1.9c-3.4-1.8-6-4.6-8-8L51.7,70
		C51,69,49.3,69,48.6,70l-1.9,3.7c-1.8,3.4-4.6,6-8,8l-3.7,1.9C34.4,84,34,84.6,34,85.3C33.9,85.8,34.2,86.5,34.9,86.9z M40.2,84.7
		c3.9-2.1,7.1-5.3,9.4-9.4l0.4-0.9l0.4,0.9c2.1,3.9,5.3,7.1,9.4,9.4l0.9,0.4l-0.9,0.4c-3.9,2.1-7.1,5.3-9.4,9.4L50,95.7l-0.4-0.9
		c-2.1-3.9-5.3-7.1-9.4-9.4l-0.9-0.4L40.2,84.7z"/>
	<path class="st0" d="M15.1,141.4l3.5,1.9c3.2,1.8,5.8,4.4,7.6,7.6l1.9,3.5c0.4,0.5,0.9,0.9,1.6,0.9s1.2-0.4,1.6-0.9l1.9-3.5
		c1.8-3.2,4.4-5.8,7.6-7.6l3.5-1.9c0.5-0.4,0.9-0.9,0.9-1.6c0-0.7-0.4-1.2-0.9-1.6l-3.5-1.9c-3.2-1.8-5.8-4.4-7.6-7.6l-1.9-3.5
		c-0.7-1.1-2.5-1.1-3.2,0l-1.9,3.5c-1.8,3.2-4.4,5.8-7.6,7.6l-3.5,1.9c-0.5,0.4-0.9,0.9-0.9,1.6C14.2,140.5,14.5,141.1,15.1,141.4z
		 M20.4,139.5c3.9-2.1,6.9-5.3,9-9l0.4-0.7l0.4,0.7c2.1,3.9,5.3,6.9,9,9l0.7,0.4l-0.7,0.4c-3.9,2.1-6.9,5.3-9,9l-0.4,0.7l-0.4-0.7
		c-2.1-3.9-5.3-6.9-9-9l-0.7-0.4L20.4,139.5z"/>
	<path class="st0" d="M123.5,32.5l3.7,2.1c3.5,1.9,6.4,4.8,8.3,8.3l2.1,3.9c0.4,0.5,0.9,0.9,1.6,0.9s1.2-0.4,1.6-0.9l2.1-3.9
		c1.9-3.5,4.8-6.4,8.3-8.3l3.7-2.1c0.5-0.4,0.9-0.9,0.9-1.6s-0.4-1.2-0.9-1.6l-3.7-2.1c-3.5-1.9-6.4-4.8-8.3-8.3l-2.1-3.9
		c-0.7-1.1-2.5-1.1-3.2,0l-2.1,3.9c-1.9,3.5-4.8,6.4-8.3,8.3l-3.7,2.1c-0.5,0.4-0.9,0.9-0.9,1.6S123,32.1,123.5,32.5z M129,30.3
		c4.1-2.3,7.4-5.7,9.7-9.7l0.5-0.9l0.5,0.9c2.3,4.1,5.7,7.4,9.7,9.7l0.9,0.5l-0.9,0.5c-4.1,2.3-7.4,5.7-9.7,9.7l-0.5,0.9l-0.5-0.9
		c-2.3-4.1-5.7-7.4-9.7-9.7l-0.9-0.5L129,30.3z"/>
	<path class="st0" d="M57.1,54.6l4.4,2.5c4.1,2.3,7.4,5.7,9.7,9.7l2.5,4.4c0.4,0.5,0.9,0.9,1.6,0.9c0.7,0,1.2-0.4,1.6-0.9l2.5-4.4
		c2.3-4.1,5.7-7.4,9.7-9.7l4.4-2.5c0.5-0.4,0.9-0.9,0.9-1.6c0-0.7-0.4-1.2-0.9-1.6l-4.4-2.5c-4.1-2.3-7.4-5.7-9.7-9.7l-2.5-4.4
		c-0.7-1.1-2.5-1.1-3.2,0l-2.5,4.4c-2.3,4.1-5.7,7.4-9.7,9.7l-4.4,2.5c-0.5,0.4-0.9,0.9-0.9,1.6C56.2,53.7,56.5,54.3,57.1,54.6z
		 M63.3,52.1c4.8-2.7,8.5-6.4,11.2-11.2l0.9-1.6l0.9,1.6c2.7,4.8,6.4,8.7,11.2,11.2l1.6,0.9l-1.6,0.9c-4.8,2.7-8.5,6.4-11.2,11.2
		l-0.9,1.6l-0.9-1.6c-2.7-4.8-6.4-8.7-11.2-11.2L61.7,53L63.3,52.1z"/>
	<path class="st0" d="M71.9,129.9c1.1,0,2.1,0,3.2-0.2c6.4,15.4,21.4,26.2,39,26.2c23,0,41.8-18.8,41.8-41.8
		c0-17.5-10.8-32.6-26.2-38.8c0.9-16.5-5.1-32.4-16.8-44.1c-10.8-11-25.3-17-40.9-17s-29.9,6-40.9,17C8.5,53.7,8.5,90.4,31.2,113.1
		C42,123.9,56.7,129.9,71.9,129.9z M85.9,140.2c-2.7-2.8-4.8-6-6.4-9.4c1.6-1.2,3.7-1.6,5.7-0.7c2.8,1.2,4.3,4.6,3,7.4
		C87.7,138.6,87,139.5,85.9,140.2z M107,151.7c-0.2-1.8,0.7-3.7,2.3-4.6c2.3-1.4,5.3-0.5,6.7,1.8c0.5,1.1,0.7,2.3,0.5,3.4
		c-0.9,0-1.8,0.2-2.5,0.2C111.6,152.4,109.3,152.2,107,151.7z M139.1,143c-1.8-1.2-2.7-3.2-2.3-5.3c0.4-3,3.2-5.1,6.2-4.8
		c1.2,0.2,2.5,0.9,3.4,1.8C144.2,137.9,141.9,140.7,139.1,143z M148.1,131.7c-1.2-1.1-2.8-1.9-4.6-2.1c-5-0.7-9.6,2.8-10.3,7.8
		c-0.4,3,0.7,6,3,8.1c-4.6,3.4-10.1,5.7-15.9,6.6c0.2-1.6-0.4-3.4-1.1-4.8c-2.3-4.1-7.4-5.3-11.5-3c-2.5,1.4-3.9,4.1-4.1,6.7
		c-5.7-1.6-10.8-4.4-15.1-8.3c1.2-1.1,2.3-2.3,3-3.9c1.9-4.8-0.4-10.1-5-12c-2.8-1.2-5.8-0.9-8.5,0.7c-1.6-4.1-2.3-8.7-2.3-13.3
		c0-8.7,2.8-16.7,7.8-23.2c1.2,1.4,2.8,2.5,4.6,3c0.9,0.2,1.8,0.4,2.7,0.4c1.6,0,3.2-0.4,4.6-1.2c2.1-1.2,3.7-3.2,4.4-5.7
		c0.9-2.8,0.2-5.8-1.6-8.1c4.8-2.1,10.1-3.4,15.8-3.4c4.8,0,9.4,0.9,13.6,2.5c-1.2,1.6-1.9,3.7-1.9,5.8c0,5.3,4.3,9.6,9.6,9.6
		c3.2,0,6.2-1.6,8-4.4c5.7,6.7,9,15.2,9,24.8C152.4,120.3,150.8,126.4,148.1,131.7z M95,80.8c1.4,1.4,1.9,3.5,1.2,5.7
		c-0.4,1.6-1.4,2.8-2.8,3.5c-1.4,0.7-3,0.9-4.4,0.5c-1.2-0.4-2.5-1.2-3.2-2.3C88.4,85.3,91.6,82.8,95,80.8z M130.9,79.8
		c3.5,1.8,6.9,4.1,9.7,6.9c-1.1,2.1-3.2,3.5-5.5,3.5c-3.4,0-6-2.7-6-6C129.2,82.4,129.7,80.8,130.9,79.8L130.9,79.8z M33.7,33.7
		C44,23.4,57.6,17.8,72.1,17.8s28.2,5.7,38.4,15.9c10.6,10.6,16.3,25.3,15.8,40.4c-3.9-1.2-8-1.8-12.2-1.8
		c-23,0-41.8,18.8-41.8,41.8c0,4.3,0.7,8.3,1.8,12.2c-15.1,0.5-29.6-5.1-40.4-15.9C12.4,89.3,12.4,54.8,33.7,33.7z"/>
	<path class="st0" d="M93.6,101.2c-5.8,0-10.8,4.8-10.8,10.8c0,5.8,4.8,10.8,10.8,10.8s10.8-4.8,10.8-10.8
		C104.2,106,99.4,101.2,93.6,101.2z M93.6,119.1c-3.9,0-7.3-3.2-7.3-7.3c0-3.9,3.2-7.3,7.3-7.3s7.3,3.2,7.3,7.3
		C100.6,115.9,97.5,119.1,93.6,119.1z"/>
	<path class="st0" d="M116.2,117.9c-5.5,0-9.9,4.4-9.9,9.9s4.4,9.9,9.9,9.9c5.5,0,9.9-4.4,9.9-9.9S121.7,117.9,116.2,117.9z
		 M116.2,134.2c-3.5,0-6.4-2.8-6.4-6.4s2.8-6.4,6.4-6.4c3.5,0,6.4,2.8,6.4,6.4S119.8,134.2,116.2,134.2z"/>
	<path class="st0" d="M137.3,102.8c-5.1,0-9.2,4.1-9.2,9.2c0,5.1,4.1,9.2,9.2,9.2c5.1,0,9.2-4.1,9.2-9.2
		C146.5,106.9,142.4,102.8,137.3,102.8z M137.3,117.7c-3.2,0-5.7-2.5-5.7-5.7c0-3.2,2.5-5.7,5.7-5.7c3.2,0,5.7,2.5,5.7,5.7
		C143,115.2,140.5,117.7,137.3,117.7z"/>
	<path class="st0" d="M115.9,107.2c5.3,0,9.6-4.3,9.6-9.6c0-5.3-4.3-9.6-9.6-9.6c-5.3,0-9.6,4.3-9.6,9.6
		C106.3,103,110.6,107.2,115.9,107.2z M115.9,91.6c3.4,0,6,2.7,6,6s-2.7,6-6,6c-3.4,0-6-2.7-6-6S112.5,91.6,115.9,91.6z"/>
</g>
</svg>
