<?xml version="1.0" encoding="UTF-8" standalone="no"?>
<!DOCTYPE svg PUBLIC "-//W3C//DTD SVG 1.1//EN" "http://www.w3.org/Graphics/SVG/1.1/DTD/svg11.dtd">
<svg width="100%" height="100%" viewBox="0 0 171 171" version="1.1" xmlns="http://www.w3.org/2000/svg" xmlns:xlink="http://www.w3.org/1999/xlink" xml:space="preserve" xmlns:serif="http://www.serif.com/" style="fill-rule:evenodd;clip-rule:evenodd;stroke-linejoin:round;stroke-miterlimit:2;">
    <g>
        <path d="M28.6,99.5C36.1,99.5 42.1,93.8 43,86.7L55.1,86.7C55.5,94 58.3,100.6 62.7,105.5L48.5,119.7C41.9,114.4 32,114.7 25.9,120.8C19.3,127.4 19.3,138 25.9,144.8C29.3,148.2 33.5,149.8 38,149.8C42.3,149.8 46.7,148.2 49.9,144.8C56.1,138.6 56.5,128.8 51,122.2L65.2,108C70,112.3 76.2,114.9 83,115.5L83,127.2C75.7,128.1 70.2,134.3 70.2,141.6C70.2,149.6 76.8,156.2 84.8,156.2C92.8,156.2 99.4,149.6 99.4,141.6C99.4,134.1 93.7,128.1 86.6,127.2L86.6,115.5C93.9,115.1 100.5,112.5 105.6,107.9L119.8,122.1C114.5,128.7 114.8,138.6 120.9,144.7C124.1,147.9 128.4,149.7 132.8,149.7C137.2,149.7 141.5,147.9 144.7,144.7C151.3,138.1 151.3,127.3 144.7,120.7C141.5,117.5 137.2,115.7 132.8,115.7C128.9,115.7 125.2,117.1 122.1,119.4L107.9,105.2C112.3,100.2 115.2,94 115.5,87.1L126.9,87.1C127.8,94.4 134,99.9 141.3,99.9C149.3,99.9 155.9,93.3 155.9,85.3C155.9,77.3 149.3,70.7 141.3,70.7C133.8,70.7 127.8,76.4 126.9,83.5L115.5,83.5C115.1,76.4 112.3,70 107.9,65L122.1,50.8C125.1,53.3 129,54.5 132.8,54.5C137.1,54.5 141.5,52.9 144.7,49.5C151.3,42.9 151.3,32.3 144.7,25.5C138.1,18.9 127.3,18.9 120.7,25.5C114.5,31.7 114.1,41.5 119.6,48.1L105.4,62.3C100.4,57.9 94,55.2 87.1,54.8L87.1,42.8C94.4,41.9 99.9,35.7 99.9,28.4C99.9,20.4 93.3,13.8 85.3,13.8C77.3,13.8 70.7,20.4 70.7,28.4C70.7,35.9 76.4,41.9 83.5,42.8L83.5,54.9C76.6,55.3 70.2,58.1 65.2,62.4L51,48.1C56.3,41.5 56,31.6 49.9,25.5C43.3,18.9 32.7,18.9 25.9,25.5C19.3,32.1 19.3,42.9 25.9,49.5C29.3,53.1 33.5,54.8 38,54.8C41.7,54.8 45.6,53.6 48.7,51.1L62.9,65.3C58.6,70.1 55.8,76.3 55.3,83.1L43.2,83.1C42.3,75.8 36.1,70.3 28.8,70.3C20.8,70.3 14.2,76.9 14.2,84.9C14,93 20.6,99.5 28.6,99.5ZM47.6,142.2C42.4,147.4 33.9,147.4 28.8,142.2C23.6,137 23.5,128.5 28.8,123.4C31.5,120.7 34.8,119.5 38.2,119.5C41.6,119.5 45.1,120.7 47.6,123.4C52.8,128.5 52.8,137.1 47.6,142.2ZM96,141.7C96,147.7 91,152.7 85,152.7C79,152.7 74,147.7 74,141.7C74,135.7 79,130.7 85,130.7C91,130.7 96,135.6 96,141.7ZM133,119.3C136.6,119.3 139.9,120.7 142.4,123.2C147.6,128.4 147.6,136.9 142.4,142C139.9,144.5 136.5,145.9 133,145.9C129.4,145.9 126.1,144.5 123.6,142C118.4,136.8 118.4,128.3 123.6,123.2C126,120.7 129.2,119.3 133,119.3ZM141.7,74.3C147.7,74.3 152.7,79.3 152.7,85.3C152.7,91.3 147.7,96.3 141.7,96.3C135.7,96.3 130.7,91.3 130.7,85.3C130.7,79.3 135.6,74.3 141.7,74.3ZM123.4,28.4C126.1,25.7 129.4,24.5 132.8,24.5C136.2,24.5 139.7,25.7 142.2,28.4C147.4,33.6 147.5,42.1 142.2,47.2C137,52.4 128.5,52.4 123.4,47.2C118.2,42.1 118.2,33.6 123.4,28.4ZM74.3,28.6C74.3,22.6 79.3,17.6 85.3,17.6C91.3,17.6 96.3,22.6 96.3,28.6C96.3,34.6 91.3,39.6 85.3,39.6C79.3,39.6 74.3,34.6 74.3,28.6ZM28.6,47.4C23.4,42.2 23.4,33.7 28.6,28.6C31.3,25.9 34.6,24.7 38,24.7C41.4,24.7 44.8,25.9 47.4,28.6C52.6,33.8 52.6,42.3 47.4,47.4C42.2,52.5 33.7,52.6 28.6,47.4ZM85.5,58.6C100.3,58.6 112.2,70.5 112.4,85.1L112.4,85.7C112.2,100.3 100.3,112 85.5,112C70.7,112 58.6,100.1 58.6,85.3C58.6,70.5 70.5,58.6 85.5,58.6ZM28.6,73.7C34.6,73.7 39.6,78.7 39.6,84.7C39.6,90.7 34.6,95.7 28.6,95.7C22.6,95.7 17.6,90.9 17.6,84.7C17.6,78.5 22.5,73.7 28.6,73.7Z" style="fill:rgb(161,191,36);fill-rule:nonzero;"/>
        <path d="M101,89.6L101,86L90.6,86C90.4,86.9 90.1,87.6 89.7,88.3L97,95.6L99.5,93.1L99.5,99.5L93.1,99.5L95.6,97L88.3,89.7C87.6,90.2 86.9,90.6 86,90.6L86,101L89.6,101L85.2,105.4L80.8,101L84.4,101L84.4,90.6C83.5,90.4 82.8,90.1 82.1,89.7L74.5,97L77,99.5L70.6,99.5L70.6,93.1L73.1,95.6L80.6,88.3C80.1,87.6 79.7,86.9 79.7,86L69.1,86L69.1,89.6L64.7,85.2L69.1,80.8L69.1,84.4L79.4,84.4C79.6,83.5 79.9,82.8 80.5,82.1L73,74.6L70.5,77.1L70.5,70.7L76.9,70.7L74.4,73.2L81.7,80.5C82.4,80 83.3,79.6 84,79.6L84,69.3L80.4,69.3L84.8,64.9L89.2,69.3L85.6,69.3L85.6,79.6C86.5,79.8 87.2,80.1 87.9,80.5L95.2,73.2L93,70.7L99.4,70.7L99.4,77.1L96.9,74.6L89.6,81.9C90.1,82.6 90.5,83.3 90.5,84.2L100.8,84.2L100.8,80.6L105.4,85L101,89.6Z" style="fill:rgb(161,191,36);fill-rule:nonzero;"/>
    </g>
</svg>
