<?xml version="1.0" encoding="UTF-8" standalone="no"?>
<!DOCTYPE svg PUBLIC "-//W3C//DTD SVG 1.1//EN" "http://www.w3.org/Graphics/SVG/1.1/DTD/svg11.dtd">
<svg width="100%" height="100%" viewBox="0 0 171 171" version="1.1" xmlns="http://www.w3.org/2000/svg" xmlns:xlink="http://www.w3.org/1999/xlink" xml:space="preserve" xmlns:serif="http://www.serif.com/" style="fill-rule:evenodd;clip-rule:evenodd;stroke-linejoin:round;stroke-miterlimit:2;">
    <g>
        <path d="M15.9,155.9L114.8,155.9C115.9,155.9 116.6,155.2 116.6,154.1L116.6,23.4C116.6,22.3 115.9,21.6 114.8,21.6L102.2,21.6L102.2,15.9C102.2,14.8 101.5,14.1 100.4,14.1C99.3,14.1 98.6,14.8 98.6,15.9L98.6,21.6L78.8,21.6L78.8,15.9C78.8,14.8 78.1,14.1 77,14.1C75.9,14.1 75.2,14.8 75.2,15.9L75.2,21.6L55.5,21.6L55.5,15.9C55.5,14.8 54.8,14.1 53.7,14.1C52.6,14.1 51.9,14.8 51.9,15.9L51.9,21.6L32.1,21.6L32.1,15.9C32.1,14.8 31.4,14.1 30.3,14.1C29.2,14.1 28.5,14.8 28.5,15.9L28.5,21.6L15.9,21.6C14.8,21.6 14.1,22.3 14.1,23.4L14.1,154.1C14.2,155.2 15.1,155.9 15.9,155.9ZM17.7,25.2L28.5,25.2L28.5,30.3C25.1,31.2 22.5,34.2 22.5,37.7C22.5,42 26,45.5 30.3,45.5C34.6,45.5 38.1,42 38.1,37.7C38.1,34 35.6,31 32.1,30.3L32.1,25.2L51.9,25.2L51.9,30.3C48.5,31.2 45.9,34.2 45.9,37.7C45.9,42 49.4,45.5 53.7,45.5C58,45.5 61.5,42 61.5,37.7C61.5,34 59,31 55.5,30.3L55.5,25.2L75.3,25.2L75.3,30.3C71.9,31.2 69.3,34.2 69.3,37.7C69.3,42 72.8,45.5 77.1,45.5C81.4,45.5 84.9,42 84.9,37.7C84.9,34 82.4,31 78.9,30.3L78.9,25.2L98.7,25.2L98.7,30.3C95.3,31.2 92.7,34.2 92.7,37.7C92.7,42 96.2,45.5 100.5,45.5C104.8,45.5 108.3,42 108.3,37.7C108.3,34 105.8,31 102.3,30.3L102.3,25.2L113,25.2L113,152.4L17.7,152.4L17.7,25.2ZM30.3,33.7C32.6,33.7 34.6,35.6 34.6,38C34.6,40.3 32.7,42.3 30.3,42.3C27.9,42.3 26,40.2 26,37.9C26,35.6 28,33.7 30.3,33.7ZM53.7,33.7C56,33.7 58,35.6 58,38C58,40.3 56.1,42.3 53.7,42.3C51.4,42.3 49.4,40.4 49.4,38C49.4,35.6 51.4,33.7 53.7,33.7ZM77.1,33.7C79.4,33.7 81.4,35.6 81.4,38C81.4,40.3 79.5,42.3 77.1,42.3C74.8,42.3 72.8,40.4 72.8,38C72.8,35.6 74.8,33.7 77.1,33.7ZM100.5,33.7C102.8,33.7 104.8,35.6 104.8,38C104.8,40.3 102.9,42.3 100.5,42.3C98.1,42.3 96.2,40.4 96.2,38C96.2,35.6 98.1,33.7 100.5,33.7Z" style="fill:rgb(161,191,36);fill-rule:nonzero;"/>
        <path d="M143.5,154.1C143.5,153.9 143.7,153.9 143.7,153.7L155.7,127.8C155.9,127.6 155.9,127.3 155.9,127.1L155.9,23.9C155.9,18.6 151.6,14.2 146.5,14.2L133.6,14.2C128.5,14.2 124.2,18.6 124.2,23.9L124.2,127.2C124.2,127.4 124.2,127.7 124.4,127.9L136.4,153.8C136.4,154 136.6,154 136.6,154.2C137.5,155.3 138.7,156 140,156C141.4,155.9 142.6,155.2 143.5,154.1ZM128.4,128.1L151.8,128.1L146.8,138.7L133.5,138.7L128.4,128.1ZM127.7,124.7L127.7,44.6L152.3,44.6L152.3,124.7L127.7,124.7ZM152.4,41.1L127.8,41.1L127.8,33.3L152.4,33.3L152.4,41.1ZM133.6,17.7L146.5,17.7C149.7,17.7 152.3,20.5 152.3,23.9L152.3,29.7L127.7,29.7L127.7,23.9C127.7,20.6 130.4,17.7 133.6,17.7ZM140.1,152.4C139.9,152.4 139.7,152.4 139.6,152.2L135,142.5L145.1,142.5L140.5,152.2C140.3,152.4 140.1,152.4 140.1,152.4Z" style="fill:rgb(161,191,36);fill-rule:nonzero;"/>
        <path d="M88.8,118.5C83.5,118.5 79.1,122.8 79.1,128.1C79.1,133.4 83.5,137.7 88.8,137.7C94.1,137.7 98.5,133.4 98.5,128.1C98.5,122.8 94.3,118.5 88.8,118.5ZM88.8,134.3C85.4,134.3 82.6,131.6 82.6,128.3C82.6,124.9 85.4,122.3 88.8,122.3C92.2,122.3 95,125 95,128.3C95,131.6 92.3,134.3 88.8,134.3Z" style="fill:rgb(161,191,36);fill-rule:nonzero;"/>
        <path d="M44.5,99.7C44.5,94.2 39.9,89.6 34.4,89.6C28.9,89.6 24.3,94 24.3,99.7C24.3,105.2 28.9,109.8 34.4,109.8C39.9,109.8 44.5,105.2 44.5,99.7ZM27.8,99.7C27.8,96.2 30.8,93.1 34.4,93.1C37.9,93.1 41,95.9 41,99.7C41,103.2 38,106.3 34.4,106.3C30.8,106.3 27.8,103.3 27.8,99.7Z" style="fill:rgb(161,191,36);fill-rule:nonzero;"/>
        <path d="M105.6,77.2L101.9,75.1C98.4,73.2 95.5,70.3 93.8,67L91.7,63.3C91.2,62.2 89.2,62.2 88.5,63.3L86.3,67C84.4,70.5 81.5,73.4 78.2,75.1L74.5,77.2C74,77.6 73.6,78.1 73.6,78.8C73.6,79.5 74,80 74.5,80.4L78.2,82.5C81.7,84.4 84.6,87.3 86.3,90.6L88.4,94.3C88.8,94.8 89.3,95.2 90,95.2C90.7,95.2 91.2,94.8 91.6,94.3L93.7,90.6C95.6,87.1 98.5,84.2 101.8,82.5L105.5,80.4C106,80 106.4,79.5 106.4,78.8C106.4,78.1 106.1,77.6 105.6,77.2ZM100.1,79.4C96,81.7 92.7,84.9 90.5,89L90,89.8L89.5,88.9C87.2,84.8 84,81.5 79.9,79.3L79,78.8L79.9,78.3C84,76 87.3,72.8 89.5,68.7L90,67.8L90.5,68.7C92.8,72.8 96,76.1 100.1,78.3L101,78.8L100.1,79.4Z" style="fill:rgb(161,191,36);fill-rule:nonzero;"/>
        <path d="M64.8,124.7L61.1,122.6C57.6,120.7 54.7,117.8 53,114.5L50.9,110.8C50.2,109.7 48.4,109.7 47.7,110.8L45.6,114.5C43.7,118 40.8,120.9 37.5,122.6L33.8,124.7C33.3,125.1 32.9,125.6 32.9,126.3C32.9,127 33.3,127.5 33.8,127.9L37.5,130C41,131.9 43.9,134.8 45.6,138.1L47.7,141.8C48.1,142.3 48.6,142.7 49.3,142.7C50,142.7 50.5,142.3 50.9,141.8L53,138.1C54.9,134.6 57.8,131.7 61.1,130L64.8,127.9C65.3,127.5 65.7,127 65.7,126.3C65.7,125.6 65.6,125.1 64.8,124.7ZM59.5,126.9C55.4,129.2 52.1,132.4 49.9,136.5L49.4,137.4L48.7,136.5C46.4,132.4 43.2,129.1 39.1,126.9L38.2,126.4L39.1,125.9C43.2,123.6 46.5,120.4 48.7,116.3L49.2,115.4L49.7,116.3C52,120.4 55.2,123.7 59.3,125.9L60.2,126.4L59.5,126.9Z" style="fill:rgb(161,191,36);fill-rule:nonzero;"/>
        <path d="M73.5,90.2C73.5,89.5 73.1,89 72.6,88.6L69.8,87C67.1,85.6 65.2,83.5 63.8,81L62,78.1C61.5,77 59.5,77 58.8,78.1L57.2,81C55.8,83.7 53.7,85.6 51.2,87L48.4,88.6C47.9,89 47.5,89.5 47.5,90.2C47.5,90.9 47.9,91.4 48.4,91.8L51.2,93.4C53.9,94.8 55.8,96.9 57.2,99.4L58.8,102.2C59.2,102.7 59.7,103.1 60.4,103.1C61.1,103.1 61.6,102.7 62,102.2L63.6,99.4C65,96.7 67.1,94.8 69.6,93.4L72.4,91.8C73.2,91.4 73.5,90.9 73.5,90.2ZM68,90.2C64.8,92 62.3,94.5 60.6,97.6C58.8,94.4 56.3,91.9 53.2,90.2C56.4,88.4 59,85.9 60.6,82.8C62.4,85.7 64.8,88.4 68,90.2Z" style="fill:rgb(161,191,36);fill-rule:nonzero;"/>
        <path d="M80.6,113.2C81.7,113.2 82.4,112.5 82.4,111.4L82.4,106.6L87.2,106.6C88.3,106.6 89,105.9 89,104.8C89,103.7 88.3,103 87.2,103L82.4,103L82.4,98.2C82.4,97.1 81.7,96.4 80.6,96.4C79.5,96.4 78.8,97.1 78.8,98.2L78.8,103L74,103C72.9,103 72.2,103.7 72.2,104.8C72.2,105.9 72.9,106.6 74,106.6L78.8,106.6L78.8,111.4C78.8,112.3 79.5,113.2 80.6,113.2Z" style="fill:rgb(161,191,36);fill-rule:nonzero;"/>
        <path d="M36.3,72.3L41.1,72.3L41.1,77.1C41.1,78.2 41.8,78.9 42.9,78.9C44,78.9 44.7,78.2 44.7,77.1L44.7,72.3L49.5,72.3C50.6,72.3 51.3,71.6 51.3,70.5C51.3,69.4 50.6,68.7 49.5,68.7L44.7,68.7L44.7,64C44.7,62.9 44,62.2 42.9,62.2C41.8,62.2 41.1,62.9 41.1,64L41.1,68.8L36.3,68.8C35.2,68.8 34.5,69.5 34.5,70.6C34.5,71.7 35.3,72.3 36.3,72.3Z" style="fill:rgb(161,191,36);fill-rule:nonzero;"/>
        <path d="M62.7,64L67.5,64L67.5,68.8C67.5,69.9 68.2,70.6 69.3,70.6C70.4,70.6 71.1,69.9 71.1,68.8L71.1,64L75.9,64C77,64 77.7,63.3 77.7,62.2C77.7,61.1 77,60.4 75.9,60.4L71,60.4L71,55.6C71,54.5 70.3,53.8 69.2,53.8C68.1,53.8 67.4,54.5 67.4,55.6L67.4,60.4L62.6,60.4C61.5,60.4 60.8,61.1 60.8,62.2C60.9,63.2 61.8,64 62.7,64Z" style="fill:rgb(161,191,36);fill-rule:nonzero;"/>
    </g>
</svg>
