<?xml version="1.0" encoding="utf-8"?>
<!-- Generator: Adobe Illustrator 21.1.0, SVG Export Plug-In . SVG Version: 6.00 Build 0)  -->
<svg version="1.1" id="Ebene_1" xmlns="http://www.w3.org/2000/svg" xmlns:xlink="http://www.w3.org/1999/xlink" x="0px" y="0px"
	 width="170.1px" height="170.1px" viewBox="0 0 170.1 170.1" style="enable-background:new 0 0 170.1 170.1;" xml:space="preserve"
	>
<style type="text/css">
	.st0{fill:#ADC913;}
</style>
<g>
	<path class="st0" d="M15.9,155.9h98.9c1.1,0,1.8-0.7,1.8-1.8V23.4c0-1.1-0.7-1.8-1.8-1.8h-12.6v-5.7c0-1.1-0.7-1.8-1.8-1.8
		s-1.8,0.7-1.8,1.8v5.7H78.8v-5.7c0-1.1-0.7-1.8-1.8-1.8c-1.1,0-1.8,0.7-1.8,1.8v5.7H55.5v-5.7c0-1.1-0.7-1.8-1.8-1.8
		c-1.1,0-1.8,0.7-1.8,1.8v5.7H32.1v-5.7c0-1.1-0.7-1.8-1.8-1.8c-1.1,0-1.8,0.7-1.8,1.8v5.7H15.9c-1.1,0-1.8,0.7-1.8,1.8v130.7
		C14.2,155.2,15.1,155.9,15.9,155.9z M17.7,25.2h10.8v5.1c-3.4,0.9-6,3.9-6,7.4c0,4.3,3.5,7.8,7.8,7.8s7.8-3.5,7.8-7.8
		c0-3.7-2.5-6.7-6-7.4v-5.1h19.8v5.1c-3.4,0.9-6,3.9-6,7.4c0,4.3,3.5,7.8,7.8,7.8s7.8-3.5,7.8-7.8c0-3.7-2.5-6.7-6-7.4v-5.1h19.8
		v5.1c-3.4,0.9-6,3.9-6,7.4c0,4.3,3.5,7.8,7.8,7.8c4.3,0,7.8-3.5,7.8-7.8c0-3.7-2.5-6.7-6-7.4v-5.1h19.8v5.1c-3.4,0.9-6,3.9-6,7.4
		c0,4.3,3.5,7.8,7.8,7.8c4.3,0,7.8-3.5,7.8-7.8c0-3.7-2.5-6.7-6-7.4v-5.1H113v127.2H17.7V25.2z M30.3,33.7c2.3,0,4.3,1.9,4.3,4.3
		c0,2.3-1.9,4.3-4.3,4.3S26,40.2,26,37.9C26,35.6,28,33.7,30.3,33.7z M53.7,33.7c2.3,0,4.3,1.9,4.3,4.3c0,2.3-1.9,4.3-4.3,4.3
		c-2.3,0-4.3-1.9-4.3-4.3C49.4,35.6,51.4,33.7,53.7,33.7z M77.1,33.7c2.3,0,4.3,1.9,4.3,4.3c0,2.3-1.9,4.3-4.3,4.3
		c-2.3,0-4.3-1.9-4.3-4.3C72.8,35.6,74.8,33.7,77.1,33.7z M100.5,33.7c2.3,0,4.3,1.9,4.3,4.3c0,2.3-1.9,4.3-4.3,4.3
		s-4.3-1.9-4.3-4.3C96.2,35.6,98.1,33.7,100.5,33.7z"/>
	<path class="st0" d="M143.5,154.1c0-0.2,0.2-0.2,0.2-0.4l12-25.9c0.2-0.2,0.2-0.5,0.2-0.7V23.9c0-5.3-4.3-9.7-9.4-9.7h-12.9
		c-5.1,0-9.4,4.4-9.4,9.7v103.3c0,0.2,0,0.5,0.2,0.7l12,25.9c0,0.2,0.2,0.2,0.2,0.4c0.9,1.1,2.1,1.8,3.4,1.8l0,0
		C141.4,155.9,142.6,155.2,143.5,154.1z M128.4,128.1h23.4l-5,10.6h-13.3L128.4,128.1z M127.7,124.5V44.6h24.6v80.1h-24.6V124.5z
		 M152.4,41.1h-24.6v-7.8h24.6V41.1z M133.6,17.7h12.9c3.2,0,5.8,2.8,5.8,6.2v5.8h-24.6v-5.8C127.7,20.6,130.4,17.7,133.6,17.7z
		 M140.1,152.4L140.1,152.4c-0.2,0-0.4,0-0.5-0.2l-4.6-9.7h10.1l-4.6,9.7C140.3,152.4,140.1,152.4,140.1,152.4z"/>
	<path class="st0" d="M88.8,118.5c-5.3,0-9.7,4.3-9.7,9.6c0,5.3,4.4,9.6,9.7,9.6c5.3,0,9.7-4.3,9.7-9.6
		C98.5,122.8,94.3,118.5,88.8,118.5z M88.8,134.3c-3.4,0-6.2-2.7-6.2-6c0-3.4,2.8-6,6.2-6c3.4,0,6.2,2.7,6.2,6
		C95,131.6,92.3,134.3,88.8,134.3z"/>
	<path class="st0" d="M44.5,99.7c0-5.5-4.6-10.1-10.1-10.1s-10.1,4.4-10.1,10.1c0,5.5,4.6,10.1,10.1,10.1S44.5,105.2,44.5,99.7z
		 M27.8,99.7c0-3.5,3-6.6,6.6-6.6c3.5,0,6.6,2.8,6.6,6.6c0,3.5-3,6.6-6.6,6.6C30.8,106.3,27.8,103.3,27.8,99.7z"/>
	<path class="st0" d="M105.6,77.2l-3.7-2.1c-3.5-1.9-6.4-4.8-8.1-8.1l-2.1-3.7c-0.5-1.1-2.5-1.1-3.2,0L86.3,67
		c-1.9,3.5-4.8,6.4-8.1,8.1l-3.7,2.1c-0.5,0.4-0.9,0.9-0.9,1.6s0.4,1.2,0.9,1.6l3.7,2.1c3.5,1.9,6.4,4.8,8.1,8.1l2.1,3.7
		c0.4,0.5,0.9,0.9,1.6,0.9s1.2-0.4,1.6-0.9l2.1-3.7c1.9-3.5,4.8-6.4,8.1-8.1l3.7-2.1c0.5-0.4,0.9-0.9,0.9-1.6S106.1,77.6,105.6,77.2
		z M100.1,79.4c-4.1,2.3-7.4,5.5-9.6,9.6L90,89.8l-0.5-0.9c-2.3-4.1-5.5-7.4-9.6-9.6L79,78.8l0.9-0.5c4.1-2.3,7.4-5.5,9.6-9.6
		l0.5-0.9l0.5,0.9c2.3,4.1,5.5,7.4,9.6,9.6l0.9,0.5L100.1,79.4z"/>
	<path class="st0" d="M64.8,124.7l-3.7-2.1c-3.5-1.9-6.4-4.8-8.1-8.1l-2.1-3.7c-0.7-1.1-2.5-1.1-3.2,0l-2.1,3.7
		c-1.9,3.5-4.8,6.4-8.1,8.1l-3.7,2.1c-0.5,0.4-0.9,0.9-0.9,1.6s0.4,1.2,0.9,1.6l3.7,2.1c3.5,1.9,6.4,4.8,8.1,8.1l2.1,3.7
		c0.4,0.5,0.9,0.9,1.6,0.9c0.7,0,1.2-0.4,1.6-0.9l2.1-3.7c1.9-3.5,4.8-6.4,8.1-8.1l3.7-2.1c0.5-0.4,0.9-0.9,0.9-1.6
		S65.6,125.1,64.8,124.7z M59.5,126.9c-4.1,2.3-7.4,5.5-9.6,9.6l-0.5,0.9l-0.7-0.9c-2.3-4.1-5.5-7.4-9.6-9.6l-0.9-0.5l0.9-0.5
		c4.1-2.3,7.4-5.5,9.6-9.6l0.5-0.9l0.5,0.9c2.3,4.1,5.5,7.4,9.6,9.6l0.9,0.5L59.5,126.9z"/>
	<path class="st0" d="M73.5,90.2c0-0.7-0.4-1.2-0.9-1.6L69.8,87c-2.7-1.4-4.6-3.5-6-6L62,78.1c-0.5-1.1-2.5-1.1-3.2,0L57.2,81
		c-1.4,2.7-3.5,4.6-6,6l-2.8,1.6c-0.5,0.4-0.9,0.9-0.9,1.6s0.4,1.2,0.9,1.6l2.8,1.6c2.7,1.4,4.6,3.5,6,6l1.6,2.8
		c0.4,0.5,0.9,0.9,1.6,0.9s1.2-0.4,1.6-0.9l1.6-2.8c1.4-2.7,3.5-4.6,6-6l2.8-1.6C73.2,91.4,73.5,90.9,73.5,90.2z M68,90.2
		c-3.2,1.8-5.7,4.3-7.4,7.4l0,0l0,0c-1.8-3.2-4.3-5.7-7.4-7.4l0,0l0,0c3.2-1.8,5.8-4.3,7.4-7.4l0,0l0,0C62.4,85.7,64.8,88.4,68,90.2
		L68,90.2L68,90.2z"/>
	<path class="st0" d="M80.6,113.2c1.1,0,1.8-0.7,1.8-1.8v-4.8h4.8c1.1,0,1.8-0.7,1.8-1.8s-0.7-1.8-1.8-1.8h-4.8v-4.8
		c0-1.1-0.7-1.8-1.8-1.8s-1.8,0.7-1.8,1.8v4.8h-4.8c-1.1,0-1.8,0.7-1.8,1.8s0.7,1.8,1.8,1.8h4.8v4.8
		C78.8,112.3,79.5,113.2,80.6,113.2z"/>
	<path class="st0" d="M36.3,72.3h4.8v4.8c0,1.1,0.7,1.8,1.8,1.8c1.1,0,1.8-0.7,1.8-1.8v-4.8h4.8c1.1,0,1.8-0.7,1.8-1.8
		s-0.7-1.8-1.8-1.8h-4.8V64c0-1.1-0.7-1.8-1.8-1.8c-1.1,0-1.8,0.7-1.8,1.8v4.8h-4.8c-1.1,0-1.8,0.7-1.8,1.8S35.3,72.3,36.3,72.3z"/>
	<path class="st0" d="M62.7,64h4.8v4.8c0,1.1,0.7,1.8,1.8,1.8s1.8-0.7,1.8-1.8V64h4.8c1.1,0,1.8-0.7,1.8-1.8c0-1.1-0.7-1.8-1.8-1.8
		H71v-4.8c0-1.1-0.7-1.8-1.8-1.8s-1.8,0.7-1.8,1.8v4.8h-4.8c-1.1,0-1.8,0.7-1.8,1.8C60.9,63.2,61.8,64,62.7,64z"/>
</g>
</svg>
