<?xml version="1.0" encoding="utf-8"?>
<!-- Generator: Adobe Illustrator 21.1.0, SVG Export Plug-In . SVG Version: 6.00 Build 0)  -->
<svg version="1.1" id="Ebene_1" xmlns="http://www.w3.org/2000/svg" xmlns:xlink="http://www.w3.org/1999/xlink" x="0px" y="0px"
	 width="708.7px" height="201.3px" viewBox="0 0 708.7 201.3" style="enable-background:new 0 0 708.7 201.3;" xml:space="preserve"
	>
<g>
	<path d="M703.5,113.4l-0.5,2.9c-1.3-2-3.5-3.5-6.9-3.5c-6.4,0-9,4.9-9,11.2v1.2c0,6.6,2.6,11.2,9,11.2c3,0,5-1.1,6.4-2.8v3.3
		c0,3.7-1.4,5.1-4.8,5.1c-3.5,0-4.6-1.8-4.6-4.8h-5.6v0.9c0,4.8,2.6,8.8,10.2,8.8c7.3,0,10.5-3.6,10.5-9.9v-16.9l0.4-6.8H703.5z
		 M702.5,128.5c-0.7,1.1-2.2,2.7-4.7,2.7c-3.2,0-4.7-2.2-4.7-6.1V124c0-3.7,1.6-6.1,4.7-6.1c2.5,0,4,1.6,4.7,2.8V128.5z"/>
	<polygon points="140.8,117.2 128.6,117.2 128.6,102.4 122.5,102.4 122.5,137.6 128.6,137.6 128.6,122 140.8,122 140.8,137.6 
		146.9,137.6 146.9,102.4 140.8,102.4 	"/>
	<path d="M159.7,137.6c3.4,0,6.1-2,7.4-4.1l0.7,3.4h5.4l-0.7-6.8v-16.9h-6.1v16.9c-0.7,1.4-2,2.7-4.7,2.7c-2.7,0-4.1-2-4.1-4.1
		v-15.6h-5.4v16.2C152.3,133.5,154.3,137.6,159.7,137.6z"/>
	<path d="M197,138.2v-16.9c1.4-1.4,2-2.7,4.7-2.7c2,0,3.4,0.7,3.4,3.4v15.6v1.4h6.1V122c0-4.1-2-7.4-6.8-7.4c-3.4,0-6.1,2-7.4,4.1
		c-0.7-2.7-2.7-4.1-6.1-4.1c-3.4,0-6.1,1.4-7.4,3.4l-0.7-2.7h-6.1l0.7,6.8v16.9h6.1V122c0.7-1.4,1.4-2.7,4.1-2.7
		c2,0,3.4,0.7,3.4,3.4v15.6H197z"/>
	<path d="M230.8,134.8v2.7h5.4l-0.7-6.8V122c0-5.4-2-8.8-9.5-8.8c-7.4,0-9.5,4.1-9.5,8.1v0.7h4.7c0-2,0.7-4.1,4.1-4.1s4.1,2,4.1,4.7
		l-6.1,0.7c-4.7,0.7-8.1,2-8.1,7.4v0.7c0,3.4,2.7,6.8,7.4,6.8C226.8,138.2,229.5,136.9,230.8,134.8z M230.1,130.8
		c-0.7,0.7-2.7,2-4.7,2.7c-2.7,0-3.4-1.4-3.4-2.7v-0.7c0-2,0.7-2.7,3.4-3.4l4.7-0.7V130.8z"/>
	<path d="M247.1,137.6v-16.9c0.7-1.4,2-2.7,4.7-2.7c2.7,0,4.1,2,4.1,4.1v15.6h5.4v-16.2c0-4.1-2-8.1-7.4-8.1c-3.4,0-6.1,2-7.4,4.1
		l-0.7-3.4h-5.4l0.7,6.8v16.9H247.1z"/>
	<rect x="267.4" y="118.6" width="12.2" height="5.4"/>
	<path d="M308.7,125.4h-6.1c0,4.7-1.4,7.4-6.1,7.4s-6.8-4.1-6.8-12.9v-2c0-8.1,2-12.2,6.8-12.2h0.7c4.1,0,5.4,3.4,5.4,8.8h6.1v-1.4
		c0-8.8-4.1-12.2-12.2-12.2c-8.8,0-12.9,5.4-12.9,17.6v2c0,12.2,4.1,17.6,12.9,17.6c8.1,0,12.2-4.1,12.2-12.2V125.4z"/>
	<path d="M333.7,130.1h-5.4c0,1.4-1.4,3.4-4.7,3.4c-3.4,0-5.4-2-5.4-6.1h15.6v-2.7c0-6.8-3.4-12.2-10.8-12.2
		c-7.4,0-10.8,5.4-10.8,12.2v1.4c0,6.8,4.1,12.2,11.5,12.2C330.3,138.2,333.7,134.2,333.7,130.1z M323.5,117.2c2.7,0,4.7,2,4.7,6.1
		h-10.2C318.8,119.3,320.2,117.2,323.5,117.2z"/>
	<path d="M358.7,137.6v-16.2c0-4.1-2-8.1-7.4-8.1c-3.4,0-6.1,2-7.4,4.1l-0.7-3.4h-5.4l0.7,6.8v16.9h6.1v-16.9c0.7-1.4,2-2.7,4.7-2.7
		c2.7,0,4.1,2,4.1,4.1v15.6H358.7z"/>
	<path d="M375,138.2c2,0,2.7-0.7,3.4-0.7v-4.7c0,0-1.4,0-2,0c-2.7,0-4.1-0.7-4.1-4.1v-10.2h6.8v-4.7h-6.8v-6.8h-5.4v6.8h-3.4v5.4
		h3.4v10.8C366.9,136.2,370.2,138.2,375,138.2z"/>
	<path d="M393.9,138.2c6.8,0,10.2-4.1,10.2-8.1h-5.4c0,1.4-1.4,3.4-4.7,3.4c-3.4,0-5.4-2-5.4-6.1h15.6v-2.7
		c0-6.8-3.4-12.2-10.8-12.2c-7.4,0-10.8,5.4-10.8,12.2v1.4C382.4,132.8,386.5,138.2,393.9,138.2z M393.9,117.2c2.7,0,4.7,2,4.7,6.1
		h-10.2C388.5,119.3,390.6,117.2,393.9,117.2z"/>
	<path d="M421.7,117.9v-5.4c-3.4,0-5.4,1.4-6.8,3.4l-0.7-2.7h-5.4l0.7,6.8v16.9h6.1v-16.2c0.7-1.4,2-2.7,5.4-2.7H421.7z"/>
	<path d="M434.5,112.5c-7.4,0-10.8,5.4-10.8,12.2v1.4c0,6.8,4.1,12.2,11.5,12.2c6.8,0,10.2-4.1,10.2-8.1H440c0,1.4-1.4,3.4-4.7,3.4
		c-3.4,0-5.4-2-5.4-6.1h15.6v-2.7C445.4,117.9,442,112.5,434.5,112.5z M429.8,123.3c0.7-4.1,2-6.1,5.4-6.1c2.7,0,4.7,2,4.7,6.1
		H429.8z"/>
	<path d="M471.1,101.7H465v14.2c-1.4-2-3.4-3.4-6.1-2.7c-6.1,0-8.8,4.7-8.8,11.5v2c0,6.8,2,11.5,8.8,11.5c3.4,0,5.4-1.4,6.8-3.4
		l0.7,2.7h5.4l-0.7-6.8V101.7z M465,130.1c-0.7,1.4-2,2.7-4.7,2.7c-3.4,0-4.7-2.7-4.7-6.8v-1.4c0-4.1,1.4-6.8,4.7-6.8
		c2,0,4.1,1.4,4.7,2.7V130.1z"/>
	<path d="M498.2,101c-8.8,0-12.9,5.4-12.9,17.6v2c0,12.2,4.1,17.6,12.9,17.6c8.1,0,12.2-4.1,12.2-12.2v-0.7h-6.1
		c0,4.7-1.4,7.4-6.1,7.4c-4.7,0-6.8-4.1-6.8-12.9v-2c0-8.1,2-12.2,6.8-12.2h0.7c4.1,0,5.4,3.4,5.4,8.8h6.1v-1.4
		C510.4,104.4,506.3,101,498.2,101z"/>
	<path d="M525.2,113.2c-7.4,0-10.8,4.7-10.8,11.5v1.4c0,6.8,3.4,11.5,10.8,11.5c7.4,0,10.8-4.7,10.8-11.5v-1.4
		C536.1,117.9,532.7,113.2,525.2,113.2z M530,126c0,4.1-1.4,6.8-4.7,6.8c-3.4,0-4.7-2.7-4.7-6.8v-1.4c0-4.1,1.4-6.8,4.7-6.8
		c3.4,0,4.7,2.7,4.7,6.8V126z"/>
	<path d="M566.5,114.5c-3.4,0-6.1,2-7.4,4.1c-0.7-2.7-2.7-4.1-6.1-4.1c-3.4,0-6.1,1.4-7.4,3.4l-0.7-2.7h-5.4l0.7,6.8v16.9h6.1V122
		c0.7-1.4,1.4-2.7,4.1-2.7c2,0,3.4,0.7,3.4,3.4v15.6h6.1v-16.9c1.4-1.4,2-2.7,4.7-2.7c2,0,3.4,0.7,3.4,3.4v15.6v1.4h5.4V122
		C573.3,117.9,571.3,114.5,566.5,114.5z"/>
	<path d="M590.9,112.5c-3.4,0-5.4,1.4-6.8,3.4l-0.7-2.7H578l0.7,6.8v26.4h6.1v-11.5c1.4,2,3.4,2.7,6.1,2c6.1,0,8.8-4.7,8.8-11.5V124
		C599.7,117.2,597.7,112.5,590.9,112.5z M594.3,126c0,4.1-1.4,6.8-4.7,6.8c-2.7,0-4.1-1.4-4.7-2.7v-9.5c0.7-1.4,2-2.7,4.7-2.7
		c3.4,0,4.7,2.7,4.7,6.8V126z"/>
	<path d="M624.7,113.2h-6.1v16.9c-0.7,1.4-2,2.7-4.7,2.7c-2.7,0-4.1-2-4.1-4.1v-15.6h-5.4v16.2c0,4.1,2,8.1,7.4,8.1
		c3.4,0,6.1-2,7.4-4.1l0.7,3.4h5.4l-0.7-6.8V113.2z"/>
	<path d="M638.3,107.1h-6.1v6.8h-3.4v5.4h3.4v10.8c0,6.1,3.4,8.1,8.1,8.1c2,0,2.7-0.7,3.4-0.7v-4.7c0,0-1.4,0-2,0
		c-2.7,0-4.1-0.7-4.1-4.1v-10.2h6.8v-4.7h-6.1V107.1z"/>
	<rect x="649.1" y="103" width="6.1" height="6.1"/>
	<rect x="649.1" y="113.2" width="6.1" height="23.7"/>
	<path d="M674.8,113.2c-3.4,0-6.1,2-7.4,4.1l-0.7-3.4h-5.4l0.7,6.8v16.9h6.1v-16.9c0.7-1.4,2-2.7,4.7-2.7c2.7,0,4.1,2,4.1,4.1v15.6
		h5.4v-16.2C682.3,117.2,680.3,113.2,674.8,113.2z"/>
	<path d="M132.7,154.5h-9.5v35.2h3.4v-14.2h6.8c0,0,0.7,0,1.4,0l5.4,14.2h3.4l-6.1-14.9c3.4-1.4,6.1-4.1,6.1-9.5v-0.7
		C143.5,156.5,137.4,154.5,132.7,154.5z M140.1,164.6c0,6.1-4.7,7.4-7.4,7.4h-6.8v-15.6h6.8c3.4,0,7.4,1.4,7.4,7.4V164.6z"/>
	<path d="M159.1,165.3c-6.8,0-10.2,5.4-10.2,12.2v0.7c0,6.8,2.7,12.2,10.2,12.2c6.1,0,9.5-4.7,9.5-8.1h-2.7c0,2.7-2,5.4-6.8,5.4
		c-5.4,0-7.4-3.4-7.4-8.8h17.6v-1.4C169.2,170.7,165.8,165.3,159.1,165.3z M151.6,176.1c0-4.7,2-8.1,6.8-8.8c4.7,0,6.8,3.4,6.8,8.8
		H151.6z"/>
	<path d="M181.4,168c4.7,0,6.1,2,6.1,5.4h3.4c0-4.7-2-8.1-8.8-8.1c-5.4,0-8.8,2.7-8.8,6.8c0,3.4,1.4,5.4,8.1,6.1
		c4.7,0.7,6.8,1.4,6.8,4.7c0,2.7-2,4.7-6.8,4.7s-6.1-2.7-6.1-5.4h-3.4c0,3.4,2.7,7.4,9.5,7.4c6.1,0,9.5-2.7,9.5-6.8
		c0-4.7-2.7-6.1-8.8-6.8c-4.7,0-6.1-1.4-6.1-4.1C176,169.4,178,168,181.4,168z"/>
	<path d="M207.1,165.3c-6.8,0-10.2,5.4-10.2,12.2v0.7c0,6.8,2.7,12.2,10.2,12.2c6.1,0,9.5-4.7,9.5-8.1h-2.7c0,2.7-2,5.4-6.8,5.4
		c-5.4,0-7.4-3.4-7.4-8.8h17.6v-1.4C217.3,170.7,213.9,165.3,207.1,165.3z M199.7,176.1c0-4.7,2-8.1,6.8-8.8c4.7,0,6.8,3.4,6.8,8.8
		H199.7z"/>
	<path d="M232.2,163.9c-7.4,0-8.8,4.7-8.8,8.1v0.7h4.7c0-2.7,0.7-5.4,5.4-5.4c4.1,0,5.4,2,5.4,6.1v0.7l-7.4,1.4
		c-4.1,0.7-8.1,2-8.1,7.4v0.7c0,4.1,2.7,6.8,6.8,6.8s6.8-2,8.1-4.1v2h2.7v-6.8v-8.8C241,167.3,238.9,163.9,232.2,163.9z
		 M237.6,183.6c-0.7,1.4-2.7,3.4-6.8,4.1c-3.4,0-4.7-2-4.7-4.1v-0.7c0-2.7,1.4-4.1,4.7-4.7l6.8-1.4V183.6z"/>
	<path d="M250.4,168.7l-0.7-3.4h-2.7v6.8V189h3.4v-17.6c0.7-1.4,2.7-3.4,6.1-3.4h0.7v-2.7C253.8,165.3,251.8,166.7,250.4,168.7z"/>
	<path d="M270.1,163.9c-7.4,0-10.2,5.4-10.2,12.2v1.4c0,6.8,3.4,12.2,10.2,12.2c6.8,0,9.5-4.1,9.5-8.1v-0.7h-2.7
		c0,3.4-1.4,6.1-6.1,6.1s-6.8-3.4-6.8-10.2v-1.4c0-5.4,2-8.8,6.8-8.8c4.1,0,6.1,2.7,6.1,6.1h2.7v-0.7
		C279.5,168.7,276.8,163.9,270.1,163.9z"/>
	<path d="M295.8,165.3c-3.4,0-6.1,1.4-7.4,3.4h-0.7v-15.6h-3.4V189h3.4v-17.6c1.4-1.4,2.7-3.4,6.8-3.4c3.4,0,5.4,2,5.4,5.4v16.2h3.4
		v-16.9C303.2,168.7,300.5,165.3,295.8,165.3z"/>
	<rect x="308" y="172.1" width="11.5" height="2.7"/>
	<path d="M339.8,175.5h6.1v9.5c-1.4,1.4-4.1,2.7-7.4,2.7c-6.8,0-9.5-4.1-9.5-14.2v-2c0-10.2,2.7-14.2,8.8-14.2
		c5.4,0,7.4,2.7,7.4,10.2h3.4V166c0-8.1-4.1-12.2-11.5-12.2c-8.1,0-12.2,4.7-12.2,16.9v2c0,12.2,4.1,17.6,13.5,16.9
		c5.4,0,8.8-2,10.8-4.1v-13.5h-9.5V175.5z"/>
	<path d="M358.1,168.7l-0.7-3.4h-2.7v6.8V189h3.4v-17.6c0.7-1.4,2.7-3.4,6.1-3.4h0.7v-2.7C361.4,165.3,359.4,166.7,358.1,168.7z"/>
	<path d="M378.4,164.6c-7.4,0-10.2,5.4-10.2,12.2v1.4c0,6.8,3.4,12.2,10.2,12.2c7.4,0,10.2-5.4,10.2-12.2v-1.4
		C388.5,170,385.1,164.6,378.4,164.6z M385.1,178.2c0,5.4-2,8.8-6.8,8.8c-4.7,0-6.8-3.4-6.8-8.8v-1.4c0-5.4,2-8.8,6.8-8.8
		c4.7,0,6.8,3.4,6.8,8.8V178.2z"/>
	<path d="M409.5,183.6c-1.4,1.4-2.7,3.4-6.8,3.4c-3.4,0-5.4-2-5.4-5.4v-16.2h-3.4v16.9c0,4.1,2.7,7.4,7.4,7.4c4.1,0,6.8-2,8.1-4.1
		l0.7,3.4h2.7v-6.8v-16.9h-3.4V183.6z"/>
	<path d="M429.1,164.6c-4.1,0-6.1,2-7.4,4.1l-0.7-3.4h-2.7v6.8v26.4h3.4V187c1.4,1.4,3.4,3.4,7.4,3.4c6.8,0,9.5-5.4,9.5-12.2v-1.4
		C438.6,170,435.9,164.6,429.1,164.6z M434.5,178.2c0,5.4-2,8.8-6.8,8.8c-3.4,0-5.4-2-6.1-3.4v-12.2c0.7-1.4,2.7-3.4,6.1-3.4
		c4.7,0,6.8,3.4,6.8,8.8V178.2z"/>
	<path d="M123.2,13C109.7-0.5,88-0.5,75.1,13c-21,21,5.4,60.2-25,60.2H0v62.9h62.9V86.1c0-30.5,39.3-4.1,60.2-25.7
		C136.7,47.5,136.7,25.9,123.2,13z"/>
</g>
</svg>
