<?xml version="1.0" encoding="utf-8"?>
<!-- Generator: Adobe Illustrator 21.1.0, SVG Export Plug-In . SVG Version: 6.00 Build 0)  -->
<svg version="1.1" id="Ebene_1" xmlns="http://www.w3.org/2000/svg" xmlns:xlink="http://www.w3.org/1999/xlink" x="0px" y="0px"
	 viewBox="0 0 708.7 187.6" style="enable-background:new 0 0 708.7 187.6;" xml:space="preserve">
<style type="text/css">
	.st0{clip-path:url(#SVGID_2_);fill:#004890;}
	.st1{clip-path:url(#SVGID_2_);fill:#00478E;}
	.st2{clip-path:url(#SVGID_2_);fill:#C9DA43;}
	.st3{clip-path:url(#SVGID_2_);fill:#FFFFFF;}
	.st4{clip-path:url(#SVGID_2_);fill:#00488E;}
</style>
<g>
	<defs>
		<rect id="SVGID_1_" width="708.7" height="187.6"/>
	</defs>
	<clipPath id="SVGID_2_">
		<use xlink:href="#SVGID_1_"  style="overflow:visible;"/>
	</clipPath>
	<path class="st0" d="M29.6,80.3h-12v12.6h10.7c0.5,0,0.7,0.2,0.7,0.7v2.1c0,0.5-0.2,0.8-0.7,0.8H17.6V113c0,0.5-0.2,0.7-0.7,0.7h-3
		c-0.5,0-0.7-0.2-0.7-0.7V77.2c0-0.5,0.2-0.8,0.7-0.8h16.7c0.5,0,0.7,0.2,0.7,0.4c0,0.2,0,0.3,0,0.3c0,0.1,0,0.1-0.1,0.2l-0.8,2.4
		C30.3,80.1,30,80.3,29.6,80.3"/>
	<path class="st0" d="M39.1,89c0.2,0.4,0.4,1.2,0.7,2.4l0.6-0.7c1.3-1.5,2.4-2.5,3.3-3.1c0.8-0.5,1.7-0.7,2.8-0.7
		c0.8,0,1.6,0.2,2.3,0.5c0.3,0.1,0.4,0.2,0.4,0.4c0,0.1,0,0.2-0.1,0.4l-1.3,2.9c-0.1,0.2-0.2,0.2-0.3,0.2c0,0-0.1,0-0.2-0.1
		c-0.6-0.2-1.2-0.3-1.7-0.3c-1.3,0-3.1,1.4-5.3,4.1v18c0,0.4-0.2,0.6-0.6,0.6h-2.8c-0.4,0-0.6-0.2-0.6-0.6V96.8c0-1.9,0-3.1-0.1-3.7
		c-0.2-1.2-0.6-2.4-1.2-3.6c-0.2-0.3-0.2-0.5-0.2-0.6c0-0.2,0.1-0.3,0.3-0.5l2.2-1.4c0.2-0.1,0.3-0.1,0.5-0.1
		C38.1,86.9,38.6,87.6,39.1,89"/>
	<path class="st0" d="M71.9,101.6H56.4c0.3,6.1,2.7,9.2,7.2,9.2c2,0,4-0.7,6.3-2c0.2-0.1,0.3-0.2,0.5-0.2c0.2,0,0.3,0.1,0.4,0.3
		l1,2.1c0.1,0.3,0.1,0.4,0.1,0.4c0,0.8-1.3,1.5-3.8,2.2c-2.1,0.5-3.7,0.8-4.9,0.8c-3.4,0-6.2-1.2-8.2-3.7c-2-2.5-3.1-5.8-3.1-10
		c0-4.2,1-7.5,2.9-10c1.9-2.5,4.5-3.7,7.8-3.7c3.1,0,5.5,1.1,7.3,3.2s2.6,5.1,2.6,8.9v1.6C72.5,101.2,72.3,101.6,71.9,101.6
		 M62.3,90.2c-3.7,0-5.7,2.7-5.9,8.1h11.7C68,92.9,66.1,90.2,62.3,90.2"/>
	<path class="st0" d="M79.7,90.9h-4.5c-0.3,0-0.4-0.2-0.4-0.6v-2.1c0-0.4,0.1-0.6,0.4-0.6h8.2c0.3,0,0.4,0.2,0.4,0.6v24.9
		c0,0.4-0.2,0.6-0.6,0.6h-2.9c-0.4,0-0.6-0.1-0.6-0.4V90.9z M81.4,74.7c0.9,0,1.7,0.3,2.4,1c0.6,0.6,0.9,1.4,0.9,2.3
		c0,0.9-0.3,1.7-0.9,2.4c-0.6,0.6-1.4,0.9-2.4,0.9c-0.9,0-1.7-0.3-2.3-0.9c-0.6-0.6-1-1.4-1-2.4c0-0.9,0.3-1.7,1-2.3
		C79.7,75,80.5,74.7,81.4,74.7"/>
	<path class="st0" d="M111.1,101.6H95.5c0.3,6.1,2.7,9.2,7.2,9.2c2,0,4.1-0.7,6.3-2c0.2-0.1,0.4-0.2,0.5-0.2c0.2,0,0.3,0.1,0.4,0.3
		l1,2.1c0.1,0.3,0.1,0.4,0.1,0.4c0,0.8-1.3,1.5-3.8,2.2c-2.1,0.5-3.7,0.8-4.9,0.8c-3.4,0-6.1-1.2-8.2-3.7c-2.1-2.5-3.1-5.8-3.1-10
		c0-4.2,1-7.5,2.9-10c1.9-2.5,4.5-3.7,7.8-3.7c3.1,0,5.6,1.1,7.3,3.2c1.8,2.1,2.6,5.1,2.6,8.9v1.6
		C111.7,101.2,111.5,101.6,111.1,101.6 M101.5,90.2c-3.7,0-5.7,2.7-5.9,8.1h11.7C107.2,92.9,105.3,90.2,101.5,90.2"/>
	<path class="st0" d="M132,77.2c0-0.5,0.2-0.8,0.7-0.8h3c0.5,0,0.7,0.3,0.7,0.8v26.4c0,2.6,0.5,4.5,1.5,5.6c1.1,1.1,2.8,1.7,5.3,1.7
		c4.9,0,7.4-2.4,7.4-7.2V77.2c0-0.5,0.2-0.8,0.7-0.8h2.8c0.5,0,0.7,0.3,0.7,0.8v26.5c0,3.7-1.2,6.5-3.5,8.4c-2,1.6-4.8,2.3-8.2,2.3
		c-7.5,0-11.2-3.6-11.2-10.7V77.2"/>
	<path class="st0" d="M164.9,86.9c0.7,0,1.2,1.2,1.7,3.7c3-2.4,5.9-3.7,8.7-3.7c2.4,0,4,0.6,5,1.8c1,1.2,1.5,3.3,1.5,6.3v18.1
		c0,0.4-0.2,0.6-0.6,0.6h-2.8c-0.4,0-0.6-0.2-0.6-0.6V94.9c0-3-1.2-4.5-3.6-4.5c-2.3,0-4.6,1.1-7.1,3.4v19.3c0,0.4-0.2,0.6-0.6,0.6
		h-2.9c-0.4,0-0.6-0.2-0.6-0.6V94.3c0-2.1-0.3-3.8-1-5.2c-0.1-0.1-0.1-0.2-0.1-0.3c0-0.2,0.1-0.3,0.3-0.4l2.5-1.4
		C164.6,87,164.8,86.9,164.9,86.9"/>
	<path class="st0" d="M191.6,90.9h-4.5c-0.3,0-0.4-0.2-0.4-0.6v-2.1c0-0.4,0.1-0.6,0.4-0.6h8.2c0.3,0,0.5,0.2,0.5,0.6v24.9
		c0,0.4-0.2,0.6-0.6,0.6h-2.9c-0.4,0-0.6-0.1-0.6-0.4V90.9z M193.3,74.7c0.9,0,1.7,0.3,2.3,1c0.6,0.6,1,1.4,1,2.3
		c0,0.9-0.3,1.7-1,2.4c-0.6,0.6-1.4,0.9-2.3,0.9c-0.9,0-1.7-0.3-2.3-0.9c-0.6-0.6-1-1.4-1-2.4c0-0.9,0.3-1.7,1-2.3
		C191.6,75,192.4,74.7,193.3,74.7"/>
	<path class="st0" d="M211.3,107.8c0,0.2,0.1,0.5,0.2,1c0.2-0.7,0.5-1.8,1-3.4l6.5-17.9c0.1-0.3,0.2-0.5,0.4-0.5
		c0.1,0,0.2,0,0.3,0.1l2.8,0.8c0.3,0.1,0.5,0.2,0.5,0.4c-0.1,0.2-0.1,0.3-0.1,0.2l-0.1,0.1l-10,25.2c-0.1,0.2-0.3,0.3-0.6,0.3h-2.3
		c-0.2,0-0.3-0.2-0.4-0.5l-9.3-25.3c-0.1,0-0.1-0.1,0-0.1c0,0-0.1,0-0.1-0.1c0-0.2,0.2-0.4,0.6-0.5l3.1-0.6c0.1-0.1,0.2-0.1,0.3-0.1
		c0.2,0,0.3,0.2,0.5,0.5l5.9,17.9c0.1,0.3,0.2,0.7,0.3,1.2C211,106.5,211.1,107,211.3,107.8"/>
	<path class="st0" d="M246.1,101.6h-15.6c0.3,6.1,2.7,9.2,7.2,9.2c2,0,4-0.7,6.2-2c0.2-0.1,0.4-0.2,0.5-0.2c0.2,0,0.3,0.1,0.4,0.3
		l1,2.1c0.1,0.3,0.1,0.4,0.1,0.4c0,0.8-1.3,1.5-3.8,2.2c-2.1,0.5-3.7,0.8-4.8,0.8c-3.4,0-6.2-1.2-8.2-3.7c-2.1-2.5-3.1-5.8-3.1-10
		c0-4.2,1-7.5,2.9-10c1.9-2.5,4.5-3.7,7.8-3.7c3.1,0,5.6,1.1,7.3,3.2c1.8,2.1,2.6,5.1,2.6,8.9v1.6
		C246.7,101.2,246.5,101.6,246.1,101.6 M236.5,90.2c-3.7,0-5.7,2.7-5.9,8.1h11.7C242.2,92.9,240.3,90.2,236.5,90.2"/>
	<path class="st0" d="M256.5,89c0.2,0.4,0.4,1.2,0.7,2.4l0.6-0.7c1.3-1.5,2.4-2.5,3.3-3.1c0.8-0.5,1.7-0.7,2.8-0.7
		c0.8,0,1.6,0.2,2.4,0.5c0.2,0.1,0.4,0.2,0.4,0.4c0,0.1-0.1,0.2-0.1,0.4l-1.3,2.9c-0.1,0.2-0.2,0.2-0.3,0.2c0,0-0.1,0-0.2-0.1
		c-0.6-0.2-1.2-0.3-1.7-0.3c-1.3,0-3.1,1.4-5.3,4.1v18c0,0.4-0.2,0.6-0.6,0.6h-2.8c-0.4,0-0.6-0.2-0.6-0.6V96.8c0-1.9,0-3.1-0.1-3.7
		c-0.2-1.2-0.6-2.4-1.2-3.6c-0.2-0.3-0.2-0.5-0.2-0.6c0-0.2,0.1-0.3,0.4-0.5l2.2-1.4c0.1-0.1,0.3-0.1,0.4-0.1
		C255.5,86.9,256,87.6,256.5,89"/>
	<path class="st0" d="M268.5,111.7c0,0,0.4-0.8,1.1-2.4c0.1-0.2,0.2-0.3,0.4-0.3c0.1,0,0.2,0.1,0.4,0.1c2.4,1.2,4.7,1.8,6.6,1.8
		c1.3,0,2.4-0.4,3.1-1.1c0.8-0.7,1.1-1.7,1.1-2.9c0-1.6-1.1-3-3.4-4.1c-3-1.4-5-2.5-6-3.4c-1.7-1.4-2.5-3.1-2.5-5.1
		c0-2.2,0.8-4,2.3-5.4c1.5-1.4,3.5-2.1,6-2.1c2.2,0,4.3,0.5,6.3,1.6c0.4,0.2,0.6,0.5,0.6,0.7c0,0.2,0,0.3-0.1,0.4l-1,2
		c-0.1,0.2-0.3,0.4-0.5,0.4c-0.1-0.1-0.2-0.1-0.4-0.2c-2.1-0.9-3.8-1.4-5.1-1.4c-2.7,0-4.1,1.2-4.1,3.6c0,1.7,1,3,3,4l3.8,1.8
		c2,1,3.4,2,4.2,3c0.8,1,1.2,2.3,1.2,3.9c0,2.3-0.8,4.2-2.4,5.6c-1.6,1.4-3.7,2.1-6.3,2.1c-3,0-5.6-0.7-8-2.1
		c-0.2-0.1-0.3-0.3-0.3-0.5V111.7"/>
	<path class="st0" d="M293.1,90.9h-4.5c-0.2,0-0.4-0.2-0.4-0.6v-2.1c0-0.4,0.2-0.6,0.4-0.6h8.2c0.3,0,0.4,0.2,0.4,0.6v24.9
		c0,0.4-0.2,0.6-0.6,0.6h-2.9c-0.4,0-0.6-0.1-0.6-0.4V90.9z M294.7,74.7c0.9,0,1.7,0.3,2.4,1c0.6,0.6,0.9,1.4,0.9,2.3
		c0,0.9-0.3,1.7-0.9,2.4c-0.6,0.6-1.4,0.9-2.4,0.9c-0.9,0-1.7-0.3-2.3-0.9c-0.7-0.6-1-1.4-1-2.4c0-0.9,0.3-1.7,1-2.3
		C293.1,75,293.8,74.7,294.7,74.7"/>
	<path class="st0" d="M302.8,87.6h3.8v-7.5c0-0.3,0.2-0.5,0.6-0.7l3-0.8c0,0,0.1,0,0.1-0.1h0.1c0.3,0,0.4,0.2,0.4,0.6v8.4h8.2
		c0.3,0,0.5,0.1,0.5,0.4c0,0.1,0,0.2-0.1,0.3l-0.6,2.1c-0.1,0.4-0.4,0.5-0.7,0.5h-7.3v15.3c0,1.8,0.2,2.9,0.7,3.5
		c0.5,0.6,1.3,0.9,2.6,0.9c1.2,0,2.8-0.5,4.9-1.4c0.1-0.1,0.3-0.1,0.4-0.1c0.2,0,0.3,0.1,0.4,0.3l0.7,2.4v0.1c0,0.2-0.1,0.4-0.5,0.5
		c-2.2,1.1-4.4,1.6-6.6,1.6c-2.4,0-4.1-0.6-5.1-1.8c-1-1.2-1.5-3.3-1.5-6.1V90.9h-3.8c-0.5,0-0.7-0.2-0.7-0.6v-2.1
		C302.1,87.8,302.3,87.6,302.8,87.6"/>
	<path class="st0" d="M323.3,106.9c0-6.2,4.8-9.4,14.4-9.5v-1.8c0-1.8-0.4-3-1.1-3.7c-0.8-0.8-2.1-1.1-3.9-1.1c-1.8,0-4,0.5-6.4,1.6
		c-0.2,0.1-0.4,0.1-0.4,0.1c-0.2,0-0.3-0.1-0.4-0.3l-0.8-2.2c-0.1-0.2-0.1-0.3-0.1-0.4c0-0.4,0.6-0.8,1.9-1.3
		c2.2-0.9,4.5-1.3,6.7-1.3c5.7,0,8.5,2.6,8.5,7.7v10.3c0,3.1,0.5,5.5,1.5,7.2c0.1,0.1,0.1,0.2,0.1,0.3c0,0.2-0.1,0.3-0.2,0.3
		l-2.4,1.5c-0.2,0.1-0.3,0.2-0.5,0.2c-0.6,0-1.3-1.1-2-3.4c-2.4,2.3-5,3.4-7.8,3.4c-2.2,0-3.9-0.7-5.2-2
		C324,110.9,323.3,109.1,323.3,106.9 M328.1,82.3c-0.8,0-1.5-0.3-2.1-0.9c-0.6-0.6-0.8-1.3-0.8-2.1c0-0.8,0.3-1.5,0.8-2.1
		s1.3-0.9,2.1-0.9c0.8,0,1.5,0.3,2,0.9c0.6,0.6,0.9,1.3,0.9,2.1c0,0.8-0.3,1.5-0.9,2.1C329.6,82,328.9,82.3,328.1,82.3 M337.7,107.7
		v-7c-6.8,0-10.2,2-10.2,5.8c0,1.3,0.4,2.3,1.1,3.1s1.7,1.2,2.8,1.2C333.2,110.9,335.3,109.8,337.7,107.7 M338.8,82.3
		c-0.8,0-1.5-0.3-2.1-0.9c-0.5-0.6-0.8-1.3-0.8-2.1c0-0.8,0.3-1.5,0.8-2.1s1.2-0.9,2.1-0.9c0.8,0,1.5,0.3,2.1,0.9
		c0.5,0.6,0.8,1.3,0.8,2.1c0,0.8-0.3,1.5-0.8,2.1C340.3,82.1,339.6,82.3,338.8,82.3"/>
	<path class="st0" d="M347.4,87.6h3.8v-7.5c0-0.3,0.2-0.5,0.5-0.7l3-0.8c0,0,0.1,0,0.1-0.1h0.1c0.3,0,0.4,0.2,0.4,0.6v8.4h8.2
		c0.3,0,0.5,0.1,0.5,0.4c0,0.1,0,0.2-0.1,0.3l-0.6,2.1c-0.1,0.4-0.4,0.5-0.7,0.5h-7.3v15.3c0,1.8,0.2,2.9,0.7,3.5
		c0.5,0.6,1.3,0.9,2.6,0.9c1.2,0,2.8-0.5,4.9-1.4c0.1-0.1,0.3-0.1,0.4-0.1c0.2,0,0.3,0.1,0.3,0.3l0.8,2.4v0.1c0,0.2-0.2,0.4-0.5,0.5
		c-2.2,1.1-4.4,1.6-6.6,1.6c-2.4,0-4.1-0.6-5.1-1.8c-1-1.2-1.5-3.3-1.5-6.1V90.9h-3.8c-0.5,0-0.7-0.2-0.7-0.6v-2.1
		C346.8,87.8,347,87.6,347.4,87.6"/>
	<path class="st0" d="M597.3,85.4c0,4.2-1.8,7.2-5.3,8.9c1.7,0.5,3,1.1,3.8,1.9c1.9,1.8,2.9,4.2,2.9,7.3c0,2.6-0.7,4.8-2.1,6.6
		c-1.4,1.8-3.3,2.9-5.6,3.3c-1.2,0.2-3.1,0.3-5.6,0.3h-7.9c-0.5,0-0.7-0.2-0.7-0.7V77.3c0-0.5,0.2-0.8,0.7-0.8h8.9
		c4,0,6.7,0.8,8.3,2.2C596.4,80.3,597.3,82.5,597.3,85.4 M586.3,80.1h-5V93h4c4.8,0,7.2-2.4,7.2-7.1c0-2.1-0.5-3.6-1.4-4.5
		S588.5,80.1,586.3,80.1 M586.4,96.6h-5.1v13.5h5.4c4.9,0,7.3-2.3,7.3-6.8C593.9,98.8,591.4,96.6,586.4,96.6"/>
	<path class="st0" d="M624.5,101.6H609c0.3,6.1,2.7,9.2,7.2,9.2c2,0,4.1-0.7,6.3-2c0.2-0.1,0.4-0.1,0.5-0.1c0.2,0,0.3,0.1,0.4,0.3
		l1,2.1c0.1,0.3,0.1,0.5,0.1,0.4c0,0.8-1.3,1.5-3.8,2.2c-2.1,0.5-3.7,0.8-4.9,0.8c-3.4,0-6.1-1.2-8.2-3.7c-2.1-2.5-3.1-5.8-3.1-10
		c0-4.2,1-7.5,2.9-10c1.9-2.5,4.6-3.7,7.8-3.7c3.1,0,5.6,1.1,7.3,3.2s2.6,5.1,2.6,8.9v1.6C625.2,101.3,625,101.6,624.5,101.6
		 M615,90.2c-3.7,0-5.7,2.7-5.9,8.1h11.7C620.6,92.9,618.7,90.2,615,90.2"/>
	<path class="st0" d="M634.9,89c0.2,0.4,0.4,1.2,0.7,2.4l0.6-0.7c1.3-1.5,2.4-2.5,3.3-3c0.8-0.5,1.8-0.7,2.9-0.7
		c0.8,0,1.6,0.2,2.3,0.5c0.3,0.1,0.4,0.2,0.4,0.4c0,0.1,0,0.2-0.1,0.4l-1.3,2.9c0,0.2-0.1,0.2-0.3,0.2c0,0-0.1,0-0.2-0.1
		c-0.6-0.2-1.2-0.3-1.7-0.3c-1.3,0-3.1,1.4-5.3,4.1v18c0,0.4-0.2,0.6-0.6,0.6h-2.8c-0.4,0-0.6-0.2-0.6-0.6V96.8c0-1.9,0-3.1-0.1-3.7
		c-0.2-1.2-0.6-2.4-1.2-3.6c-0.2-0.3-0.2-0.5-0.2-0.6c0-0.2,0.1-0.3,0.3-0.5l2.2-1.4c0.2-0.1,0.3-0.1,0.5-0.1
		C633.9,87,634.4,87.7,634.9,89"/>
	<path class="st1" d="M649.3,106.4V75.7c0-0.3,0.2-0.6,0.6-0.7l2.8-0.7c0,0,0.1,0,0.1-0.1h0.2c0.2,0,0.4,0.2,0.4,0.6v32.5
		c0,2.4,0.8,3.5,2.3,3.5c0.7,0,1.5-0.2,2.4-0.7c0.2-0.1,0.3-0.1,0.4-0.1c0.2,0,0.3,0.1,0.4,0.3l0.7,2c0.1,0.2,0.1,0.3,0.1,0.4
		c0,0.2-0.1,0.3-0.4,0.5c-1.4,0.6-2.8,0.9-4.3,0.9c-2.2,0-3.7-0.5-4.5-1.7C649.8,111.5,649.3,109.4,649.3,106.4"/>
	<path class="st1" d="M664.5,91h-4.5c-0.3,0-0.4-0.2-0.4-0.6v-2.1c0-0.4,0.1-0.6,0.4-0.6h8.2c0.3,0,0.4,0.2,0.4,0.6v24.9
		c0,0.4-0.2,0.6-0.6,0.6h-2.9c-0.4,0-0.6-0.1-0.6-0.4V91z M666.1,74.7c0.9,0,1.7,0.3,2.4,1c0.6,0.6,0.9,1.4,0.9,2.3
		c0,0.9-0.3,1.7-0.9,2.4c-0.6,0.6-1.4,1-2.4,1c-0.9,0-1.7-0.3-2.3-1c-0.6-0.6-1-1.4-1-2.4c0-0.9,0.3-1.7,1-2.3
		C664.5,75.1,665.2,74.7,666.1,74.7"/>
	<path class="st1" d="M680,87c0.7,0,1.2,1.2,1.7,3.6c3-2.4,5.9-3.6,8.7-3.6c2.4,0,4,0.6,5,1.8c1,1.2,1.5,3.3,1.5,6.3v18.1
		c0,0.4-0.2,0.6-0.6,0.6h-2.8c-0.4,0-0.6-0.2-0.6-0.6V95c0-3-1.2-4.5-3.6-4.5c-2.3,0-4.6,1.1-7.1,3.4v19.3c0,0.4-0.2,0.6-0.6,0.6
		h-2.9c-0.4,0-0.6-0.2-0.6-0.6V94.3c0-2.1-0.3-3.8-1-5.2c0-0.1-0.1-0.2-0.1-0.3c0-0.2,0.1-0.3,0.3-0.4l2.5-1.4
		C679.7,87,679.8,87,680,87"/>
	<rect y="124.9" class="st2" width="708.7" height="10.4"/>
	<path class="st3" d="M563.4,93.8c0,51.8-42,93.8-93.8,93.8s-93.8-42-93.8-93.8c0-51.8,42-93.8,93.8-93.8S563.4,42,563.4,93.8"/>
	<path class="st4" d="M535.9,27.5C517.6,9.2,495.5,0,469.6,0c-25.9,0-48,9.2-66.3,27.5s-27.5,40.4-27.5,66.3s9.2,48,27.5,66.3
		c17.6,17.6,38.7,26.7,63.2,27.5c0.5,0,0.9,0,1.4,0h1.7c25.9,0,48-9.2,66.3-27.5c18.3-18.3,27.5-40.4,27.5-66.3
		S554.2,45.8,535.9,27.5 M534.7,158.9c-18,18-39.7,27-65.1,27c-0.5,0-1.1,0-1.6,0c-0.5,0-0.9,0-1.4,0c-24.1-0.7-44.8-9.7-62.1-27
		c-18-18-27-39.7-27-65.1s9-47.1,27-65.1c18-18,39.7-27,65.1-27c25.4,0,47.1,9,65.1,27c18,18,27,39.7,27,65.1
		S552.7,140.9,534.7,158.9 M533.9,29.5c-17.8-17.7-39.2-26.6-64.3-26.6c-25.1,0-46.5,8.9-64.3,26.6c-17.7,17.8-26.6,39.2-26.6,64.3
		c0,25.1,8.9,46.5,26.6,64.3c17,17.1,37.5,25.9,61.3,26.6c0.5,0,0.9,0,1.4,0h1.6c25.1,0,46.5-8.9,64.3-26.6
		c17.7-17.7,26.6-39.2,26.6-64.3C560.5,68.7,551.6,47.3,533.9,29.5 M533.4,157.5c-17.6,17.6-38.9,26.4-63.8,26.4H468
		c-0.5,0-0.9,0-1.4,0c-23.6-0.7-43.9-9.5-60.8-26.4c-17.6-17.6-26.4-38.9-26.4-63.8s8.8-46.2,26.4-63.8
		c17.6-17.6,38.9-26.4,63.8-26.4c24.9,0,46.2,8.8,63.8,26.4s26.4,38.9,26.4,63.8C559.8,118.7,551,140,533.4,157.5 M522.5,40.9
		C507.9,26.3,490.3,19,469.6,19c-20.6,0-38.3,7.3-52.9,21.9c-14.6,14.6-21.9,32.2-21.9,52.9c0,20.6,7.3,38.3,21.9,52.9
		c14,14,30.8,21.3,50.4,21.9c0.4,0,0.8,0,1.1,0h1.3c20.7,0,38.3-7.3,52.9-21.9c14.6-14.6,21.9-32.2,21.9-52.9
		C544.4,73.2,537.1,55.5,522.5,40.9 M522.1,146.2c-14.5,14.5-32,21.8-52.5,21.8h-1.3c-0.4,0-0.8,0-1.1,0c-19.4-0.6-36.1-7.8-50-21.7
		c-14.5-14.5-21.7-32-21.7-52.5c0-20.5,7.3-38,21.7-52.5c14.5-14.5,32-21.7,52.5-21.7s38,7.3,52.5,21.7c14.5,14.5,21.7,32,21.7,52.5
		C543.8,114.3,536.6,131.8,522.1,146.2 M472.2,33.9l2.1-2.8l-3.5,0.5l-1.3-3.4l-1.3,3.5l-3.4-0.6l2.3,2.9l-2.2,2.8l3.6-0.6l1.2,3.4
		l1.3-3.4l3.4,0.6L472.2,33.9z M470.7,35.8l-1.1,2.7l-0.9-2.6l-2.8,0.4l1.8-2.2l-1.8-2.2l2.7,0.4l1.1-2.7l1,2.7l2.7-0.4l-1.7,2.2
		l1.7,2.2L470.7,35.8z M416.4,116.7l1-3.4l-3.1,1.8l-2.4-2.8l0,3.8l-3.4,0.7l3.1,1.9l-1.1,3.4l3.1-1.8l2.4,2.7v-3.7l3.4-0.7
		L416.4,116.7z M415.6,119v2.9l-1.8-2.1l-2.4,1.4l0.8-2.7l-2.4-1.5l2.7-0.6v-2.9l1.9,2.1l2.4-1.4l-0.8,2.7l2.4,1.5L415.6,119z
		 M531.1,116.8l-3.4-0.8l-0.1-3.7l-2.4,2.7l-3.1-1.8l1,3.5l-3.1,1.7l3.5,0.9l-0.1,3.6l2.5-2.7l2.9,1.9l-1-3.5L531.1,116.8z
		 M528.3,121.3l-2.3-1.5l-2,2.1l0.1-2.8l-2.7-0.7l2.4-1.4l-0.9-2.7l2.4,1.4l1.8-2.1l0.2,2.9l2.6,0.5l-2.4,1.5L528.3,121.3z
		 M492.2,17.4c0.2-0.2,0.4-0.3,0.6-0.2 M499.7,22.1c-0.2-0.2-0.4-0.2-0.4-0.3c-0.2-0.2-0.3-0.4-0.4-0.8c-0.2-1.5-0.4-3.7-0.6-6.4
		c-0.2-2.8-0.4-4.2-0.6-4.3c-0.1-0.2-0.4-0.3-0.7-0.3c-0.3-0.1-0.5,0-0.5,0.2c-0.1,0.2-1.2,1.6-3.3,4.2c-1.1,1.3-2.1,2.6-3.1,3.8
		c-0.5,0.2-1,0.4-1.6,0.5c-0.2,0.2-0.2,0.4,0.1,0.7c0.5,0.3,1.1,0.5,1.6,0.6c0.1,0,0.2,0.1,0.3,0.1c0.5,0.1,1,0.2,1.5,0.2
		c0.2-0.1,0.3-0.2,0.3-0.3c0-0.2-0.1-0.4-0.4-0.6c0,0,0,0,0,0c-0.2-0.1-0.3-0.2-0.3-0.4c-0.1-0.1-0.1-0.3-0.1-0.4c0,0,0-0.1,0-0.1
		c0.1-0.4,0.3-0.8,0.8-1.2l0.6-0.2c1,0.2,2.3,0.6,3.8,1.2c0.2,0.7,0.2,1.4,0.1,2.1c-0.1,0.2-0.2,0.3-0.4,0.3c-0.4,0-0.6,0-0.7,0
		c-0.4,0.1-0.4,0.4-0.1,0.8c1.3,0.6,2.6,1,3.9,1.2c0.2,0,0.4-0.1,0.5-0.3C499.9,22.4,499.9,22.2,499.7,22.1 M493.2,16.1l2.7-3.3
		c0.1-0.1,0.2-0.1,0.3,0.1l0.3,4.3L493.2,16.1z M483.3,6.6c0.2,0,0.4,0.1,0.5,0.1c0.1,0.1,0.2,0.2,0.2,0.4c0.2,1,0.1,1.8-0.1,2.5
		c-0.2,0.2-0.4,0.2-0.6,0.2c-0.2-0.2-0.3-0.6-0.5-1.1c-0.1-0.4-0.2-0.6-0.4-0.7c-0.5-0.3-1-0.5-1.6-0.5c-0.3,0-0.4,0.2-0.5,0.6
		c-0.2,1.1-0.3,2.2-0.5,3.3c0,0.4-0.1,0.8-0.2,1.2c-0.2,1.3-0.3,2.6-0.4,3.9l0.8,0.5c0.1,0.1,0.1,0.2,0.1,0.3c0,0.1,0,0.2-0.2,0.2
		c-0.5,0.2-1.1,0.2-1.8,0.2c-0.7-0.1-1.4-0.2-2-0.4c-0.3-0.3-0.3-0.5-0.1-0.7l0.8-0.3c0.2-0.1,0.2-0.2,0.3-0.5l1.1-8.1
		c-0.1-0.3-0.2-0.5-0.4-0.5C477.4,7,477,7,476.7,7c-0.6,0.1-1.1,0.5-1.4,1.3c-0.4,0.5-0.8,0.6-1,0.2c0-0.8,0.2-1.7,0.6-2.6
		c0.1-0.2,0.1-0.3,0.3-0.3c0.1-0.1,0.2,0,0.4,0c1.9,0.3,3.2,0.5,3.9,0.6C480.9,6.5,482.2,6.6,483.3,6.6 M489.4,9.2
		c-0.2,0.1-0.3,0.2-0.4,0.3c-0.6,2.3-1.2,5-1.7,8.1c0,0.2,0,0.3,0,0.3c0,0.1,0.1,0.2,0.2,0.3c0.4,0.2,0.6,0.4,0.5,0.6
		c-0.1,0.2-0.2,0.4-0.6,0.4c-1.1-0.1-2.2-0.4-3.4-0.8c-0.1-0.2-0.2-0.3-0.1-0.4c0-0.2,0.1-0.3,0.4-0.3l0.6-0.2
		c0.2-0.1,0.2-0.2,0.3-0.4c0.8-2.6,1.4-5.3,1.8-8.1c0-0.1,0-0.3-0.1-0.4l-0.5-0.4c-0.3-0.3-0.2-0.5,0.3-0.7c1.2,0.1,2.3,0.4,3.4,0.7
		c0.2,0.1,0.3,0.3,0.3,0.5c0,0.2-0.1,0.3-0.3,0.4C489.9,9.1,489.7,9.2,489.4,9.2 M469.5,7.2c0-0.2-0.1-0.3-0.2-0.4l-0.6-0.3
		c-0.3-0.2-0.3-0.5,0.2-0.8c1.2-0.1,2.3-0.1,3.5,0.1c0.2,0.1,0.4,0.2,0.4,0.4c0,0.2,0,0.3-0.2,0.4c-0.1,0.1-0.3,0.2-0.6,0.4
		c-0.2,0.1-0.3,0.3-0.3,0.4c-0.2,2.4-0.2,5.1-0.2,8.2c0,0.2,0,0.3,0.1,0.3c0,0.1,0.1,0.2,0.2,0.2c0.5,0.1,0.7,0.3,0.7,0.5
		c0,0.2-0.2,0.4-0.5,0.5c-1.1,0.1-2.3,0.1-3.5-0.2c-0.1-0.1-0.2-0.2-0.2-0.4c0-0.2,0.1-0.3,0.3-0.4l0.5-0.3c0.1-0.1,0.2-0.3,0.2-0.4
		C469.5,12.8,469.6,10.1,469.5,7.2 M465,7.3C464.6,7,464,7,463.4,7.1c-0.3,0.1-0.4,0.3-0.4,0.7c0.1,2.9,0.4,5.7,0.6,8.4l0.9,0.4
		c0.1,0.1,0.2,0.2,0.2,0.3c0,0.1,0,0.2-0.1,0.2c-0.4,0.2-1,0.4-1.8,0.5c-0.7,0.1-1.4,0.1-2.1,0c-0.3-0.2-0.4-0.5-0.2-0.7l0.7-0.5
		c0.1-0.1,0.2-0.3,0.2-0.5l-0.5-8.2c-0.1-0.3-0.3-0.5-0.5-0.4c-0.5,0-0.9,0-1.2,0.1c-0.6,0.2-0.9,0.8-1.1,1.5
		c-0.3,0.6-0.6,0.7-1,0.4c-0.2-0.8-0.2-1.6,0.1-2.6c0.1-0.2,0.1-0.3,0.3-0.4c0.1-0.1,0.2-0.1,0.4,0c1.9-0.1,3.3-0.1,3.9-0.1
		c1.5-0.1,2.7-0.2,3.9-0.4c0.2,0,0.4,0,0.5,0c0.1,0.1,0.2,0.2,0.3,0.4c0.4,0.9,0.5,1.7,0.4,2.5c-0.1,0.2-0.3,0.3-0.6,0.3
		c-0.2-0.2-0.4-0.6-0.6-1.1C465.4,7.5,465.2,7.3,465,7.3 M452.6,7.6c0.4-0.4,0.7-0.4,1-0.1c0.3,0.3,0.7,0.9,1.1,2
		c0,0.4-0.1,0.6-0.3,0.6c-0.2,0.1-0.5-0.1-1-0.5c-0.5-0.4-1-0.7-1.4-0.7c-1.5-0.2-2.4,0.2-2.8,1.2c-0.3,1.2,0.4,2,2.3,2.4l2.3,0.5
		c1.1,0.2,1.9,0.8,2.2,1.8c0.4,1.1,0.3,2-0.2,2.8c-0.3,0.6-0.9,1.1-1.7,1.5c-1,0.5-2.2,0.7-3.7,0.6c-0.8-0.1-1.3-0.2-1.5-0.5
		c-0.2-0.3-0.5-0.7-0.6-1c0-0.1-0.1-0.2-0.1-0.2c-0.1-0.3-0.1-0.7-0.2-1.1c0.2-0.4,0.5-0.5,0.9-0.2l1,1c0.5,0.5,0.9,0.7,1.4,0.8
		c0.9,0.2,1.7,0,2.2-0.5c0.6-0.8,0.8-1.4,0.6-1.8c-0.2-0.3-0.4-0.6-0.8-0.8c-0.4-0.3-0.7-0.4-1.1-0.5l-2.9-0.7
		c-0.8-0.2-1.3-0.6-1.7-1.1c-0.6-0.9-0.8-1.9-0.3-2.9c0.6-1.3,1.7-2,3.3-2.2C451.9,7.6,452.4,7.6,452.6,7.6 M433.7,14
		c-0.2-0.2-0.2-0.4,0-0.6c1.2-0.7,2.3-1.1,3.3-1.4c0.5,0,0.7,0.2,0.6,0.6c-0.5,0.3-0.7,0.6-0.6,1c0.4,1.5,0.9,2.8,1.4,4.1
		c0,0.1,0.1,0.2,0.1,0.2c0.4,0.9,0.8,1.8,1.3,2.6c0.2,0.3,0.5,0.5,0.9,0.6c0.7,0.2,1.4,0.2,2.2-0.1c0.7-0.3,1.3-0.7,1.7-1.3
		c0.2-0.6,0.3-1.3,0.1-1.9c0-0.1,0-0.1,0-0.2c0,0,0-0.1,0-0.1c-0.7-2.1-1.5-4.1-2.4-6.1c-0.1-0.2-0.2-0.3-0.4-0.4
		c-0.2-0.1-0.5-0.1-0.7,0c-0.2-0.1-0.2-0.1-0.3-0.2c-0.1-0.1-0.1-0.2,0-0.4c0.7-0.6,1.6-0.9,2.8-1.1c0.4,0,0.5,0.2,0.5,0.4
		c0,0.2-0.1,0.3-0.1,0.3c0,0-0.2,0.2-0.4,0.3c-0.2,0.2-0.3,0.5-0.2,0.8l2.3,5.8c0.1,0.2,0.1,0.5,0.2,0.6c0,0.1,0,0.2,0,0.2
		c0.1,0.5,0.1,0.9,0,1.4c-0.1,0.4-0.2,0.7-0.3,0.9c-0.1,0.2-0.3,0.5-0.7,0.8c-0.4,0.4-0.9,0.7-1.3,1c-0.5,0.2-1,0.4-1.5,0.5
		c-1,0.2-1.9,0.2-2.6,0c-1-0.5-1.7-1.1-2.1-2l-2.4-6.1c-0.1-0.3-0.2-0.4-0.4-0.4C434.3,14.2,434,14.1,433.7,14 M433.3,25.2
		c0.1-0.2,0.1-0.3,0-0.5c-1-2.5-2.3-5-3.7-7.4c-0.1-0.1-0.2-0.2-0.4-0.2h-0.7c-0.4-0.1-0.5-0.3-0.2-0.8c1-0.7,2-1.2,3.1-1.7
		c0.2,0,0.4,0,0.5,0.2c0.1,0.1,0.1,0.3,0,0.5c-0.1,0.2-0.2,0.4-0.3,0.6c-0.1,0.2-0.1,0.4,0,0.5c0.9,2.2,2.2,4.6,3.7,7.3
		c0.1,0.2,0.2,0.2,0.2,0.2c0.1,0.1,0.2,0.1,0.3,0.1c0.4-0.1,0.7-0.1,0.8,0.1c0.1,0.2,0,0.5-0.2,0.7c-0.9,0.6-2,1.1-3.1,1.5
		c-0.2,0-0.3-0.1-0.4-0.2c-0.1-0.2-0.1-0.3,0.1-0.5L433.3,25.2 M436.8,45.6c0.4-0.6,0.5-1,0.5-1.4c0.2,0.5,0.2,1.3-0.1,2.5
		c-0.1,0.2-0.1,0.6,0,1c0.1,0.4,0.2,0.9,0.2,1.5c0,0.6,0,1.4,0.1,2.3c0,0.1,0,0.2,0.1,0.2c0.1,0.1,0.1,0.2,0.2,0.3
		c0.2,0.2,0.1,0.4-0.2,0.5c-0.4-0.3-0.6-0.7-0.7-1.2c0-0.1,0-0.3,0-0.6c0-0.2,0-0.5-0.1-0.6c-0.1-0.6-0.5-1.1-1.1-1.4
		c0-0.2,0.1-0.4,0.1-0.8c0-0.4,0.1-0.7,0.2-1c0.1-0.2,0.2-0.4,0.4-0.6C436.4,46.1,436.5,45.9,436.8,45.6 M433.6,49.6
		c0.3-0.5,0.5-0.9,0.5-1.2c0.1-0.7,0-1.3-0.3-1.9c0.8,1,1.1,1.9,0.9,2.8c-0.2,0.6-0.1,1.1,0.4,1.4c0.4,0.3,0.7,0.6,0.8,0.8
		c0.2,0.3,0.3,0.6,0.2,1l-0.1,1.1c-0.2-0.1-0.3-0.2-0.4-0.3c-0.1-0.2-0.1-0.3-0.1-0.6c0-0.3,0-0.5-0.2-0.6c-0.2-0.1-0.3-0.1-0.5,0
		c-0.3,0.2-0.4,0.4-0.4,0.6c0,0.2,0.1,0.4,0.2,0.7l0.4,0.6c0,0.7-0.1,1-0.2,1.1c-0.4-0.6-0.7-1.1-0.9-1.7c-0.1-0.3-0.1-0.7,0-1.1
		c0-0.2,0-0.4,0-0.5c0-0.1-0.2-0.3-0.3-0.5c-0.2-0.3-0.4-0.6-0.4-0.9C433.3,50.1,433.4,49.9,433.6,49.6 M439.3,48.7
		c-0.2-0.8-0.3-1.6-0.1-2.4c0.1-0.9,0.4-1.5,0.8-1.8c-0.4,1.4-0.2,2.8,0.5,4.1c0.2,0.3,0.3,0.6,0.3,0.9c0,0.3-0.1,0.5-0.2,0.7
		c-0.6,0.7-1,1.6-1,2.7c-0.3-0.3-0.4-0.5-0.5-0.5c0-0.1,0.1-0.4,0.2-0.8l0.3-0.6c0.1-0.4,0.1-0.7,0-1.1
		C439.5,49.7,439.4,49.3,439.3,48.7 M442.4,48.8c0,0.2-0.1,0.4-0.2,0.7c-0.1,0.5,0,0.8,0.2,1.1c0.4,0.5,0.1,1.4-1,2.7
		c-0.2-0.1-0.2-0.3-0.1-0.6c0.5-0.4,0.6-0.8,0.4-1.2c-0.3-0.6-0.3-1.2-0.1-1.8c0-0.1,0.2-0.4,0.4-0.8c0.2-0.3,0.3-0.6,0.4-0.9
		C442.5,48.3,442.5,48.6,442.4,48.8 M440.3,56.3C440.3,56.3,440.3,56.3,440.3,56.3c0.2,0.4,0.3,0.7,0.1,1c0,0,0,0.1,0,0.1
		c-0.1,0.2-0.1,0.5,0,0.7c0.1,0.3,0.4,0.7,0.9,1.1c-0.3,0.2-0.5,0.3-0.9,0.4c-0.1,0-0.2,0.1-0.4,0.1c-0.2-0.5-0.3-1-0.3-1.4
		c0-0.3,0.1-0.5,0.2-0.8c0.2-0.4,0.3-0.6,0.3-0.6C440.3,56.6,440.3,56.5,440.3,56.3c-0.1-0.1-0.1-0.2-0.2-0.3
		C440.2,56.1,440.3,56.2,440.3,56.3 M436.2,56c0,0.1,0,0.2,0,0.2c0,0.1,0,0.2,0.1,0.4c0,0.1,0.1,0.2,0.2,0.3
		c0.1,0.2,0.2,0.3,0.2,0.4c0.2,0.6,0.2,1.3,0.1,2.2c-0.2,0-0.3-0.1-0.5-0.2c-0.2-0.1-0.3-0.2-0.4-0.2c-0.1-0.2-0.1-0.4-0.1-0.5
		c0-0.2,0.1-0.4,0.2-0.5c0.1-0.1,0.1-0.4,0-0.7s-0.2-0.5-0.2-0.5c-0.1-0.4,0-0.8,0.3-1c0.2-0.2,0.3-0.4,0.4-0.5
		C436.3,55.6,436.2,55.8,436.2,56 M438.5,54.5c-0.1-0.4-0.2-0.6-0.3-0.8c-0.2-0.7-0.2-1.4,0.3-1.9c-0.2,0.7-0.1,1.5,0.5,2.4
		c0.2,0.2,0.2,0.5,0.2,0.8c0,0.2-0.1,0.3-0.2,0.5c-0.1,0.1-0.2,0.3-0.3,0.5c-0.1,0.1-0.1,0.2-0.1,0.3v0.1c0,0.2,0,0.3,0,0.3
		c0-0.1-0.1-0.3-0.1-0.4c-0.1-0.2-0.2-0.3-0.2-0.3c-0.1-0.2-0.1-0.5,0.1-0.9C438.6,55,438.6,54.8,438.5,54.5 M438.1,57.5
		c0.1-0.2,0.1-0.2,0.2-0.4C438.3,57.2,438.3,57.3,438.1,57.5L438.1,57.5c0.1,0.2,0,0.4,0.1,0.5c0,0.5,0.2,1.1,0.7,1.7
		c-0.4,0-0.8,0-1.2-0.1c-0.2-0.5-0.2-1.1,0-1.5C437.9,57.9,438,57.7,438.1,57.5 M520.9,43.6v6 M518.8,106.8L518.8,106.8 M491,124.2
		v-0.8 M439.9,114.8c-0.1-0.3-0.1-0.5,0-0.7h-6c0.1,0.1,0.1,0.4,0,0.8c-0.1,0.4,0,0.6,0.1,0.8h0.6c0-0.3,0.2-0.5,0.3-0.7
		c0.2-0.2,0.3-0.3,0.4-0.4c0,0,0.2,0,0.3,0c0.2,0,0.4,0.1,0.5,0.1l0.1,5.6c-0.1,0.5-0.4,0.8-1,0.9v0.3h2.9c0-0.1,0-0.3,0.1-0.5
		c0.1-0.2,0.1-0.4,0.1-0.5c-0.3-0.1-0.6-0.3-0.7-0.5v-5.2c0.6-0.1,1.1-0.1,1.3,0c0.3,0.1,0.5,0.3,0.5,0.7l0.5,0.1
		C440,115.5,440,115.2,439.9,114.8 M434.9,106.6l1.9,6l1.1,0.3l0.2-0.3l-0.5-0.5l2.3-5.6c0.3-0.4,0.8-0.6,1.3-0.7l0.1-0.3l-2.4,0
		l0.3,0.4l-1.7,4.2l-1.3-4.5h-2.1v0.5C434.4,106.1,434.7,106.2,434.9,106.6 M475.9,143.9c-0.2-0.1-0.6-0.2-1.1-0.3
		c-0.6-0.1-1-0.2-1.3-0.4c-0.3-0.2-0.5-0.5-0.5-0.8c-0.1-0.3,0-0.6,0.2-0.8c0.2-0.3,0.4-0.4,0.7-0.4c0.3,0,0.7,0.1,1,0.4l-0.2,0.6
		h0.9l0.5-1.8l-1,0.1l-0.2,0.2c-0.7-0.2-1.4-0.2-1.8-0.2c-0.5,0-0.8,0.2-1.2,0.6c-0.3,0.4-0.5,0.9-0.4,1.4c0,0.6,0.5,1.1,1.4,1.4
		c0.9,0.3,1.5,0.7,1.8,1.2c0.3,0.5,0.3,0.9,0.1,1.2c-0.7,0.4-1.5,0.4-2.1-0.1l-0.1-0.5l-0.6-0.5l-0.6,2.3l1.5,0.2
		c-0.1-0.1-0.1-0.2,0-0.3c2.1,0.4,3.3,0.1,3.7-1.1c0.2-0.8,0.2-1.3,0-1.8C476.5,144.3,476.3,144.1,475.9,143.9 M471.3,138
		c0.1,0.4,0.3,0.7,0.6,0.9c0.3,0.3,0.6,0.4,1,0.5c0.4,0,0.8,0,1.1-0.1c0.6-0.1,1.1-0.4,1.4-0.6c0.1-0.1,0.2-0.2,0.2-0.3
		c0.1-0.1,0.1-0.1,0.1-0.1v0.7l0.8,0.1l-0.1-3.1l-1.2,0.2c0,0.2,0,0.3-0.1,0.6c-0.1,0.3-0.2,0.5-0.2,0.5c0,0,0.1,0,0.3,0
		c0,0,0.1,0,0,0.1v0.1c-0.1,0.4-0.2,0.7-0.5,0.8c-0.2,0.2-0.4,0.2-0.8,0.1c-0.3,0-0.6-0.2-0.8-0.5c-0.2-0.3-0.4-0.7-0.5-1.2
		c0-0.4,0.2-0.7,0.7-0.8c0.4-0.1,0.9,0,1.5,0.2l-0.1-1.3c-0.1,0.2-0.2,0.3-0.4,0.5c-0.5,0-0.8,0-0.9,0c-0.6-0.3-0.8-0.8-0.5-1.3
		c0.3-0.8,0.7-1.3,1.1-1.3c0.3,0,0.5,0.1,0.8,0.3c0.2,0.2,0.4,0.4,0.5,0.7l-0.4,0.1c-0.1,0.1,0,0.2,0.1,0.5c0.1,0.3,0.2,0.5,0.2,0.6
		l1.1,0.3l0.4-2.8h-0.5l-0.5,0.5c-0.8-0.8-1.6-1-2.5-0.8c-0.4,0.1-0.7,0.3-1,0.6c-0.3,0.3-0.5,0.6-0.5,1l-0.1,1c0,0.2,0.2,0.6,0.6,1
		C471.3,136.4,471.1,137.2,471.3,138 M404.9,62.8c0.8,3.8,2.1,8.2,3.8,13.3c-4.4,4.6-7.9,11.4-10.8,20.5
		C397.6,84.3,400,73.1,404.9,62.8 M410.5,76.1c-1.2-3.5-2.1-6.6-2.8-9.1c-0.9-3.2-1.5-6.2-1.9-8.9c-2,3.6-3.6,7-4.8,10.2
		c-1.5,4-2.6,7.9-3.2,11.8c-0.7,4.7-1.1,8.9-1.2,12.8c-0.1,4.9,0.3,9.6,1.2,14.3c0.4-5.7,1.7-11.1,3.8-16.3
		C403.7,85.9,406.7,80.9,410.5,76.1 M444.4,116.9c0,0.2-0.1,0.4-0.3,0.5c-0.3,0.1-0.6,0.1-0.9,0.1c-0.2,0-0.3-0.1-0.4-0.3
		c0-0.7,0.1-1.3,0.4-2c0.5-0.2,0.8-0.2,1,0.3C444.4,115.9,444.4,116.4,444.4,116.9 M446,120.1c-0.4-1.3-0.8-2.8-1-4.4
		c0-0.7,0.4-1,1.1-1l0.3-0.8l-5.9,0.2c0,0.3,0.1,0.5,0.2,0.6c0.1,0.1,0.3,0.2,0.5,0.1c0.2,0,0.3,0.1,0.4,0.2
		c0.1,0.2,0.1,0.3,0.1,0.5l-1.2,4.5c-0.1,0.5-0.4,0.8-0.8,1l0.2,0.4l1.9-0.1l0.5-2.1c0.2-1,0.9-1.4,2.2-1.1l1,3.4l1.2-0.2l0.2-0.6
		C446.5,120.8,446.2,120.6,446,120.1 M440.9,108.1c0,0.2,0.2,0.5,0.6,1c-0.7,0.8-0.9,1.7-0.7,2.5c0.1,0.4,0.3,0.7,0.6,0.9
		c0.3,0.2,0.6,0.4,1,0.4c0.4,0.1,0.8,0,1.1,0c0.6-0.2,1.1-0.4,1.4-0.7c0.1-0.1,0.2-0.2,0.2-0.3c0-0.1,0.1-0.1,0.1-0.1v0.7l0.8,0.1
		l-0.1-3.1l-1.2,0.2c0,0.2,0,0.3-0.1,0.6c-0.1,0.3-0.2,0.5-0.2,0.5h0.3c0,0,0.1,0,0,0.1v0.1c-0.1,0.4-0.2,0.7-0.5,0.8
		c-0.2,0.1-0.4,0.2-0.8,0.1c-0.3,0-0.6-0.2-0.8-0.5c-0.3-0.3-0.5-0.7-0.5-1.2c0-0.4,0.2-0.7,0.6-0.8c0.4,0,0.9,0,1.6,0.2l-0.1-1.3
		c-0.1,0.2-0.2,0.3-0.4,0.5c-0.5,0-0.8,0-0.9,0c-0.6-0.3-0.8-0.8-0.5-1.3c0.3-0.8,0.7-1.3,1.1-1.3c0.3,0,0.5,0.1,0.8,0.3
		c0.2,0.2,0.4,0.4,0.5,0.7l-0.4,0.1c-0.1,0.1,0,0.2,0.1,0.5c0.2,0.3,0.2,0.5,0.2,0.6l1.1,0.3l0.4-2.8h-0.5l-0.5,0.5
		c-0.8-0.8-1.7-1-2.5-0.8c-0.4,0.1-0.7,0.3-1,0.6c-0.3,0.3-0.5,0.6-0.5,1L440.9,108.1z M481.1,143.2l-0.5-1.1l-0.5,1.1h-1.1l0.5,0.9
		L479,145h1l0.5,1l0.5-1l1.1,0.1l-0.5-1l0.5-0.9H481.1z M462.1,142.2c0-0.2,0-0.5-0.1-0.9c-0.1-0.3-0.1-0.6,0-0.7h-5.9
		c0.1,0.1,0.1,0.4,0,0.7c-0.1,0.4,0,0.7,0.1,0.9h0.6c0-0.3,0.1-0.5,0.3-0.7c0.2-0.2,0.3-0.3,0.4-0.3c0,0,0.2,0,0.3,0
		c0.2,0,0.4,0.1,0.5,0.1l0.1,5.6c-0.1,0.5-0.4,0.8-1,0.9v0.3h2.9c0-0.1,0-0.3,0.1-0.4c0.1-0.2,0.1-0.4,0.1-0.5
		c-0.4-0.1-0.6-0.3-0.7-0.5v-5.2c0.6-0.1,1-0.1,1.3,0c0.3,0.1,0.5,0.4,0.5,0.7L462.1,142.2z M488.6,117.1c0,0.2-0.1,0.4-0.3,0.4
		c-0.3,0.1-0.6,0.1-0.9,0.1c-0.2,0-0.3-0.2-0.4-0.3c0-0.7,0.1-1.3,0.4-2c0.5-0.2,0.8-0.2,1,0.2C488.6,116,488.7,116.5,488.6,117.1
		 M490.1,120.2c-0.4-1.3-0.7-2.8-1-4.4c0-0.7,0.4-1,1-1l0.3-0.8l-5.4,0.2v0.3c0,0.1,0,0.2,0.1,0.2c0.1,0.1,0.2,0.2,0.5,0.1
		c0.2,0,0.3,0.1,0.4,0.2c0.1,0.2,0.1,0.3,0,0.5l-1.1,4.5c0,0.1,0,0.2-0.1,0.2l-0.3,0c-0.2-0.1-0.3-0.2-0.4-0.4l0.1-4.7
		c0-0.4,0.2-0.7,0.5-0.8v-0.5l-2.3,0.1l-0.1,0.5c0.3,0,0.5,0.2,0.5,0.5v4.8c0,0.5-0.3,0.8-0.8,0.8l0.4,0.6l1.5-0.2l0.1,0.3l1.8-0.1
		l0.5-2.1c0.2-1,0.8-1.3,2.1-1.1l0.9,3.4l1.2-0.2l0.2-0.6C490.6,120.9,490.3,120.6,490.1,120.2 M537.6,114.1
		c-0.6,4.1-1.8,8-3.5,11.8c-1.7,3.7-3.5,6.9-5.3,9.6c-1.8,2.6-4.8,5.3-8.8,8.2c-4,2.8-8.3,4.9-13,6.4c-4.7,1.5-9.3,2.2-14,2.2
		c1.3-1,2.5-1.9,3.7-3c2.8-0.2,5.8-0.7,9-1.5c3.1-0.8,6.5-2.4,10.2-4.8c3.7-2.3,6.9-5.2,9.6-8.5c2.7-3.3,4.9-6.9,6.6-10.9
		c1.6-3.9,2.6-8,3-12c0.4-4.1,0.2-8.1-0.6-12c-0.7-4-2.1-7.7-4-11.2c-1.8-3.4-4.4-6.9-7.7-10.8l3.6-0.1c3.1,3.1,5.6,6.6,7.4,10.6
		c1.8,4,3.1,8.3,3.8,12.9C538.2,105.5,538.3,109.9,537.6,114.1 M488.9,152.4c-0.3,0.2-0.7,0.4-1,0.6c-0.2,0.1-0.4,0.2-0.6,0.4h-35.5
		c-1.6-1-3.2-2-4.8-3.1c-0.6-0.4-1.2-0.8-1.8-1.3h3.9h2.4c0,0.6,0,1.1,0,1.4v0.2c0,0.5,0.1,0.9,0.1,1.2c0.1,0.3,0.2,0.6,0.5,0.8
		c0.2,0.2,1.1,0.2,2.4,0.2c1.4,0,2.8-0.2,4.3-0.4c1.5-0.2,3.2-0.5,5-0.9c0.6-0.1,1.3-0.3,2.1-0.5c0.6-0.1,1-0.2,1.2-0.2
		c0.2,0,0.2,0,0.3,0.1c0,0,0.1,0.1,0.2,0.2c0.2,0.2,0.8,0.4,1.9,0.4h0.1c1.1,0,1.7-0.1,1.9-0.4c0.1-0.1,0.1-0.2,0.2-0.2
		c0,0,0.2-0.1,0.3-0.1c0.2,0,0.5,0,1.2,0.1c0.6,0.1,1.7,0.3,3.1,0.5c1.4,0.2,2.9,0.5,4.5,0.7c1.5,0.2,2.8,0.4,3.6,0.4
		c1.1,0,1.9,0.1,2.1,0.1c0.3,0,0.5-0.2,0.7-0.6c0.1-0.4,0.2-0.8,0.2-1.2c0-0.4,0-1,0-1.9h6.5C492.3,150.1,490.6,151.3,488.9,152.4
		 M506.1,155.2c-8.9,5.1-18.3,8.2-28.4,9.4c2.2-2.2,4.2-4.5,6-7.1c1.3-0.5,2.5-1.1,3.7-1.8C493.2,156.6,499.4,156.5,506.1,155.2
		 M469.5,158.7c-6-0.5-11.3-2-16.1-4.4h32.2C480.8,156.8,475.4,158.3,469.5,158.7 M470.2,163.4l0.1-2.5c1.3-0.1,2.6-0.3,3.8-0.5
		C472.8,161.7,471.5,162.7,470.2,163.4 M470.1,165.5l0-1.3c1.9-0.9,3.4-2.2,4.6-3.9c0.7-0.1,1.4-0.3,2-0.4
		C474.8,162.3,472.6,164.2,470.1,165.5 M465.3,160.4c1.2,0.2,2.4,0.4,3.7,0.5l0,2.5C467.1,162.4,465.9,161.3,465.3,160.4
		 M462.4,159.8c0.6,0.1,1.2,0.2,1.8,0.4h0.1c1.2,1.8,2.8,3.1,4.7,3.9v1.4C466.6,164.2,464.5,162.3,462.4,159.8 M461.3,164.6
		c-10-1.3-19.2-4.4-27.6-9.4c6.2,1.1,12.2,1.3,18.2,0.6c1.1,0.6,2.4,1.2,3.6,1.8L461.3,164.6z M432.4,149.9c-4.7-1.5-9-3.6-13-6.4
		c-4-2.8-6.9-5.5-8.8-8.2c-1.8-2.7-3.6-5.9-5.3-9.6c-1.7-3.7-2.9-7.6-3.5-11.8c-0.6-4.2-0.6-8.6,0.1-13.2c0.7-4.6,1.9-8.9,3.8-12.9
		c1.8-4,4.3-7.5,7.4-10.6l3.6,0.1c-3.3,3.8-5.9,7.4-7.7,10.8c-1.9,3.6-3.3,7.3-4,11.2c-0.8,3.9-1,7.9-0.6,12c0.3,4,1.3,8.1,3,12.1
		c1.7,4,3.8,7.6,6.6,10.9c2.7,3.3,5.9,6.2,9.6,8.5c3.7,2.3,7.1,3.9,10.2,4.8c3.1,0.8,6,1.4,8.7,1.6c0.2,0.2,0.5,0.4,0.8,0.6
		c1,0.8,2.1,1.6,3.1,2.3C441.7,152.2,437,151.4,432.4,149.9 M408.5,58.3l3.1,1.7c1.3,5.4,3,10.7,5.1,16l-3.2-0.2
		C411.2,69.7,409.5,63.9,408.5,58.3 M418.3,53.8v3.1c-2.1,0.4-4.2,1.1-6.1,1.9l-3.4-1.9C411.4,55.7,414.5,54.7,418.3,53.8 M413.6,60
		c1.5-0.7,3-1.2,4.7-1.4l-0.1,16.3C415.8,69.2,414.3,64.3,413.6,60 M419,111.6c0.7,3.8,1.8,7.3,3.1,10.6c2.9,6.9,6.9,13.3,11.8,18.9
		c2,2.3,4.2,4.5,6.5,6.5c-1.9-0.3-4-0.8-6.3-1.5c-2.4-0.7-5.3-2.1-8.9-4.1c-3.6-2.1-6.8-4.7-9.6-8c-2.8-3.3-5-6.6-6.4-10
		c-1.5-3.4-2.5-7-3.1-10.8c-0.5-3.9-0.6-7.7-0.1-11.6c0.5-3.9,1.9-8.1,4.2-12.6c2.3-4.6,4.9-8.1,7.9-10.6l-0.1,23.6
		C418.1,105,418.4,108.2,419,111.6 M411.9,51.1c1.5-2.2,3.7-4.8,6.5-7.6l0,6.2C416.6,49.8,414.5,50.3,411.9,51.1 M435.4,82.6
		c-0.9,0-1.7-0.1-2.1-0.3c0.3-0.1,0.7-0.2,1.1-0.2c0,0,0.1,0.1,0.4,0.2C435.1,82.4,435.3,82.5,435.4,82.6 M436.4,80.8h-1.1l-0.5-0.4
		l0.7-0.1L436.4,80.8z M434.8,67.3H434l-0.5-0.4C434.2,67,434.6,67.1,434.8,67.3 M438.3,77.7h0.5l0.5,0.5
		C438.9,78.2,438.6,78,438.3,77.7 M436.5,78.8l-0.3-0.2l0.7-0.1l0.7,0.3L436.5,78.8z M438.6,97c0-0.1-0.2-0.2-0.3-0.3
		c-0.5-0.3-0.7-0.5-0.7-0.8c-0.1-1.5-0.1-2.6-0.1-3.3c0.1-0.5,0.3-0.7,0.5-0.6c0.2,0.1,0.6,0.4,1.1,1c0.4,0.5,0.5,1.5,0.3,3.2
		c-0.5,0.5-0.5,0.8-0.2,1c0.3,0.3,0.5,0.6,0.4,0.9c-0.1,0.2-0.2,0.4-0.5,0.5c-0.3,0.1-0.5,0.1-0.8-0.1c-0.3-0.2-0.5-0.4-0.6-0.7
		c-0.1-0.2,0.2-0.3,0.9-0.3C438.7,97.3,438.7,97.1,438.6,97 M441,78.6l-0.7-0.7l0.6,0.1L441,78.6z M439.1,63.1
		c0.1,0.1,0.2,0.1,0.5,0.1c0.4-0.1,0.7-0.1,1-0.1c0.4,0.1,0.5,0.3,0.3,0.7c-0.2,0.6-0.3,1.3-0.2,2l-1.1,0.9c0,0.1,0.1,0.2,0.3,0.5
		c0.3,0.3,0.4,0.5,0.4,0.6c0,0.1-0.1,0.2-0.2,0.3s-0.3,0.3-0.3,0.4c0,0.1,0.1,0.3,0.2,0.6c0.1,0.2,0.2,0.5,0.2,0.6v3.4
		c-0.1,0-0.2,0.3-0.2,0.7c-0.1,0.5-0.1,1,0,1.6c0,0.4,0,0.9-0.1,1.5c-0.1,0.5-0.1,0.8-0.1,1.1c-0.6-0.4-1.3-0.5-2-0.3
		c0.3,0.4,0.5,0.8,0.5,1.2c-0.3-0.4-0.5-0.5-0.8-0.4L437,68.4l0.4-1.9c-0.2-0.2-0.4-0.4-0.4-0.6c0-0.2,0.1-0.4,0.2-0.6
		c0.2-0.4,0.3-0.5,0.3-0.5c0.1-0.2,0.1-0.4,0-0.5l-1-0.2c-0.1-0.3,0-0.5,0.1-0.6c0.1-0.1,0.3-0.2,0.5-0.2c0.3-0.1,0.5-0.1,0.5-0.1
		c0.1-0.1,0.2-0.2,0.1-0.4l-1.9-0.5c-0.2-0.2-0.3-0.3-0.3-0.5c0-0.1,0-0.2,0.1-0.4c0.1-0.2,0.2-0.3,0.2-0.4c0.1-0.2,0-0.4,0-0.6
		c0-0.1,0.1-0.1,0.3-0.1c0.1,0,0.2,0.1,0.5,0.2c0.5,0.2,0.9,0.3,1.2,0.2c0.1,0.5,0.2,0.8,0.3,0.8c0.1,0,0.4-0.2,0.7-0.6
		c0.4-0.2,0.8-0.3,1.5-0.2c0.1,0,0.2,0,0.3,0c0.2,0,0.3,0,0.4,0c0.2,0,0.4-0.1,0.5-0.2c0.3-0.2,0.5-0.4,0.6-0.4
		c0.1,0,0.2-0.1,0.3-0.2c0,0.1,0,0.2,0,0.4c0,0.1,0.1,0.2,0.1,0.3c0.1,0.2,0,0.4-0.2,0.6c-0.5,0.4-1.1,0.7-1.7,1
		c-0.5,0.2-0.9,0.3-1.4,0.4C439,62.8,439,63,439.1,63.1 M444.3,87.1c-0.2-0.3-0.3-0.5-0.4-0.7c-0.2-0.3-0.3-0.5-0.5-0.6
		c0.3,0.2,0.5,0.2,0.7,0c-0.3-0.2-0.4-0.4-0.4-0.6c0.1,0,0.2,0.2,0.6,0.3c0.3,0.2,0.6,0.4,0.9,0.8c0.1-0.2,0-0.4-0.1-0.7
		c0.4,0.3,0.8,0.5,1.1,0.7c0.2,0.1,0.5,0.2,0.8,0.4c0.7,0.3,1.6,0.9,2.7,1.8c0.5,0.3,1.3,0.5,2.4,0.4c-0.1,0.4-0.3,0.6-0.6,0.8
		c-0.2,0.1-0.6,0.1-1,0.1c-0.3,0-0.5,0-0.8,0.1c-0.3,0.1-0.5,0.2-0.7,0.2c-0.6,0.2-1.2,0.2-1.9,0.1c-0.4-0.1-0.8-0.3-1.1-0.6
		c-0.1-0.1-0.4-0.4-0.9-0.9c0.3,0,0.5,0,0.6-0.2C445.1,88.2,444.6,87.7,444.3,87.1 M477.5,65.2c-0.3,0-0.6-0.1-0.9-0.2
		c0.1-0.2,0.3-0.4,0.5-0.6C477.2,64.7,477.2,64.9,477.5,65.2 M480,65.6c-0.3,0-0.6-0.1-0.8-0.2c0-0.2,0.2-0.4,0.5-0.5
		C479.7,65.2,479.8,65.4,480,65.6 M475,56.2l-0.7,1l-0.3-0.2l0.1-0.8h0.6L475,56.2z M478.3,56.3l-0.6,0.7l-0.5-0.9L478.3,56.3z
		 M481,57l-0.6,0.3l-0.3-0.6L481,57z M420.4,43.8h98.5l0.3,56.7h-19.2c-0.2-0.1-0.3-0.4-0.4-0.7c0-0.3-0.1-0.7-0.1-1.2
		c0-0.7-0.1-1.1-0.1-1.4c-0.1-0.5-0.2-0.9-0.3-1.2c0-0.2,0.1-0.3,0.1-0.2c0,0,0.2,0.2,0.3,0.4c0-0.5-0.1-1.1-0.2-1.8
		c-0.1-0.6-0.2-1.1-0.2-1.4c0.2-0.1,0.4,0.1,0.5,0.5c0.8-3.2,1.1-6.4,1.1-9.7c0.2,0.1,0.3,0.5,0.5,1.3c0.3-1.3,0.3-2.8,0-4.5
		c-0.1-0.6,0-1.4,0.2-2.4c0.3-1.7,0.2-3.4-0.3-5.1c0.4,0.5,0.8,0.9,1.3,1c-0.8-1.5-1.5-3.2-2-5.2c-0.1-0.5-0.1-0.9,0.1-1.3
		c0.1-0.2,0.2-0.6,0.4-1.3c0.2-0.6,0.3-1,0.4-1.1l0.1,0.7c0.1,0,0.2-0.2,0.3-0.4c0.1-0.2,0.1-0.5,0.2-1c0.2-1,0.3-1.6,0.5-1.8
		c0.2,0.3,0.3,0.7,0.3,1.1c0.4-1.8,0.3-3.7-0.3-5.9l-0.5-3.8c0.5-0.3,0.8-0.8,0.8-1.4v-1.3c0.2,0.1,0.4,0.3,0.6,0.6
		c-0.1-0.4-0.2-0.9-0.3-1.5c0-0.5-0.2-0.8-0.3-1.1c-1.1-1.3-2.6-1.8-4.4-1.4c0-0.8-0.2-1.4-0.6-1.9c0-0.2,0.1-0.2,0.4-0.2
		c-0.4-0.6-0.9-0.8-1.5-0.8c-0.1,0-0.4-0.1-0.6-0.1c-0.3-0.1-0.5-0.2-0.6-0.2c-0.5-0.2-1-0.2-1.3-0.1c-1.1,0.2-1.9,0.9-2.4,2
		c-2.7-0.5-4.5-0.6-5.4-0.2c0-0.2,0.2-0.3,0.4-0.4c-0.9,0.1-1.6,0.4-2.1,1c-2.5,0.4-5.1,0.8-7.6,1.4c-1.6,0.2-3,0.2-4.2,0
		c-0.2,0.3-0.4,0.6-0.5,0.8c-0.1,0.3-0.1,0.6,0.1,0.9c0.6,1,0.7,2,0.3,2.9l-0.5,1.3c-0.2,0.3-0.2,0.6-0.2,0.8c0,0.2,0,0.4,0.1,0.5
		c0.1,0.1,0.2,0.3,0.4,0.6c0.4,0,0.6,0.2,0.8,0.5l0.9,0.8c0.3-0.8,0.8-1.3,1.4-1.7c0.2-0.1,0.3-0.1,0.5,0.1c0.3,0.5,0.9,1.1,1.7,1.7
		c0.2-0.5,0.5-1,0.9-1.2c0.1-0.1,0.2-0.1,0.2-0.1c0.1,0,0.1,0.1,0.2,0.1c0.1,0.2,0.3,0.4,0.7,0.6c0.3,0.2,0.5,0.3,0.6,0.3
		c0.2-0.2,0.4-0.2,0.6-0.3c0.2-0.1,0.4-0.1,0.5,0c0.1,0,0.1,0.1,0,0.3c0.1,0.6,0.3,1,0.5,1.3c0.5-0.4,1-0.4,1.4-0.1
		c1.2,1,1.5,1.5,0.9,1.7c-3.4-0.2-5.4-0.2-5.9-0.3c-1.8-0.2-3.5-0.5-4.9-0.8c-1.4-0.5-2.4-1-3.2-1.6c-0.5-0.5-1.1-1.1-1.6-1.9
		c-0.3-0.4-0.6-0.6-0.9-0.7c-0.3-0.1-0.6,0-0.9,0.2c-0.3,0.2-0.4,0.5-0.5,1c-0.1,0.4,0,1,0.2,1.6c1.6,3.4,5.2,5.3,10.7,5.6
		c4.9,0.3,7.1,0.9,6.6,1.8c-0.1,0.2-0.2,0.2-0.5,0.2c-0.3-0.2-0.5-0.4-0.7-0.6c-0.1-0.1-0.2-0.2-0.2-0.3c-0.7,0.3-1.3,0.8-1.7,1.3
		c-0.6-0.4-1-0.7-1.2-1.1c-0.6,0.2-1.1,0.6-1.5,1.2c-0.5-0.7-0.8-1.4-0.9-2c-0.9,0.2-1.6,0.7-2,1.7c-0.2,0-0.4,0.1-0.4,0.4
		c-0.1,0.2,0,0.4,0.1,0.6v0.6l-0.1,0.1c-0.1,0.1-0.1,0.2-0.1,0.3c-0.1,0.4-0.1,0.8,0.2,1.2c0.2-0.3,0.5-0.5,0.8-0.6
		c0,0.6,0.2,1.1,0.9,1.5c0.1-0.3,0.3-0.5,0.5-0.7c0.1,0.2,0.2,0.4,0.2,0.4c0.1,0.1,0.2,0.1,0.4,0.2c0-0.2,0-0.4,0.1-0.5
		c0.5,0.3,1,0.4,1.5,0.4c-0.2,0.3-0.4,0.6-0.3,0.9c-0.8,0.4-1.5,0.9-2.2,1.6c-0.9-0.1-1.6,0.1-2.2,0.7c0.3,0,0.5,0,0.6,0.2
		c-1,0.4-2.2,1.3-3.5,2.6c-0.5,0.4-0.9,0.8-1.3,1.3l-0.5,0.6c0.2,0,0.4,0,0.5-0.1c0.2-0.1,0.3-0.1,0.3,0l-3.6,4.2
		c-1.1-0.1-2.1,0.1-2.8,0.4c-0.5-0.2-1.1-0.4-1.8-0.5c-0.7-0.2-1.1-0.2-1.4-0.2c-0.3,0-0.5,0-0.6,0c-0.1-0.1-0.2-0.1-0.4-0.1
		l0.4-0.3c0.1-0.1,0.1-0.2,0.1-0.2c-0.6,0.1-1.3,0.2-2.1,0.1c-0.9-0.1-1.7-0.1-2.1,0c0.1-0.2,0.2-0.3,0.4-0.4c-0.1,0-0.5,0-1,0.1
		c-0.5,0-0.9,0-1.3,0c0.3-0.2,0.4-0.3,0.5-0.5c-0.5,0.2-1.3,0.1-2.3,0c-1-0.2-1.6-0.2-1.7-0.2c-0.1-0.2-0.2-0.3-0.1-0.4
		c0.1-0.1,0.2-0.2,0.4-0.3l-2.6-0.2c0.3-0.2,0.5-0.4,0.5-0.8c-0.7,0.3-1.4,0.4-2,0.1c-0.5-0.2-0.9-0.6-1-1.1
		c-0.2,0.1-0.2,0.3-0.2,0.6c-0.3-0.5-0.6-0.9-1-1.2c-0.4-0.4-0.8-0.6-0.9-0.8c-0.3-0.3-0.5-1-0.7-2.1c-0.1-0.5-0.1-1.1-0.2-1.5
		c-0.1-0.4-0.1-0.8-0.2-1.1c-0.2-0.3-0.2-0.5-0.2-0.8c0.2,0.2,0.5,0.2,0.6,0.2c-0.8-1-1.2-2.1-1.2-3.2c0-0.1,0-0.1,0.1,0
		c0.1,0.1,0.2,0.1,0.4,0.2c0.2,0,0.2,0,0.2,0c-0.6-0.6-0.8-1.2-0.8-1.8c0-0.2,0-0.5-0.1-0.8c-0.1-0.4-0.1-0.7-0.1-0.9
		c0-0.2,0.2-0.4,0.4-0.7c0.2-0.3,0.3-0.5,0.3-0.7c0.1-0.2,0.2-0.4,0.5-0.6l0.7-0.5c0.2-0.3,0.3-0.5,0.3-0.7c0.1-0.2-0.1-0.5-0.4-0.7
		c-0.3-0.3-0.5-0.5-0.5-0.8c-0.1-0.2,0.1-0.5,0.4-0.8c0.3-0.4,0.5-0.7,0.6-1.1c0.1-0.4,0.1-0.8,0.2-1.2c0-0.3,0-0.8-0.1-1.5
		c-0.2-0.7-0.2-1.1-0.2-1.1c0-1,0.4-2.1,1.2-3.2c-1.2,0.2-2.1,0.8-2.6,2.1c-0.5,1.3-1.1,2.4-1.9,3.2l0.1,0.3
		c0.1,0.1,0.2,0.2,0.3,0.1c0.1,0,0.2-0.1,0.3-0.3c0.1-0.2,0.1-0.3,0.2-0.4c1-0.1,1.3,0.3,1,1.1c-0.1,0.3-0.3,0.6-0.6,1
		c0.4,0.4,0.5,1,0.3,1.7c-0.2,0-0.4,0.1-0.5,0.2c-0.3,0.2-0.7,0.4-1.2,0.6c-0.1,0-0.2,0.1-0.3,0.1c-0.5,0.1-1.1,0.2-1.8,0.2
		c-0.9,0-1.7-0.1-2.3-0.3l-0.6-0.3c-0.2-0.1-0.4-0.2-0.6-0.2c0-0.2,0-0.4-0.1-0.5c-0.1-0.1-0.4-0.1-0.7-0.1l-0.7-1.9
		c-0.1-0.4-0.1-0.7,0.1-0.8c0.1,0,0.1-0.1,0.2,0c0.1,0,0.1,0.1,0.2,0.1c0.3,0.3,0.4,0.7,0.4,1.2c0.3-0.2,0.4-0.5,0.1-0.8
		c-0.1-0.2-0.2-0.6-0.2-1.3c0-0.2-0.2-0.5-0.4-0.7c-0.3-0.4-0.6-0.7-0.8-0.9c-0.3-0.4-0.5-1-0.5-1.7c-0.4,1.1-0.4,2.3,0,3.6
		c0.2,0.5,0.3,1.1,0.1,1.6c-0.1,0.5,0,1,0.3,1.4c0.5,0.7,0.5,1.3,0,1.7c-0.3,0.4-0.2,0.8,0.1,1.3l1.1,0.8c-0.2,0.5,0,0.8,0.5,1.1
		c0.6,0.8,0.9,1.5,0.7,2.1c-0.4-0.2-0.8-0.2-1.2,0c0.8,0.5,1.3,1.2,1.6,2.2c-1-0.7-2.1-1-3.2-0.8c0.8,0.5,1.2,1.3,1.5,2.3
		c-0.4,0.8-0.3,1.6,0.4,2.5c-0.4,0.3-0.5,1.1-0.3,2.4l0.4-0.7c0,0.7,0.2,1.3,0.8,2c0.1-0.6,0.2-0.9,0.3-0.8l0.5,1.1l0.2,2.8
		l-0.7,0.3c0.4,0.4,0.6,0.9,0.8,1.5l-0.2,0.2c-0.1,0-0.1,0-0.2-0.1l-0.1,0c-0.7-0.3-1.4-0.3-2.3,0.1c0.6,0.3,1.1,0.8,1.5,1.4
		l-0.2,0.2c-0.7-0.2-1.5-0.2-2.5,0.2c0.8,0.5,1.5,1.2,2,2l-0.2,0.8c-0.2,0.4,0,0.8,0.5,1.1c-0.4,0.3-0.5,1.1-0.4,2.4
		c0.1-0.6,0.3-0.9,0.6-0.9c0,1,0.2,1.9,0.7,2.6c0-0.5,0.1-0.9,0.3-1.2l0.7,1.4l0.1,5.3c0,0.2,0,0.4-0.1,0.5
		c-0.1,0.2-0.2,0.3-0.5,0.4c-0.1,0-0.2,0.1-0.2,0.1c0,0.1,0,0.2,0,0.3l0.1,0.5c0.2,0,0.3,0,0.4,0.1c0,0,0.1,0.1,0.1,0.3
		c0.1,0.3,0.2,0.5,0.6,0.8c0.3,0.2,0.7,0.4,1.1,0.4c0.4,0.1,0.8,0,1.2-0.2c0.4-0.2,0.7-0.6,0.9-1.1c0-0.2,0.1-0.2,0.1-0.2
		c0.1-0.1,0.1-0.1,0.3-0.1c0.2-0.2,0.2-0.5,0.1-0.8l-0.5-0.3c-0.1-0.1-0.1-0.2-0.1-0.4v-2.2c0-0.1,0.1,0,0.1,0c0,0,0.1,0.1,0.2,0.3
		c0.1,0.4,0.3,0.6,0.5,0.7c0-0.4,0.1-0.6,0.3-0.7c0.4,1.7,1.1,3.2,2.2,4.7c-0.1-0.2-0.2-0.5-0.1-0.9c0.4,0.6,0.9,0.9,1.7,1
		c-0.4-0.3-0.5-0.5-0.3-0.5c1.9,0.3,3.7,0.4,5.2,0.2c0,0.1-0.2,0.2-0.5,0.4l2.7-0.1c-0.2-0.1-0.2-0.2-0.1-0.2c0,0,0.1,0,0.2,0
		l0.5,0.2c0.6,0.2,1.4,0.4,2.3,0.5c-0.2-0.2-0.3-0.3-0.3-0.4c0.1-0.1,0.5,0,1.2,0.1c0.8,0.2,1.6,0.2,2.1,0.2
		c-0.2-0.1-0.3-0.2-0.4-0.3c0.1-0.1,0.2-0.1,0.5,0l1.3,0.4c1.5,0.3,2.7,0.4,3.6,0.3c0.1,0,0.3,0.1,0.6,0.3l-0.2-0.5
		c1.4-0.1,2.4,0.2,3,0.8H420L420.4,43.8z M437.5,29.6c-3.7,3.1-7.3,7-10.7,11.8h-6.1C424.9,37,430.5,33.1,437.5,29.6 M501.1,41.5
		h-63c3.7-4.5,8-8,13.1-10.6c5.6-2.9,11.6-4.4,17.9-4.5c6.4-0.1,12.4,1.3,18.2,4.2C492.6,33.1,497.2,36.8,501.1,41.5 M440,33.5
		c2.5-2.4,5.2-4.4,8.2-6c3.1-1.7,6.3-3,9.5-3.8c3.5-1,7.2-1.5,10.9-1.6c3.1-0.1,6.5,0.2,10.1,0.9c3.6,0.7,7,1.8,10.2,3.4
		c3.4,1.6,6.7,3.8,9.7,6.5c2.9,2.6,5.4,5.4,7.6,8.5h-3c-4.3-5.4-9.5-9.6-15.4-12.5c-5.9-2.9-12.1-4.3-18.6-4.2
		c-6.5,0.1-12.6,1.6-18.4,4.5c-5.7,2.9-10.6,7-14.6,12.2h-2.8C434.7,39.1,436.9,36.4,440,33.5 M501.6,29.6
		c6.9,3.4,12.7,7.4,17.2,11.9h-6.4C508.8,36.6,505.3,32.6,501.6,29.6 M487.4,147.1c0.2,0.1,0.3,0.1,0.5,0.1c0.3,0,0.6-0.1,0.8-0.3
		c0.2-0.2,0.3-0.5,0.3-0.8c0-0.3-0.1-0.6-0.3-0.8c-0.2-0.2-0.5-0.3-0.8-0.3c-0.2,0-0.4,0.1-0.5,0.1v-1.5h12.5c-1.6,1.6-3.2,3-5,4.4
		h-7.6L487.4,147.1z M504.8,138.4c-0.4,0.4-0.7,0.9-1.1,1.3c-0.9,1.1-1.9,2.1-2.9,3.1h-13.4l0.1-4.4H504.8z M487.6,137.5l0.1-1.8
		c0.2,0,0.4,0,0.6,0c0.3,0,0.5-0.1,0.8-0.3c0.2-0.2,0.3-0.5,0.3-0.8c0-0.3-0.1-0.6-0.3-0.8c-0.2-0.2-0.5-0.3-0.8-0.3
		c-0.2,0-0.3,0-0.5,0.1l-0.1-0.5h21c-1,1.5-2.1,2.9-3.2,4.3H487.6z M429.7,122.6c0,0.9,0,1.4,0,1.7c0,0.5,0.1,0.9,0.2,1.1
		c0.1,0.3,0.4,0.5,0.7,0.6c0.3,0.1,0.8,0.2,1.4,0.2c2,0,3.7-0.1,5.3-0.3c1.2-0.1,2.8-0.4,4.6-0.8c0.6-0.1,1.3-0.2,2.1-0.4
		c0.6-0.1,1-0.2,1.2-0.2c0.2,0,0.3,0,0.3,0.1c0,0.1,0.1,0.2,0.2,0.3c0.2,0.2,0.8,0.4,1.9,0.4h0.1c1,0,1.7-0.1,1.9-0.4
		c0.1-0.1,0.2-0.2,0.2-0.2c0.1-0.1,0.2-0.1,0.4-0.1c0.2,0,0.6,0.1,1.3,0.2c0.7,0.2,1.7,0.3,3,0.5c1.3,0.2,2.7,0.4,4,0.6
		c1.4,0.2,2.7,0.2,3.9,0.3c1.1,0,1.9,0,2.2-0.1c0.3-0.1,0.5-0.3,0.6-0.6c0.1-0.3,0.2-0.6,0.2-1.1c0-0.2,0-0.8,0-1.7h7.9v1.7
		c0,0.5,0.1,0.9,0.2,1.1c0.2,0.3,0.3,0.5,0.6,0.7c0.2,0.2,1,0.3,2.2,0.3c1.3,0,2.7-0.1,4.2-0.3c1.5-0.2,3.2-0.5,5-0.9
		c0.6-0.1,1.3-0.3,2.1-0.5c0.5-0.1,0.9-0.2,1.2-0.2c0.2,0,0.2,0,0.3,0.1c0,0,0.1,0.1,0.2,0.2c0.2,0.2,0.8,0.4,1.9,0.4h0.1
		c1.1,0,1.7-0.2,1.9-0.4c0.1-0.1,0.1-0.2,0.2-0.2c0,0,0.1-0.1,0.3-0.1c0.2,0,0.6,0.1,1.3,0.2c0.7,0.1,1.7,0.3,3,0.5
		c1.3,0.2,2.7,0.4,4.1,0.6c1.8,0.2,3.1,0.3,3.9,0.4c1.1,0,1.9,0,2.2-0.1c0.2-0.1,0.5-0.3,0.6-0.7c0.2-0.2,0.2-0.6,0.2-1.1v-1.7h5.6
		l-2.1,4.3h-85.9c-1.2-1.9-1.9-3.3-2.2-4.3H429.7z M429.7,117.3l0,1.4c0,0.1,0,0.1-0.1,0.1c-0.2-0.1-0.3-0.1-0.5-0.1
		c-0.3,0-0.5,0.1-0.8,0.3c-0.2,0.2-0.3,0.5-0.3,0.8c0,0.3,0.1,0.5,0.3,0.8c0.2,0.2,0.5,0.3,0.8,0.3c0.2,0,0.3-0.1,0.5-0.1
		c0.1,0,0.1,0,0.1,0.1v0.9h-5.6c-0.7-1.4-1.1-2.9-1.5-4.4H429.7z M429.7,112.1l0,4.3h-7.4c-0.4-1.4-0.8-2.8-1-4.3H429.7z
		 M429.7,106.8v0.4c0,0.1,0,0.1-0.1,0.1c-0.1-0.1-0.3-0.1-0.5-0.1c-0.3,0-0.5,0.1-0.8,0.3c-0.2,0.2-0.3,0.5-0.3,0.8
		c0,0.3,0.1,0.5,0.3,0.8c0.2,0.2,0.5,0.3,0.8,0.3c0.2,0,0.4-0.1,0.5-0.1c0.1,0,0.1,0,0.1,0.1l0,1.8H421c-0.3-1.5-0.5-2.9-0.6-4.3
		H429.7z M445.7,122.4c-0.6,0-1.7,0.1-3.4,0.4c-1.6,0.3-3.1,0.5-4.3,0.6c-1.3,0.1-2.6,0.2-4,0.2c-0.3,0-0.6-0.1-0.8-0.3
		c-0.1-0.2-0.2-0.3-0.2-0.5c0,0,0-0.1,0-0.1v-0.3l0.1-18.6c2.2,0.4,3.7,0.5,4.7,0.4c1-0.1,2.4-0.3,4.2-0.5c1.8-0.3,3.1-0.3,3.8,0
		c0.7,0.3,1.2,0.5,1.5,0.7v18.5C446.9,122.6,446.3,122.4,445.7,122.4 M432.4,123c0,0.4,0,0.7,0.2,0.9c0.2,0.2,0.4,0.3,0.8,0.3
		c1.4,0,2.9-0.1,4.5-0.3c0.7-0.1,2-0.3,3.8-0.6c1.4-0.2,2.4-0.4,3.1-0.4c1.1-0.1,2,0.1,2.7,0.4v0.8c-0.3-0.3-1-0.3-2-0.2
		c-0.5,0.1-1.7,0.3-3.4,0.6c-1.9,0.4-3.4,0.6-4.6,0.8c-1.9,0.2-3.8,0.3-5.5,0.3c-0.8,0-1.3-0.4-1.3-1c0-0.6,0-1.3,0-2
		c-0.1-4.9-0.1-10.5,0-16.8c0.4-0.9,1.1-1.6,2.2-2.1c-0.1,2.2-0.2,5.4-0.3,9.7C432.3,117.1,432.3,120.3,432.4,123 M448.3,122.8
		l0.1-18.5c0,0,0.2-0.1,0.4-0.2c0.3-0.2,0.7-0.3,1-0.5c0.7-0.2,1.3-0.4,1.8-0.4c0.5,0,1.1,0.2,2.1,0.4c1.1,0.3,2.5,0.5,4.3,0.5
		c1.1,0,2.7-0.1,4.6-0.4c0.2,6.2,0.1,12.5-0.3,18.9c0,0.2-0.1,0.4-0.3,0.5c-0.2,0.1-0.6,0.1-1.3,0.1c-1.2-0.1-2.1-0.1-2.7-0.2
		c-1.8-0.1-3.3-0.2-4.4-0.4c-1.7-0.2-2.8-0.3-3.4-0.3C449.4,122.4,448.8,122.5,448.3,122.8 M448.3,123.3c0.8-0.3,1.7-0.5,2.7-0.4
		c1.3,0.1,2.4,0.2,3.1,0.3c1.2,0.2,2.4,0.4,3.7,0.5c1.8,0.2,3.2,0.4,4.3,0.4c0.4,0,0.6-0.1,0.8-0.3c0.2-0.2,0.2-0.5,0.2-0.9
		c0.1-3.6,0.1-6.8,0-9.5c0-1.6-0.1-3.5,0-5.6c0-2.2,0-3.6,0-4c0.5,0.2,1,0.6,1.3,1c0.3,0.3,0.5,0.7,0.7,1.1c0,2.8,0,5.6-0.1,8.4
		c-0.1,3.5-0.1,6.9-0.2,10.4c-0.1,0.7-0.5,1-1.3,1c-1.4,0.1-3.1-0.1-5.2-0.3c-1.9-0.2-3.4-0.5-4.6-0.7c-1.8-0.4-2.9-0.5-3.4-0.6
		c-1.1-0.1-1.7-0.1-2,0.1V123.3z M465.8,111.2l0.1-1.9c0,0,0-0.1,0.1-0.1c0.2,0.1,0.3,0.1,0.5,0.1c0.3,0,0.5-0.1,0.8-0.3
		c0.2-0.2,0.3-0.5,0.3-0.8c0-0.3-0.1-0.5-0.3-0.8c-0.2-0.2-0.5-0.3-0.8-0.3c-0.2,0-0.3,0-0.5,0.1h-0.1c0,0,0,0,0-0.1l0-0.4h7.4v0.4
		c0,0.1,0,0.1,0,0.1h-0.1c-0.2-0.1-0.3-0.1-0.5-0.1c-0.3,0-0.5,0.1-0.8,0.3c-0.2,0.2-0.3,0.5-0.3,0.8c0,0.3,0.1,0.5,0.3,0.8
		c0.2,0.2,0.5,0.3,0.8,0.3c0.2,0,0.3-0.1,0.5-0.1c0.1,0,0.1,0,0.1,0.1v1.9H465.8z M465.6,116.4l0.1-4.4h7.5v4.4H465.6z M471.9,120.6
		c0.2,0.2,0.5,0.3,0.8,0.3c0.2,0,0.3,0,0.5-0.1c0.1,0,0.1,0,0.1,0.1v0.9h-7.8v-0.9c0,0,0.1-0.1,0.1-0.1c0.2,0.1,0.3,0.1,0.5,0.1
		c0.3,0,0.6-0.1,0.8-0.3c0.2-0.2,0.3-0.5,0.3-0.8c0-0.3-0.1-0.5-0.3-0.8c-0.2-0.2-0.5-0.3-0.8-0.3c-0.2,0-0.3,0-0.5,0.1
		c-0.1,0-0.1,0-0.1-0.1l0.1-1.4h7.7l0,1.4c0,0.1,0,0.1-0.1,0.1c-0.2-0.1-0.3-0.1-0.5-0.1c-0.3,0-0.5,0.1-0.8,0.3
		c-0.2,0.2-0.3,0.5-0.3,0.8C471.6,120.1,471.7,120.3,471.9,120.6 M489.3,122.4c-0.6,0-1.8,0.1-3.4,0.3c-1.6,0.2-3.1,0.4-4.4,0.5
		c-1.2,0.2-2.3,0.3-3.2,0.3c-0.9,0-1.4-0.1-1.5-0.2c-0.2-0.2-0.2-0.3-0.2-0.5c0-0.1,0-0.3,0-0.5l0.1-18.6c2.2,0.4,3.7,0.5,4.7,0.4
		c1-0.1,2.4-0.3,4.2-0.6c1.8-0.3,3.1-0.3,3.8,0c0.7,0.3,1.2,0.5,1.5,0.7v18.5C490.5,122.6,489.9,122.4,489.3,122.4 M474.2,122.6
		c-0.1-4.9-0.1-10.5,0-16.8c0.4-0.9,1.1-1.6,2.1-2.1c-0.1,2.2-0.2,5.4-0.3,9.7c-0.1,3.7-0.1,7,0,9.7c0,0.4,0,0.7,0.2,0.9
		c0.2,0.2,0.4,0.3,0.8,0.3c1.4,0,2.9-0.1,4.5-0.3c0.7-0.1,2-0.3,3.8-0.6c1.4-0.2,2.4-0.4,3.1-0.4c1.1-0.1,2,0.1,2.7,0.4v0.8
		c-0.3-0.3-1-0.4-2-0.2c-0.5,0.1-1.7,0.2-3.4,0.6c-1.9,0.4-3.6,0.7-5.3,1c-1.7,0.3-3.1,0.5-4.4,0.4c-1.2-0.1-1.8-0.5-1.8-1.3
		C474.2,123.9,474.2,123.3,474.2,122.6 M491.9,122.8l0.1-18.4c0,0,0.1-0.1,0.4-0.2c0.3-0.2,0.7-0.3,1-0.5c0.7-0.2,1.3-0.4,1.8-0.4
		c0.5,0,1.1,0.1,2.1,0.4c1.1,0.3,2.5,0.5,4.3,0.5c1.1,0,2.7-0.1,4.6-0.4c0.2,6.2,0.2,11,0,14.3c-0.1,1-0.1,2.1-0.2,3.5
		c0,0.7-0.1,1.1-0.1,1.2c-0.2,0.2-0.4,0.4-0.7,0.5c-0.3,0.1-0.6,0.1-0.9,0.1l-7.3-0.8c-1.7-0.2-2.8-0.3-3.4-0.2
		C493,122.4,492.4,122.5,491.9,122.8 M491.9,123.3c0.8-0.5,1.7-0.7,2.9-0.6c1.2,0.1,2.3,0.3,3.3,0.5c1,0.2,2.3,0.4,3.7,0.6
		c1.5,0.2,2.6,0.3,3.4,0.3c0.7,0,1.1-0.2,1.3-0.3c0.2-0.2,0.2-0.5,0.2-0.9c0.1-3.5,0.1-6.7,0-9.5c0-1.7-0.1-3.6,0-5.6
		c0-2.2,0-3.6,0-4c0.5,0.2,1,0.6,1.3,1c0.3,0.3,0.5,0.7,0.7,1.1c0,2.9-0.1,5.7-0.1,8.4c-0.1,3.7-0.2,7.2-0.2,10.4
		c0,0.7-0.5,1.1-1.3,1.1c-1.2,0-2.9-0.1-5.2-0.4c-0.8-0.1-1.6-0.2-2.6-0.5c-1-0.2-1.6-0.4-2-0.5c-2.1-0.4-3.2-0.6-3.4-0.7
		c-0.8-0.1-1.5,0.1-2,0.4V123.3z M509.4,111.2l0.1-1.8c0.2,0,0.4,0.1,0.5,0.1c0.3,0,0.5-0.1,0.8-0.3c0.2-0.2,0.3-0.5,0.3-0.8
		c0-0.3-0.1-0.5-0.3-0.8c-0.2-0.2-0.5-0.3-0.8-0.3c-0.2,0-0.3,0-0.5,0.1l-0.1-0.5h9.2l-0.7,4.3H509.4z M516.9,116.4h-7.6l0.1-4.4
		h8.6 M510.5,119c-0.2-0.2-0.5-0.3-0.8-0.3c-0.2,0-0.4,0.1-0.5,0.2v-1.5h7.4c-0.4,1.5-0.9,3-1.5,4.4h-6l0-1c0.1,0.1,0.3,0.1,0.5,0.1
		c0.3,0,0.6-0.1,0.8-0.3c0.2-0.2,0.3-0.5,0.3-0.8C510.8,119.5,510.7,119.3,510.5,119 M489,51.8c-0.2-0.2-0.3-0.3-0.5-0.3h-0.2
		c0,0-0.1,0-0.1-0.1c0-0.1,0.1-0.1,0.2-0.2c0.5-0.2,1-0.1,1.3,0.1c0.2,0.1,0.6,0.5,1,1c-0.3,0.3-0.7,0.5-1.2,0.5
		c-0.2,0-0.3-0.1-0.3-0.3C489.4,52.3,489.2,52,489,51.8 M483.7,63c-3.7,0-6.9-0.3-9.6-0.9c-1.5-0.4-2.9-1-4.2-1.9
		c-1.1-0.8-1.7-1.5-1.9-2.1c-0.2-0.7-0.2-1.1,0-1.2c0.2-0.1,0.5,0,1,0.5c1.5,1.7,3.7,2.7,6.5,3c3.8,0.4,6.5,1.1,8.2,2
		c0.3,0.1,0.4,0.3,0.5,0.4C484.1,62.9,484,63,483.7,63 M482.4,65.3c0-0.2,0.1-0.3,0.2-0.4c0,0.2,0.1,0.3,0.4,0.5L482.4,65.3z
		 M519.1,101.8l-0.2,4h-9.2c-0.2-0.6-0.5-1.2-1-1.8c-0.5-0.6-1-1-1.5-1.1c0,0-0.3,0-0.8,0c-2.4,0.3-3.8,0.5-4.2,0.6
		c-0.3,0.1-0.9,0.1-1.7,0c-0.8-0.1-1.7-0.2-2.6-0.4c-1-0.2-1.6-0.3-1.8-0.3c-1-0.1-1.8,0.1-2.6,0.4c-0.4,0.2-0.7,0.3-0.9,0.4
		c-0.3,0.2-0.6,0.2-0.9,0.3c-0.2,0-0.5,0-0.7-0.1c-0.3-0.2-0.5-0.3-0.8-0.5c-0.8-0.4-2.1-0.4-4-0.1c-1.8,0.3-3.2,0.5-4,0.5
		c-0.8,0-1.7-0.2-2.6-0.3c-2.2-0.4-3.4-0.5-3.7-0.3c-1.5,1.2-2.4,2.1-2.5,2.8h-7.3c-0.1-0.4-0.3-0.8-0.6-1.2
		c-0.1-0.2-0.3-0.4-0.4-0.6c-0.5-0.6-1-1-1.5-1.1c0,0-0.3,0-0.8,0c-2.4,0.3-3.7,0.5-4,0.5c-0.3,0-0.8,0-1.5,0c-1,0-2-0.1-2.9-0.3
		c-1.1-0.2-1.6-0.3-1.8-0.3c-1-0.1-1.9,0.1-2.6,0.4c-0.4,0.2-0.7,0.3-0.9,0.4c-0.3,0.2-0.6,0.2-0.9,0.3c-0.2,0-0.5,0-0.7-0.1
		c-0.3-0.2-0.5-0.3-0.8-0.5c-0.8-0.4-2.1-0.5-3.9-0.2c-1.8,0.2-3.2,0.4-4.4,0.4c-0.6,0-1.4,0-2.4-0.2c-2.3-0.4-3.6-0.5-3.8-0.3
		c-1.5,1.1-2.3,2.1-2.3,2.9l-9.4-0.1c-0.1-1-0.2-1.7-0.2-2.1c-0.1-0.8-0.1-1.4,0-1.9H519.1z M451.5,138.4v4.4h-13.3
		c-0.2-0.2-0.4-0.4-0.6-0.6l-2.1-2.2l-0.1-0.1c-0.4-0.5-0.8-1-1.2-1.5H451.5z M450.1,135.3c0.2,0.2,0.5,0.3,0.8,0.3
		c0.2,0,0.3,0,0.5-0.1c0.1,0,0.1,0,0.1,0.1v1.9h-18l-3.3-4.4h21.3v0.4c0,0,0,0.1,0,0.1h-0.1c-0.2-0.1-0.3-0.1-0.5-0.1
		c-0.3,0-0.5,0.1-0.8,0.3c-0.2,0.2-0.3,0.5-0.3,0.8C449.8,134.9,450,135.1,450.1,135.3 M450.1,146.9c0.2,0.2,0.5,0.3,0.8,0.3
		c0.2,0,0.3,0,0.5-0.1c0.1,0,0.1,0,0.1,0.1v0.9h-7.4l-4.9-4.4h12.4l0,1.4c0,0.1-0.1,0.1-0.2,0.1c-0.2-0.1-0.3-0.1-0.5-0.1
		c-0.3,0-0.5,0.1-0.8,0.3c-0.2,0.2-0.3,0.5-0.3,0.8C449.8,146.4,450,146.6,450.1,146.9 M454.7,149.2c0-0.1,0-0.3,0-0.5l0.1-18.6
		c2,0.3,3.5,0.4,4.7,0.3c0.3,0,0.8-0.2,1.6-0.3c0.8-0.2,1.6-0.4,2.3-0.5c0.8-0.1,1.6-0.1,2.5,0.1c0.3,0,0.9,0.2,1.7,0.4
		c0.8,0.2,1.3,0.4,1.6,0.6v18.5c-0.4-0.2-1-0.3-1.8-0.3c-0.6,0-1.7,0.1-3.4,0.3c-1.6,0.2-3.1,0.4-4.3,0.5c-1.2,0.2-2.3,0.3-3.3,0.3
		c-0.9,0-1.4-0.1-1.5-0.2C454.7,149.4,454.7,149.3,454.7,149.2 M452.4,150.4c0-0.5,0-1,0-1.4c-0.1-4.9-0.1-10.5,0-16.8
		c0.4-1,1.1-1.7,2.1-2.1c0,2.2-0.2,5.4-0.3,9.7c-0.1,3.7-0.1,7,0,9.7c0,0.4,0,0.7,0.2,0.9c0.2,0.2,0.7,0.3,1.5,0.3
		c0.8,0,2.1-0.1,3.6-0.3c0.7-0.1,2-0.3,3.8-0.6c1.4-0.2,2.4-0.4,3.1-0.4c1.1-0.1,2,0.1,2.7,0.4v0.8c-0.5-0.4-1.1-0.5-1.8-0.5
		c-0.7,0.1-2,0.4-3.7,0.8c-1.8,0.4-3.5,0.8-5.1,1.1c-1.6,0.3-3.1,0.5-4.4,0.4c-0.5-0.1-0.8-0.1-1-0.1c-0.3,0-0.5-0.1-0.6-0.2
		c-0.2-0.2-0.2-0.5-0.2-1V150.4z M486.9,130.4c-0.4-0.5-0.7-0.8-1.1-1c-0.2-0.1-0.3-0.1-0.5-0.2h-0.8l-1.5,0.2
		c-1.5,0.2-2.3,0.3-2.5,0.3c-0.2,0-0.8,0-1.6-0.1c-0.9,0-1.6-0.1-2.1-0.2c-0.6-0.1-0.9-0.2-1.1-0.2c-0.2,0-0.6-0.1-1.2-0.1
		c-0.6-0.1-1.2,0-1.8,0.1c-0.5,0.1-1,0.2-1.2,0.2c-0.3,0.1-0.6,0.1-0.9,0.2c-0.3,0.1-0.6,0.1-0.8,0.1c-0.4,0.1-0.6,0.1-0.6,0
		c-0.2-0.1-0.8-0.3-2-0.5c-1.1-0.2-1.8-0.3-2.2-0.3c-1.4,0.1-2.1,0.1-2.1,0.1c-0.8,0.1-1.6,0.2-2.3,0.3c-1.3,0.1-2.3,0.2-2.9,0
		c-0.5-0.1-1-0.2-1.5-0.3c-0.5-0.1-1-0.2-1.6-0.2c-0.6,0-1,0.1-1.4,0.5c-0.4,0.3-0.7,0.7-1.1,1.3c-0.4,0.5-0.6,0.9-0.7,1.3h-21.8
		l-2.5-4.3H512c-0.8,1.5-1.7,2.9-2.6,4.3h-21.5C487.7,131.6,487.3,131,486.9,130.4 M470.1,130.6c0,0,0.2-0.1,0.7-0.3
		c0.5-0.2,0.9-0.3,1.1-0.3c0.5-0.1,1.1-0.1,1.5-0.1c0.2,0,0.4,0,0.9,0c0.4,0,0.9,0.1,1.3,0.1c1.7,0.3,3.1,0.4,4.1,0.5
		c0.7,0,2.2-0.1,4.6-0.5c0,2.8,0,6.7-0.1,11.9c-0.1,4.8-0.1,7.2-0.2,7.2c0,0.1-0.1,0.2-0.1,0.5c-0.1,0.2-0.2,0.3-0.4,0.4
		c-0.2,0.1-0.5,0.1-1,0c-2.5-0.1-5-0.4-7.3-0.8c-1.8-0.3-3-0.4-3.4-0.4c-0.6,0-1.2,0.1-1.8,0.4L470.1,130.6z M470.1,149.6
		c0.4-0.2,0.8-0.4,1.3-0.4c0.4,0,0.9,0,1.6,0.1c1.2,0.1,2.3,0.3,3.3,0.5c1,0.2,2.3,0.4,3.7,0.6c1.2,0.2,2.3,0.2,3.3,0.2
		c0.7,0,1.1-0.2,1.3-0.5c0.2-0.2,0.2-0.5,0.2-0.9c0.1-3.5,0.1-6.6,0-9.5c0-1.8-0.1-3.7,0-5.6c0-2.2,0-3.6,0-4c0.5,0.2,1,0.6,1.3,1
		c0.3,0.3,0.5,0.7,0.7,1.1c0,2.7,0,5.5-0.1,8.4c-0.1,3.6-0.1,7-0.2,10.4c0,0.9-0.5,1.3-1.6,1.3c-1-0.1-2.2-0.2-3.7-0.5
		c-1.4-0.2-2.7-0.5-3.9-0.7c-0.9-0.2-1.6-0.3-2-0.3c-2.1-0.4-3.2-0.6-3.4-0.7c-0.9-0.1-1.5,0-2,0.4V149.6z M520.1,111.6
		c0-0.2,0.1-0.3,0.1-0.5c0.6-3.2,0.8-6.2,0.8-9.1l0-23.6c3.2,2.6,5.9,6.2,8.2,10.7c2.3,4.6,3.7,8.8,4.2,12.7
		c0.5,3.9,0.5,7.8-0.1,11.6c-0.6,3.9-1.6,7.5-3.1,10.8c-1.5,3.4-3.6,6.7-6.4,10c-2.8,3.3-6,6-9.6,8c-3.6,2.1-6.5,3.4-8.9,4.1
		c-2.3,0.7-4.5,1.1-6.6,1.3c2.2-2,4.4-4.2,6.3-6.4c5-5.7,8.9-12,11.8-18.9c0.9-2.1,1.7-4.4,2.3-6.7
		C519.5,114.3,519.8,112.9,520.1,111.6 M527.2,51c-2.5-0.8-4.6-1.3-6.3-1.4v-6C523.6,46.4,525.7,48.9,527.2,51 M530.6,56.9l-3.4,1.9
		c-1.9-0.8-4-1.5-6.3-2.1v-3C524.8,54.8,528.1,55.8,530.6,56.9 M520.9,75.3l0-16.6c1.8,0.2,3.5,0.7,5,1.5
		C525.2,64.4,523.5,69.4,520.9,75.3 M525.8,75.8l-3.2,0.2c2.1-5.2,3.8-10.5,5.1-16l3.1-1.7C529.7,64,528.1,69.8,525.8,75.8
		 M534.9,86.8c-2-4-4.4-7.5-7.4-10.6c2.7-6.6,4.5-13.3,5.4-19.9c-2.4-1.3-4.7-2.2-7-2.8c-2.2-0.6-3.9-1-5.1-1.2v-0.9
		c3.9,0.7,7.3,1.7,10.2,3c-2.8-4.7-6.2-9.1-10.2-13c-2-2-4.1-3.8-6.5-5.6c-7.1-5.5-15.1-9.6-24.1-12.5c7.9,4.3,14.5,10.4,19.8,18.1
		h-2c-0.2-0.3-0.4-0.5-0.5-0.8c-0.2-0.4-0.5-0.8-0.7-1.1c-0.3-0.4-0.5-0.8-0.8-1.1c-0.3-0.4-0.6-0.8-1-1.3c-0.3-0.5-0.7-0.9-1.2-1.4
		c-0.4-0.5-0.9-1-1.4-1.5c-0.7-0.7-1.4-1.3-2.1-2c-3-2.7-6.4-5-10.2-7.1c-3.3-1.7-6.7-2.9-10.4-3.7c-1.8-0.4-3.4-0.6-4.7-0.8
		c-1.6-0.2-3.4-0.3-5.2-0.2c-1.9,0-4,0.2-6,0.4c-2.1,0.2-4,0.6-5.7,1c-3.5,0.9-6.9,2.2-10.1,4c-7.4,4.1-13.1,9.3-16.9,15.7H429
		c5.2-7.7,11.8-13.7,19.7-18c-8.9,2.9-17,7-24.1,12.5c-6.9,5.3-12.5,11.5-16.7,18.6c3-1.4,6.4-2.4,10.4-3.1l0,0.7
		c-1,0.2-2.6,0.6-4.8,1.2c-2.3,0.6-4.6,1.5-6.9,2.8c0.9,6.6,2.7,13.3,5.4,19.9c-3,3.1-5.5,6.6-7.4,10.6c-1.8,3.8-3.2,7.8-4.1,12
		c-0.9,4.2-1.1,8.5-0.6,12.9c0.4,4.4,1.5,8.7,3.1,13c1.7,4.3,3.8,8.2,6.5,11.7c2.6,3.5,5.9,6.6,9.8,9.2c3.9,2.6,8.3,4.7,13.2,6.2
		c4.9,1.5,10.2,2.1,16,2c0.3,0.2,0.7,0.5,1,0.7h-0.3c-9.5,1.1-18.5-0.6-27-5.2c13,10.8,27.9,16.6,44.9,17.4
		c-2.7-1.6-5.6-4.2-8.7-7.9c0.7,0.2,1.5,0.5,2.2,0.7c0,0,0.1,0,0.1,0c2.1,2.9,4.8,5.3,8.4,7.3c0.2,0.1,0.4,0.2,0.5,0.3
		c0.2-0.1,0.4-0.2,0.5-0.3c3.4-1.8,6.2-4.2,8.4-7.3c0.8-0.2,1.6-0.5,2.3-0.7c-3.2,3.9-6.1,6.5-8.7,7.9c16.9-0.7,31.9-6.5,44.9-17.5
		c-8.8,4.7-17.8,6.5-27,5.3c0.3-0.2,0.6-0.4,0.9-0.6c5.9,0.2,11.3-0.5,16.2-2c4.9-1.5,9.3-3.5,13.2-6.2c3.9-2.6,7.1-5.7,9.8-9.2
		c2.6-3.5,4.8-7.4,6.5-11.7c1.7-4.3,2.7-8.6,3.1-13c0.5-4.4,0.2-8.7-0.6-12.9C538.1,94.7,536.8,90.6,534.9,86.8 M545.7,69.2l0.5,0.4
		C546.1,69.4,545.9,69.2,545.7,69.2 M541.6,96.7c-2.8-9-6.4-15.9-10.8-20.5c1.7-5.1,3-9.5,3.8-13.3
		C539.5,73.2,541.8,84.4,541.6,96.7 M541.7,80.3c-0.6-3.9-1.7-7.8-3.2-11.8c-1.2-3.2-2.8-6.6-4.8-10.2c-0.4,2.7-1.1,5.7-1.9,8.9
		c-0.7,2.5-1.7,5.6-2.8,9.1c3.8,4.8,6.8,9.8,8.9,14.8c2.1,5.2,3.3,10.6,3.5,16.4c1.1-4.7,1.6-9.5,1.5-14.4
		C542.8,89.2,542.4,84.9,541.7,80.3 M479.8,133.2c1.2-0.1,1.9,0.2,1.9,0.7c0.1,0.4,0,0.6-0.2,0.8c-0.2,0.2-0.5,0.3-0.9,0.4
		c-0.4,0.2-0.7,0.1-0.8-0.2V133.2z M477.5,138.7l0.1,0.4l2.1-0.3l0.1-2.8c0.1-0.1,0.3-0.1,0.5-0.1c0.2,0,0.3,0.1,0.4,0.3
		c0.1,0.1,0.2,0.5,0.5,1.2c0.2,0.2,0.3,0.4,0.4,0.7c0.1,0.2,0.2,0.3,0.3,0.4c0.2,0.2,0.4,0.3,0.4,0.3c0.6,0.1,1.1,0.1,1.8,0.1
		c-0.5-0.3-1-0.8-1.3-1.5c-0.1-0.4-0.2-0.7-0.3-0.9c-0.2-0.4-0.3-0.7-0.5-0.9c0.5-0.6,0.8-1.2,1-1.7c0.1-0.5-0.1-0.9-0.4-1.3
		c-0.8-0.7-2.5-0.8-5-0.4v0.5c0.5,0,0.8,0.3,0.8,0.9l-0.1,4.2C478.2,138.2,478,138.5,477.5,138.7 M499.1,112.3l0.5,0.6l2.1-0.3
		c0-0.1,0-0.3,0.1-0.4c0.1-0.2,0.1-0.3,0.1-0.4l-0.3-0.1c-0.2,0-0.4-0.2-0.4-0.3l0.1-4.7c0-0.4,0.2-0.6,0.6-0.8v-0.5l-2.5,0.1v0.5
		c0.3,0,0.5,0.2,0.5,0.5v4.8C499.9,112,499.6,112.3,499.1,112.3 M476.9,112.4l0.5,0.6l2.2-0.3c-0.1-0.1,0-0.3,0-0.4
		c0.1-0.2,0.2-0.3,0.2-0.4l-0.4,0c-0.2-0.1-0.3-0.2-0.4-0.4l0.1-4.7c0-0.4,0.2-0.7,0.6-0.8v-0.5l-2.5,0.1v0.5c0.3,0,0.5,0.2,0.5,0.5
		v4.7C477.7,112.1,477.5,112.4,476.9,112.4 M497.9,117h-1.1l0.5,0.9l-0.5,0.9h1l0.5,1l0.5-1l1.1,0.1l-0.5-1l0.5-0.9h-1.1l-0.5-1.1
		L497.9,117z M486.6,106.3c-0.3,0.4-0.4,0.9-0.4,1.4c0,0.6,0.4,1,1.2,1.4c0.7,0.3,1.3,0.7,1.5,1.2c0.3,0.5,0.3,0.9,0.1,1.2
		c-0.6,0.4-1.2,0.4-1.8-0.1l-0.1-0.5l-0.5-0.5l-0.5,2.3l1.3,0.2c-0.1-0.1-0.1-0.2,0-0.3c1.8,0.4,2.8,0.1,3.1-1.1
		c0.1-0.8,0.1-1.3,0-1.8c-0.1-0.4-0.3-0.6-0.6-0.8c-0.2-0.1-0.5-0.2-0.9-0.3c-0.5-0.2-0.9-0.2-1.1-0.4c-0.2-0.2-0.4-0.5-0.5-0.8
		c-0.1-0.3,0-0.6,0.1-0.8c0.1-0.2,0.3-0.4,0.6-0.4c0.3-0.1,0.6,0.1,0.9,0.4l-0.2,0.6h0.8l0.5-1.8l-0.8,0.1l-0.2,0.2
		c-0.6-0.2-1.1-0.2-1.5-0.2C487.2,105.7,486.8,105.9,486.6,106.3 M482.4,114.6c-0.1-0.3-0.1-0.6,0-0.7h-5.6c0.1,0.1,0.1,0.4,0,0.8
		c-0.1,0.4,0,0.6,0.1,0.8h0.6c0-0.3,0.1-0.5,0.3-0.7c0.1-0.1,0.1-0.1,0.2-0.2l0.1-0.1c0.1,0,0.2,0,0.3,0c0.2,0,0.4,0.1,0.5,0.1
		l0.1,5.6c-0.1,0.5-0.4,0.8-1,0.9v0.3h2.9c0-0.1,0-0.3,0.1-0.5c0.1-0.2,0.1-0.4,0.1-0.5c-0.3-0.1-0.6-0.3-0.7-0.5v-5.2
		c0.5-0.1,0.9-0.1,1.1,0c0.3,0.1,0.5,0.3,0.5,0.7l0.5,0.1C482.6,115.3,482.5,115,482.4,114.6 M480.7,106.6l1.9,6l1.1,0.3l0.2-0.3
		l-0.5-0.5l2.2-5.6c0.2-0.2,0.4-0.4,0.5-0.5c0.2-0.1,0.4-0.2,0.6-0.3l0.1-0.3l-2.1,0l0.3,0.4l-1.7,4.2l-1.4-4.5h-2.1v0.5
		C480.3,106.1,480.6,106.3,480.7,106.6 M494.1,106.3c0.1,0,0.2,0,0.4,0c0.2,0,0.4,0.1,0.5,0.1l0.1,5.6c-0.1,0.5-0.4,0.8-1,0.9v0.3
		h2.9c0-0.1,0-0.3,0.1-0.5c0.1-0.2,0.1-0.3,0.1-0.4c-0.3-0.1-0.6-0.3-0.7-0.5v-5.3c0.6-0.1,1-0.1,1.3,0c0.3,0.1,0.5,0.4,0.5,0.7
		l0.5,0.1c0-0.2,0-0.5-0.1-0.9c-0.1-0.3-0.1-0.6,0-0.8h-5.9c0.1,0.2,0.1,0.4,0,0.8c-0.1,0.4,0,0.7,0.1,0.9h0.6
		c0-0.3,0.1-0.5,0.3-0.7C494,106.4,494.1,106.3,494.1,106.3 M457.3,112.5l0.5,0.6l2.1-0.3c0-0.1,0-0.3,0.1-0.4
		c0.1-0.2,0.1-0.3,0.1-0.3l-0.4,0c-0.2-0.1-0.3-0.2-0.3-0.4l0.1-4.7c0-0.4,0.2-0.6,0.6-0.8v-0.4l-2.5,0.1v0.5c0.3,0,0.5,0.2,0.5,0.5
		v4.8C458.1,112.2,457.8,112.5,457.3,112.5 M455.4,139.2l0.3,0.3l4.2-0.2l0.8-2.4c-0.7,1.1-1.3,1.7-1.8,2c-0.3,0.1-0.5,0.1-0.8,0
		l-0.6-0.5l0.1-5.1c0-0.4,0.2-0.6,0.5-0.7l0.2-0.5l-2.7,0.4l0.2,0.6c0.2,0,0.3,0,0.4,0.2l-0.1,5C456.1,138.6,455.9,139,455.4,139.2
		 M461,133.3v4.7c0,0.5-0.3,0.8-0.8,0.8l0.5,0.6l2.1-0.3c0-0.1,0-0.3,0.1-0.4c0.1-0.2,0.1-0.3,0.1-0.4l-0.4,0
		c-0.2-0.1-0.3-0.2-0.4-0.4l0.1-4.7c0-0.4,0.2-0.7,0.6-0.8v-0.5l-2.5,0.1v0.5C460.8,132.8,461,133,461,133.3 M465,133.4l1.3-0.1
		c0.4,0.2,0.6,0.4,0.7,0.6c0.1,0.2,0.1,0.4,0,0.6c-0.3,0.4-0.8,0.6-1.7,0.7C465.1,135.1,465,134.5,465,133.4 M467.6,136.9
		c0.2,0.7-0.1,1.1-0.6,1.3c-0.7,0.5-1.3,0.4-1.8-0.2l-0.1-1.9C466,136,466.9,136.3,467.6,136.9 M467.5,139.3
		c0.4-0.1,0.7-0.4,0.9-0.7c0.2-0.3,0.3-0.7,0.3-1.1c0-0.4-0.1-0.8-0.3-1.2c-0.2-0.4-0.5-0.7-0.9-0.8c1.4-1.3,1.3-2.4-0.3-3.2
		l-3.7,0.2c0.1,0.2,0.1,0.4,0.1,0.6h0.2c0.3,0,0.4,0.1,0.4,0.4l-0.2,4.7c-0.1,0.4-0.2,0.8-0.6,1l0.2,0.3H467.5z M450.7,119.9
		l-0.1-0.5l-0.6-0.4l-0.6,2.3l1.5,0.2c-0.1-0.1-0.1-0.2,0-0.3c2.1,0.4,3.3,0.1,3.7-1c0.2-0.8,0.2-1.4,0-1.8
		c-0.1-0.4-0.3-0.6-0.6-0.8c-0.2-0.1-0.6-0.2-1.1-0.3c-0.6-0.1-1-0.2-1.3-0.4c-0.3-0.2-0.5-0.5-0.5-0.8c-0.1-0.3,0-0.6,0.2-0.8
		c0.2-0.2,0.4-0.4,0.7-0.4c0.3,0,0.7,0.1,1.1,0.4l-0.2,0.6h0.9l0.5-1.8l-1,0.1l-0.2,0.2c-0.7-0.1-1.3-0.2-1.8-0.2
		c-0.5,0-0.8,0.2-1.2,0.6c-0.3,0.4-0.5,0.8-0.4,1.5c0.1,0.6,0.5,1,1.4,1.3c0.9,0.3,1.5,0.7,1.8,1.2c0.3,0.5,0.3,0.9,0.1,1.2
		C452.1,120.4,451.4,120.3,450.7,119.9 M456.8,118.2l-0.5,0.9h1l0.5,1l0.5-1l1.1,0.1l-0.5-1l0.5-0.9h-1.1l-0.5-1.1l-0.5,1.1h-1.1
		L456.8,118.2z M452.2,106.6c1.2-0.1,1.8,0.2,1.9,0.7c0,0.3,0,0.6-0.2,0.8c-0.2,0.2-0.5,0.3-0.9,0.4c-0.4,0.1-0.7,0.1-0.8-0.2V106.6
		z M449.9,112.2l0.1,0.3l2.1-0.2l0.1-2.8c0.1-0.1,0.2-0.1,0.4-0.1c0.2,0.1,0.3,0.1,0.4,0.3c0.1,0.1,0.2,0.5,0.6,1.2
		c0.1,0.2,0.3,0.4,0.4,0.7c0.1,0.2,0.2,0.3,0.3,0.4c0.2,0.2,0.4,0.3,0.5,0.3c0.5,0.1,1.1,0.1,1.7,0.1c-0.5-0.3-0.9-0.8-1.2-1.6
		c-0.2-0.4-0.3-0.7-0.4-0.9c-0.2-0.4-0.3-0.7-0.5-0.9c0.5-0.6,0.8-1.2,1-1.7c0.1-0.5-0.1-0.9-0.4-1.2c-0.8-0.7-2.5-0.8-5-0.4v0.5
		c0.5,0,0.8,0.3,0.8,0.9l-0.1,4.2C450.6,111.6,450.4,111.9,449.9,112.2 M466.2,143.1c0,0.2-0.1,0.4-0.3,0.5
		c-0.3,0.1-0.6,0.1-0.9,0.1c-0.1,0-0.3-0.1-0.4-0.3c0-0.7,0.1-1.3,0.4-2c0.5-0.2,0.8-0.2,1,0.2C466.2,142.1,466.3,142.6,466.2,143.1
		 M467.8,146.5c-0.4-1.3-0.8-2.8-1-4.5c0-0.7,0.4-1,1.1-1l0.4-0.8l-5.9,0.2c0,0.3,0.1,0.5,0.2,0.6c0.1,0.1,0.3,0.1,0.5,0.1
		c0.2,0,0.3,0.1,0.4,0.2c0.1,0.2,0.1,0.3,0.1,0.5l-1.2,4.5c-0.1,0.5-0.4,0.8-0.8,1l0.2,0.4l1.9-0.1l0.5-2.1c0.2-1,0.9-1.3,2.3-1.1
		l1,3.4l1.3-0.2l0.2-0.6C468.3,147.1,468,146.9,467.8,146.5 M484.9,120.3L484.9,120.3 M484.9,120.3c-0.1,0.4-0.4,0.6-0.7,0.8
		l0.1,0.1 M469.2,150.4v-0.8 M470.2,163.4l0.1-2.5 M469,165.5v-1.4 M470.1,165.5l0-1.3 M469,163.4l0-2.5 M444.1,148.1l-4.9-4.4
		 M470.1,130.6l0,18.5 M433.5,137.5l-3.3-4.4 M554.5,68.9c-0.2-0.3-0.3-0.4-0.5-0.3c-0.2,0.1-2-0.1-5.3-0.3
		c-1.7-0.1-3.3-0.2-4.9-0.4c-0.5-0.3-0.9-0.6-1.3-1c-0.3-0.1-0.5,0.1-0.5,0.4c0.1,0.6,0.2,1.1,0.4,1.7v0c0.1,0.1,0.1,0.2,0.1,0.3
		c0.1,0.5,0.4,0.9,0.6,1.4c0.2,0.1,0.3,0.1,0.5,0.1c0.1-0.1,0.2-0.3,0.2-0.7v0c0-0.2,0-0.4,0.1-0.5c0.1-0.2,0.2-0.2,0.3-0.3
		c0,0,0.1-0.1,0.1-0.1c0.3-0.2,0.8-0.2,1.5,0l0.5,0.4c0.4,1,0.8,2.2,1.2,3.8c-0.5,0.5-1,0.9-1.7,1.2c-0.2,0.1-0.3,0-0.4-0.1
		c-0.2-0.3-0.4-0.5-0.5-0.6c-0.3-0.2-0.5-0.2-0.7,0.3c0.2,1.4,0.6,2.7,1.3,3.9c0.2,0.2,0.3,0.2,0.5,0.2c0.2,0,0.3-0.2,0.4-0.4
		c-0.1-0.3-0.1-0.5,0-0.5c0-0.2,0.2-0.5,0.4-0.8c1.1-1,2.7-2.4,4.8-4.2c2.1-1.8,3.2-2.7,3.2-3C554.7,69.4,554.6,69.1,554.5,68.9
		 M551.7,69.9l-3.4,2.7l-1-3.3l4.3,0.3C551.8,69.7,551.8,69.8,551.7,69.9 M521.7,24.1c0-0.1-0.1-0.2-0.1-0.2l-0.3-0.6
		c-0.1-0.4,0.1-0.5,0.6-0.5c0.5,0.3,1,0.6,1.4,0.9c0.5,0.4,1,0.8,1.4,1.2c0.1,0.2,0.2,0.4,0.1,0.6c-0.1,0.1-0.2,0.2-0.4,0.2
		c-0.2,0-0.4,0-0.7,0c-0.2,0-0.4,0.1-0.5,0.2c-1.5,1.8-3.2,4-5,6.5c-0.1,0.2-0.2,0.3-0.2,0.3c0,0.1,0,0.2,0.1,0.3
		c0.3,0.4,0.4,0.6,0.2,0.8c-0.1,0.2-0.4,0.2-0.8,0.1c-1-0.6-1.9-1.3-2.7-2.2c0-0.2,0-0.3,0.1-0.5c0.1-0.1,0.2-0.2,0.5-0.2l0.6,0.1
		c0.2,0,0.3-0.1,0.4-0.2c1.8-2,3.5-4.2,5.1-6.6C521.7,24.2,521.7,24.1,521.7,24.1 M516,19.1L516,19.1c0,0.2-0.1,0.2-0.2,0.3
		c-0.1,0-0.3,0-0.5-0.1c-0.2,0-0.4,0-0.4,0.1c-1.4,1.8-2.8,4.1-4.3,6.9c-0.2,0.2-0.2,0.5,0,0.8c0.1,0.2,0.8,0.7,2.1,1.4
		c0.4,0.1,0.8,0.1,1.1,0l1.5-0.7c0.4-0.1,0.6,0.1,0.5,0.5c-0.6,0.9-1.2,1.7-2.1,2.2c-0.2,0.1-0.4,0-0.5-0.3
		c-0.2-0.2-0.4-0.4-0.6-0.5l-5.3-3.2c-0.2-0.1-0.3-0.3-0.2-0.5c0.1-0.2,0.4-0.3,0.8-0.3h0.4c0.1,0,0.2-0.1,0.3-0.2
		c1.4-2.1,2.7-4.2,3.9-6.5l0.4-0.6c0.2-0.2,0-0.5-0.4-1.1c0-0.1,0-0.2,0.1-0.3c0.1-0.1,0.2-0.2,0.3-0.2c1.3,0.5,2.4,1.1,3.1,1.9
		C516,18.9,516,19,516,19.1 M546.2,50C546.2,50,546.2,50,546.2,50c-1-1.8-2.1-3.6-3.3-5.3c-0.5-0.3-0.8-0.2-0.8,0.5l0.1,0.4
		c0,0.2-0.1,0.4-0.3,0.5c-1.5,1.2-3.1,2.2-4.8,3.1c-0.7,0.4-1.5,0.8-2.2,1.1c-0.2,0.1-0.4,0.1-0.6,0l-0.6-0.4c-0.2,0-0.2,0-0.4,0.2
		c-0.1,0.1-0.1,0.2-0.1,0.3c0.1,0.6,0.3,1.1,0.7,1.8c0.4,0.6,0.8,1.1,1.4,1.5c0.3,0,0.5-0.1,0.5-0.3l-0.1-0.7c0-0.2,0.1-0.4,0.2-0.5
		c0.4-0.2,0.7-0.5,1.1-0.8c0.5-0.3,1.1-0.7,1.6-1c0.2-0.2,0.4-0.1,0.6,0.1c0.6,0.9,0.9,1.7,0.8,2.4c-0.1,0.5-0.4,1-1.1,1.8
		c-0.5,0.5-0.8,0.8-0.8,0.9c-0.3,0.4-0.5,0.7-0.7,1c-0.2,0.6-0.2,1.1,0,1.6c0.2,0.5,0.6,0.9,1.1,1.2c0.3,0,0.5,0,0.6-0.2
		c0.2-0.2,0.2-0.3,0-0.5c-0.3-0.3-0.4-0.6-0.2-1c0.2-0.4,0.6-0.9,1.2-1.5c0.3-0.4,0.5-0.6,0.7-0.8c0.2-0.3,0.4-0.6,0.4-0.9
		c0.1-0.3,0.1-0.5,0.1-0.7c0-0.2-0.1-0.4-0.2-0.6c-0.1-0.2,0-0.2,0.1-0.1c0.7,0.5,1.4,0.8,2.1,0.8c0.7,0,1.2-0.2,1.8-0.5
		c0.3-0.2,0.6-0.5,0.8-0.8c0.1-0.2,0.2-0.4,0.2-0.6C546.6,51.4,546.5,50.7,546.2,50 M544.8,50.7c-0.2,0.5-0.4,0.8-0.7,1.1
		c-0.3,0.3-0.8,0.5-1.3,0.4c-0.5-0.1-1.1-0.3-1.5-0.8c-0.4-0.5-0.8-1.1-1.1-1.8l3.1-1.8c0.5-0.3,1,0.1,1.5,1.4
		C544.9,49.8,544.9,50.2,544.8,50.7 M535.1,36c0-0.7,0.3-0.8,1-0.3l4.4,5.3c0.5,0.3,0.7,0.6,0.6,0.8c-0.3,0.7-0.8,1.2-1.4,1.7
		c-0.3,0.1-0.5,0-0.6-0.2c-0.1-0.2,0-0.5,0.2-0.9c0.2-0.3,0.2-0.7,0-1.2l-1.8-2.2c-0.1-0.1-0.2-0.2-0.3-0.2
		c-0.3-0.2-0.6-0.1-0.8,0.1c-0.7,0.4-1.4,0.9-2.1,1.5c-0.2,0.2-0.3,0.4-0.1,0.6l1.1,1.4c0.2,0.3,0.4,0.4,0.7,0.4
		c0.2,0,0.4-0.1,0.8-0.3c0.2-0.1,0.3-0.2,0.4-0.2c0.1,0,0.2,0,0.3,0c0.1,0.1,0.2,0.1,0.3,0.2c0,0.1,0,0.2-0.1,0.3
		c-0.2,0.2-0.3,0.4-0.5,0.5c-0.8,0.9-1.8,1.6-3.1,2.2c-0.1,0-0.1,0-0.2-0.1c-0.1-0.1-0.1-0.2,0-0.4l0.7-1c0.2-0.2,0.2-0.5,0-0.8
		l-1.4-1.6c-0.1-0.1-0.3-0.1-0.6,0.1l-2.2,2.1c-0.2,0.3-0.2,0.5-0.1,0.7c0.6,0.9,1.3,1.8,2.1,2.6c0.3,0.3,0.7,0.4,1.2,0.3l1-0.2h0.5
		c0.4,0.1,0.3,0.3-0.2,0.8c-0.8,0.6-1.5,1-2.3,1.1c-0.3,0.1-0.5,0-0.5-0.2c0-0.2-0.1-0.4-0.2-0.6c-1.7-1.9-2.9-3.4-3.7-4.5
		c-0.5-0.7-0.8-1.1-0.9-1.3c-0.1-0.3,0-0.5,0.4-0.5c0.2-0.1,0.5,0,0.6,0.2c0.2,0.1,0.3,0.1,0.5,0c1.2-0.7,3.4-2.4,6.5-5.2
		c0.1-0.2,0.2-0.3,0.1-0.5L535.1,36 M532.1,32.1c-0.1-0.3-0.1-0.5-0.2-0.7c-0.1-0.2-0.3-0.5-0.6-0.7l-4.5-4.1
		c-0.7,0-0.9,0.3-0.5,0.9c0.1,0.3,0.1,0.5,0,0.8c-2,2.4-3.8,4.4-5.5,6c-0.2,0.2-0.5,0.3-0.9,0.2c-0.4-0.2-0.6-0.1-0.7,0.1
		c0,0.5,0.3,1,1,1.4l3.2,3.1c0.5,0.6,1.2,1,1.9,1.1c0.7,0.1,1.4,0.1,2.1-0.3c0.7-0.3,1.1-0.7,1.4-1.3c0.3-0.6,0.3-1.3,0.1-2.1
		c-0.1-0.4-0.3-0.8-0.6-1.2l-0.4-0.5l0.8,0.3c0.6,0.2,1.1,0.2,1.4,0.2c0.5-0.1,1-0.3,1.3-0.6c0.4-0.3,0.6-0.7,0.7-1.1
		C532.2,33,532.2,32.5,532.1,32.1 M526,38c-0.5,0.4-1.2,0.3-2.3-0.2l-1.2-1.2c-0.4-0.3-0.4-0.7,0-1.2l2.2-2.4c1,0.7,1.8,1.4,2.1,2.2
		C527.4,36.3,527.1,37.3,526,38 M529.2,33.6c-0.5,0.3-1,0.3-1.5,0.2c-0.8-0.3-1.5-0.8-2.1-1.7c0.7-0.8,1.5-1.7,2.3-2.4
		c0.2-0.3,0.5-0.3,0.8-0.1c0.9,0.8,1.4,1.5,1.5,2.1C530.4,32.3,530,33,529.2,33.6 M547,78.6c0.1,0,0.2-0.1,0.2-0.1
		c0.4-0.1,0.8-0.1,1.1-0.1c0.4,0.3,0.4,0.6,0.2,0.9l-1.1,1c-0.5,0.4-0.8,0.9-0.8,1.4c-0.2,0.9-0.1,1.7,0.4,2.3
		c0.7,0.7,1.3,0.9,1.8,0.7c0.3-0.1,0.6-0.4,0.8-0.7c0.3-0.4,0.4-0.7,0.5-1.1l0.9-2.9c0.3-0.8,0.7-1.3,1.2-1.6c1-0.6,2-0.7,2.9-0.2
		c1.3,0.7,2,1.8,2,3.4c0,1,0,1.6,0.1,1.8c0.4,0.4,0.4,0.7,0.1,1c-0.3,0.3-1,0.6-2.1,1c-0.4,0-0.6-0.1-0.6-0.3c0-0.2,0.2-0.5,0.5-0.9
		c0.5-0.5,0.7-0.9,0.8-1.3c0.2-1.5-0.1-2.4-1-2.8c-1.2-0.4-2,0.3-2.5,2.1l-0.6,2.2c-0.3,1.1-0.9,1.8-2,2.1c-1.1,0.4-2.1,0.2-2.8-0.4
		c-0.6-0.4-1.1-0.9-1.4-1.8c-0.4-1-0.6-2.3-0.4-3.7c0.1-0.8,0.3-1.3,0.6-1.5C546.3,78.9,546.6,78.7,547,78.6 M549.3,55.1
		c0.1,0.1,0.2,0.2,0.2,0.3c0.7,1.8,1.2,3.1,1.4,3.7c0.5,1.4,1.1,2.5,1.6,3.5c0.1,0.2,0.2,0.3,0.1,0.5c0,0.1-0.1,0.3-0.2,0.4
		c-0.8,0.6-1.5,1-2.2,1.1c-0.3,0-0.4-0.2-0.5-0.5c0.1-0.2,0.4-0.5,0.8-0.9c0.3-0.3,0.4-0.5,0.4-0.7c0.1-0.5-0.1-1.1-0.4-1.6
		c-0.1-0.2-0.4-0.3-0.7-0.2c-1.1,0.4-2.1,0.8-3.1,1.2c-0.4,0.2-0.7,0.3-1.1,0.5c-1.2,0.5-2.4,1.1-3.6,1.6l-0.1,1
		c-0.1,0.1-0.1,0.2-0.2,0.3c-0.1,0.1-0.2,0.1-0.2,0c-0.4-0.3-0.7-0.8-1.1-1.5c-0.3-0.7-0.5-1.3-0.6-2c0.1-0.4,0.3-0.5,0.5-0.4
		l0.7,0.5c0.1,0.1,0.3,0.1,0.5,0l7.6-3.1c0.2-0.2,0.3-0.4,0.2-0.6c-0.1-0.5-0.3-0.8-0.5-1.1c-0.4-0.5-1-0.7-1.8-0.5
		c-0.6-0.1-0.8-0.4-0.7-0.8c0.7-0.4,1.5-0.7,2.5-0.8C549,55,549.2,55,549.3,55.1 M401.2,38c0.1-0.2,0.2-0.3,0.3-0.4
		c0.1-0.1,0.3-0.1,0.5,0c0.9,0.3,1.6,0.8,2.1,1.3 M401.2,38c-0.6,0.9-1.3,2-2.2,3.2c-0.4,0.5-1.2,1.6-2.4,3.1
		c-0.1,0.1-0.2,0.2-0.2,0.3c0,0.2,0,0.3,0.1,0.5c0.6,0.8,1.3,1.4,2,1.8c0.5-0.1,0.6-0.4,0.3-1c-0.5-0.6-0.6-1.2-0.4-1.8
		c0.1-0.3,0.4-0.7,0.7-1c0.2-0.2,0.4-0.2,0.7-0.1l6.6,4.9c0.2,0.2,0.3,0.3,0.3,0.5l-0.1,0.8c0,0.3,0.2,0.4,0.6,0.3
		c1-0.8,1.7-1.9,2.1-3.2c0-0.2-0.2-0.3-0.5-0.3l-0.9,0.4c-2.3-1.6-4.6-3.2-6.9-5c-0.3-0.2-0.4-0.5-0.3-0.7c0.3-0.5,0.7-0.9,1.2-1.1
		c0.2-0.1,0.5-0.1,0.9,0c0.5,0.1,0.9,0.2,1.2,0.2c0.2-0.2,0.3-0.4,0.2-0.6 M415.5,24c-1.4,0.8-2.1,2-2.1,3.4c0,1.1,0.5,2,1.5,2.5
		c0.5,0.3,1.2,0.4,2,0.3l3-0.6c0.4-0.1,0.8-0.1,1.2,0c0.4,0.1,0.8,0.2,1,0.4c0.4,0.3,0.5,1,0.3,1.9c-0.3,0.7-0.9,1.2-1.8,1.4
		c-0.5,0.2-1,0.1-1.6-0.1l-1.3-0.4c-0.5-0.1-0.7,0.1-0.7,0.5c0.5,0.9,1.1,1.4,1.8,1.8c0.3,0.2,0.9,0.1,1.6-0.2
		c1.4-0.6,2.4-1.3,3.1-2.2c0.6-0.7,0.9-1.4,0.9-2.1c0.2-0.9-0.2-1.8-1-2.6c-0.7-0.8-1.7-1-2.8-0.7l-2.3,0.5
		c-1.8,0.5-2.8,0.1-3.1-1.2c-0.1-1,0.6-1.7,2-2.2c0.4-0.1,0.9-0.1,1.5,0.1c0.5,0.1,0.9,0.1,1.1,0c0.2-0.1,0.2-0.4,0-0.7
		c-0.8-0.7-1.5-1.2-1.9-1.3c-0.5-0.1-0.7,0.1-0.9,0.5C416.9,23.2,416.4,23.5,415.5,24 M394.9,47l-1.8,3.1c0,0.5,0.2,0.7,0.6,0.6
		l0.5-0.4c0.2-0.1,0.3-0.1,0.5,0c2.5,1.2,4.9,2.7,7.1,4.2c0.2,0.1,0.2,0.2,0.3,0.4v0.6c0,0.2,0.1,0.4,0.2,0.5c0.1,0.1,0.3,0.1,0.4,0
		c0.8-0.9,1.4-1.9,1.8-3c0.1-0.4,0-0.6-0.2-0.8c-0.2-0.1-0.5,0-0.8,0.3c-0.1,0.1-0.2,0.1-0.3,0.1c0,0-0.2-0.1-0.3-0.1
		c-2.8-1.4-5.1-2.8-7.1-4.1c-0.2-0.2-0.4-0.6-0.3-1.1C395.6,46.8,395.4,46.7,394.9,47 M388.6,65.2c-0.7-0.2-1.4-0.3-2.2-0.2
		c-0.2,0-0.3,0.4-0.3,1l-1.9,6.6c0,0.8,0.2,1,0.8,0.6l0.4-0.4c0.1-0.1,0.2-0.2,0.4-0.2c4.1,1.1,6.8,1.9,8,2.5
		c0.2,0.1,0.3,0.2,0.3,0.3c0,0.3,0,0.5,0.2,0.6c0.2,0.3,0.5,0.3,0.7,0c0.1-0.2,0.3-0.7,0.6-1.5c0.5-1.3,1-3.1,1.6-5.6
		c0.1-0.2,0.2-0.4,0.4-0.5c0.2-0.2,0.1-0.3-0.1-0.5c-0.5-0.6-1.3-1-2.2-1.3c-0.7-0.1-1,0-0.8,0.3l0.3,0.4l0.7,0.8
		c0.4,0.4,0.5,0.8,0.5,1.2c-0.2,1.1-0.6,2.1-1,3.1c-0.1,0.2-0.3,0.3-0.6,0.3l-3-0.7c-0.3-0.2-0.5-0.3-0.5-0.4l0.5-2.1
		c0.1-0.3,0.4-0.5,0.7-0.5h1.1c0.2,0,0.2-0.1,0.3-0.2c0.1-0.1,0.1-0.2,0-0.3c-1.4-0.8-2.8-1.3-4.3-1.4c-0.1,0-0.2,0-0.3,0.1
		c-0.1,0.1-0.1,0.2,0,0.4c0,0.2,0.2,0.3,0.5,0.4c0.4,0.2,0.6,0.3,0.7,0.5c0.2,0.2,0.2,0.5,0.1,0.8l-0.5,1.7
		c-0.1,0.3-0.2,0.4-0.5,0.3c-0.9-0.3-1.8-0.6-2.4-0.9c-0.5-0.1-0.6-0.5-0.5-1l0.8-2.7c0.3-0.4,0.6-0.7,1-0.7
		c0.4-0.1,0.7-0.2,0.8-0.4C388.9,65.6,388.8,65.4,388.6,65.2 M402.2,56.9c-0.1-0.3-0.3-0.4-0.5-0.5c-0.2,0-0.3,0.1-0.4,0.3
		c-0.1,0.4-0.3,0.6-0.7,0.7c-0.4,0.1-1.1,0-1.9-0.2c-0.5-0.1-0.8-0.2-1-0.2c-0.3,0-0.7,0-1,0.1c-0.3,0.1-0.5,0.2-0.7,0.3
		c-0.1,0.1-0.3,0.3-0.4,0.5c-0.1,0.1-0.2,0.1-0.2-0.1c0.1-0.8,0-1.6-0.4-2.2c-0.3-0.6-0.8-1-1.4-1.2c-0.6-0.2-1.2-0.2-1.8-0.1
		c-0.7,0.2-1.2,0.7-1.6,1.3c-1,1.8-1.8,3.6-2.6,5.7c0,0.6,0.3,0.8,0.8,0.4l0.3-0.3c0.2-0.1,0.3-0.1,0.5,0c2.6,0.9,5,2.1,7.4,3.6
		c0.2,0.1,0.3,0.2,0.4,0.5v0.7c0,0.1,0.2,0.2,0.3,0.2c0.2,0,0.3,0,0.3-0.1c0.4-0.4,0.8-0.9,1.1-1.6c0.3-0.6,0.5-1.3,0.6-2
		c-0.2-0.2-0.4-0.3-0.6-0.2l-0.5,0.5c-0.2,0.1-0.3,0.2-0.5,0.1c-1-0.4-2-0.8-3-1.3c-0.2-0.1-0.3-0.3-0.3-0.5c0.4-1,0.9-1.7,1.5-2
		c0.4-0.2,1.1-0.2,2.1-0.1c0.7,0.1,1.1,0.2,1.2,0.2c0.5,0.1,0.9,0.1,1.2,0c0.6-0.2,1-0.4,1.3-0.9C402.1,58.1,402.3,57.6,402.2,56.9
		 M394.3,59.2c-0.2,0.6-0.5,1.3-0.9,1.9l-3.1-1.6c-0.6-0.2-0.5-0.9,0.3-2c0.3-0.4,0.7-0.7,1.2-0.8c0.5-0.1,0.9-0.2,1.4,0
		c0.4,0.1,0.8,0.4,1,0.9C394.3,58,394.4,58.6,394.3,59.2 M418.4,35.8c-0.1-0.1-0.3-0.2-0.5-0.1c-0.2,0.1-0.4,0.2-0.5,0.2
		c-0.2,0.1-0.5,0.1-0.8,0c-1.4-0.5-3.4-1.3-6-2.3c-2.6-1-3.9-1.5-4.1-1.5c-0.2,0.1-0.4,0.2-0.6,0.5c-0.2,0.3-0.2,0.5,0,0.6
		c0.1,0.2,0.9,1.8,2.2,4.8c0.7,1.5,1.3,3.1,2,4.5c-0.1,0.6-0.2,1.1-0.3,1.6c0.1,0.3,0.3,0.4,0.6,0.3c0.5-0.4,0.9-0.8,1.3-1.1v0
		c0.1-0.1,0.2-0.2,0.2-0.2c0.3-0.4,0.6-0.8,0.9-1.2c0-0.2-0.1-0.3-0.2-0.4c-0.2-0.1-0.4-0.1-0.7,0.1v0c-0.2,0.1-0.3,0.1-0.5,0.2
		c-0.1,0-0.2,0-0.4-0.1c-0.1,0-0.1-0.1-0.1-0.1c-0.3-0.2-0.5-0.7-0.7-1.3c-0.1-0.2,0-0.4,0.2-0.6c0.8-0.9,1.8-1.9,2.8-2.8
		c0.7,0.1,1.3,0.4,1.9,0.9c0.1,0.2,0.2,0.3,0.1,0.5c-0.2,0.3-0.3,0.5-0.3,0.7c-0.1,0.4,0.2,0.5,0.6,0.5c1.1-0.9,2.1-1.8,2.8-3
		C418.5,36.1,418.5,35.9,418.4,35.8 M409.6,38.7l-1.7-3.9c0-0.2,0-0.2,0.2-0.2l4,1.7L409.6,38.7z M393.9,82.8c0.3-0.2,0.3-0.3,0-0.5
		c-4-2.5-7.1-4.4-9.1-5.6c-0.3-0.2-0.5-0.5-0.5-0.9c-0.3-0.7-0.6-0.7-0.9-0.2c-0.3,0.9-0.4,1.9-0.5,3c0,0.3,0.1,0.5,0.3,0.5
		c0.2,0,0.4-0.1,0.6-0.3c0.2-0.3,0.4-0.5,0.5-0.5c0.2-0.1,0.5-0.1,0.7,0l0.1,0.1c1.9,0.9,3.6,2,5.2,3.1c0.2,0.1,0.2,0.2,0.3,0.3
		c0,0.1-0.1,0.2-0.2,0.2c-2.4,0.8-4.7,1.3-6.7,1.5c-0.2-0.1-0.3-0.2-0.4-0.3c0,0,0-0.2-0.1-0.4c-0.1-0.3-0.2-0.5-0.4-0.5
		c-0.2,0-0.4,0.2-0.5,0.5c-0.2,0.4-0.3,1-0.4,1.7c0,0.3-0.1,0.9-0.1,1.8c0.1,0.3,0.2,0.5,0.4,0.5c0.2,0,0.4-0.2,0.5-0.5
		c0.2-0.4,0.6-0.6,1-0.7C387.3,84.7,390.7,83.8,393.9,82.8 M382.2,102.9c0.1,0.2,0.3,0.4,0.6,0.5c4.4-0.3,7.3-0.7,8.7-1.2
		c0.1-0.1,0.1-0.2,0.2-0.2c0.1-0.1,0.1-0.3,0.1-0.4c0.2-0.5,0.5-0.5,0.9-0.2c0.3,0.8,0.6,3.2,1,7.2c0.2,0.6,0.4,1,0.3,1.1
		c-0.6,0.6-1.4,0.8-2.3,0.8h0c-0.4-0.2-0.5-0.4-0.3-0.7c0.1-0.1,0.2-0.2,0.4-0.2c0.4-0.3,0.7-0.8,0.8-1.3c0-1-0.2-2-0.3-2.9
		c-0.1-0.3-0.2-0.5-0.5-0.7c0,0-0.1-0.1-0.1-0.1l-3.4,0.3l0.3,2.5c0.1,0.3,0.3,0.5,0.6,0.4c0.7,0,1.1,0.1,1.3,0.2
		c0.2,0.2,0.1,0.5-0.2,0.6c-0.4,0.2-1,0.4-1.8,0.5c-0.9,0.2-1.8,0.2-2.5,0.1c-0.3-0.1-0.4-0.3-0.2-0.6l1.1-0.5
		c0.4-0.2,0.6-0.4,0.5-0.6l-0.1-2.1c-0.1-0.3-0.2-0.4-0.5-0.3l-3.6,0.5c-0.2,0.1-0.4,0.2-0.4,0.4c-0.1,0.7-0.5,0.9-1,0.6
		c-0.3-0.5-0.5-1.8-0.5-3.7C381.4,102.3,381.7,102.3,382.2,102.9 M396,119.2c-0.3,0.5-0.8,0.9-1.4,1.2c-0.6,0.2-1.2,0.2-1.9,0
		c-0.4-0.1-0.7-0.3-1-0.5c-0.3-0.2-0.6-0.5-0.8-0.9c-0.1-0.1-0.2-0.1-0.2,0.1c0.1,0.2,0.1,0.5,0.1,0.7c0,0.2-0.1,0.4-0.3,0.7
		c-0.2,0.3-0.4,0.5-0.7,0.8c-0.1,0.1-0.5,0.3-0.9,0.6c-0.8,0.4-1.3,0.8-1.6,1.1c-0.3,0.3-0.3,0.7-0.1,1c0.1,0.2,0.1,0.3-0.1,0.4
		c-0.1,0.2-0.4,0.1-0.6,0c-0.5-0.4-0.8-0.9-0.8-1.5c-0.1-0.5,0.1-1.1,0.4-1.6c0.2-0.2,0.5-0.5,0.9-0.8c0.1-0.1,0.4-0.3,1.1-0.7
		c0.8-0.6,1.3-1.1,1.5-1.5c0.3-0.6,0.2-1.5-0.2-2.5c-0.1-0.3-0.3-0.3-0.6-0.2c-1.1,0.3-2.1,0.6-3.2,1c-0.2,0.1-0.3,0.2-0.3,0.4
		l-0.1,0.7c-0.1,0.2-0.3,0.2-0.6,0.2c-0.4-0.6-0.7-1.2-0.9-1.9c-0.2-0.7-0.3-1.3-0.3-1.9c0-0.1,0.1-0.2,0.2-0.3
		c0.1-0.1,0.2-0.1,0.4-0.1l0.5,0.5c0.1,0.1,0.3,0.2,0.6,0.1c2.2-0.4,4.4-0.9,6.6-1.7c0.5-0.2,1-0.4,1.5-0.6c0.2,0,0.4-0.2,0.4-0.4
		l0-0.4c0.1-0.7,0.5-0.8,0.9-0.3c0.8,2.1,1.4,4.1,1.8,6.1C396.4,117.9,396.3,118.6,396,119.2 M395.1,116c-0.2-1.3-0.5-1.9-1.1-1.7
		l-3.5,0.9c0.1,0.8,0.3,1.5,0.6,2.1c0.2,0.4,0.4,0.6,0.7,0.8c0.2,0.2,0.4,0.3,0.6,0.3c0.5,0.2,1,0.2,1.4,0c0.4-0.2,0.8-0.5,1-0.9
		C395,117,395.1,116.5,395.1,116 M396.4,122c0,0.2-0.1,0.3-0.2,0.5c-1.7,0.9-3.2,1.6-4.4,2.1c-1.5,0.7-2.7,1.2-3.4,1.4
		c-0.2,0.1-0.3,0-0.5-0.1c-0.2-0.2-0.3-0.3-0.6-0.4c-0.4-0.1-0.6,0.1-0.5,0.4c0.1,0.2,0.2,0.7,0.5,1.5c0.6,1.3,1.4,3.1,2.6,5.4
		c0.1,0.3,0.1,0.5,0.1,0.7c0,0.2,0.2,0.4,0.4,0.4c0.4,0.1,0.9,0,1.3-0.1c0.4-0.1,0.8-0.2,1.3-0.5c0.6-0.4,0.8-0.7,0.4-0.8l-0.5-0.1
		l-1.1-0.1c-0.1,0-0.1,0-0.2,0c-0.5-0.1-0.8-0.3-1-0.6c-0.5-1-1-2-1.4-3.1c0-0.2,0.1-0.4,0.3-0.6l2.7-1.5c0.4-0.1,0.6-0.1,0.7,0l1,2
		c0.1,0.3,0,0.6-0.2,0.8l-0.9,0.8c-0.1,0.1-0.1,0.2-0.1,0.3c0.1,0.2,0.1,0.2,0.2,0.2c1.4-0.2,2.5-0.7,3.6-1.4
		c0.2-0.2,0.4-0.3,0.6-0.5c0.1-0.1,0.2-0.2,0.1-0.3c0-0.1-0.1-0.2-0.2-0.3c-0.1-0.1-0.2-0.1-0.3-0.1c-0.1,0-0.2,0-0.5,0.1
		c-0.4,0.1-0.7,0.2-0.8,0.1c-0.3,0-0.5-0.2-0.6-0.5l-0.8-1.7c-0.1-0.2-0.1-0.4,0.2-0.6c0.9-0.4,1.7-0.7,2.5-1
		c0.3-0.2,0.6-0.1,0.9,0.1c0.1,0.1,0.1,0.2,0.2,0.3l1.2,2.6c0.1,0.5,0,0.9-0.3,1.2c-0.2,0.3-0.4,0.6-0.4,0.8c0,0.2,0.2,0.4,0.6,0.4
		c0.7-0.3,1.3-0.8,1.8-1.3c0.2-0.2,0-0.5-0.5-1l-3-6.4c-0.5-0.6-0.9-0.6-1.1,0.1L396.4,122 M401.3,131.6c0,0.1,0,0.2-0.1,0.3
		c0,0-0.1,0.1-0.2,0.2c-2.7,1.8-5,3.3-7.2,4.4c-0.3,0.2-0.7,0.1-1.2-0.3c-0.5-0.1-0.7,0.1-0.6,0.6l1.9,3.1c0.5,0.2,0.8,0.1,0.8-0.3
		l-0.2-0.7c0-0.2,0.1-0.3,0.2-0.4c2.4-1.7,4.8-3.2,7.3-4.5c0.1-0.1,0.3-0.1,0.5-0.1l0.5,0.3c0.2,0.1,0.4,0.1,0.5,0
		c0.1-0.1,0.2-0.2,0.2-0.4c-0.5-1.1-1.1-2.2-1.8-3.1c-0.3-0.2-0.6-0.3-0.8-0.2C401.1,130.8,401.1,131.1,401.3,131.6 M405.5,136.4
		c-0.7-0.5-1-0.4-1,0.3l0.1,0.5c0.1,0.2,0,0.3-0.1,0.5c-3.4,2.8-5.6,4.5-6.9,5.1c-0.2,0.1-0.3,0.1-0.5,0c-0.2-0.2-0.4-0.2-0.6-0.2
		c-0.4,0-0.6,0.2-0.5,0.5c0.1,0.2,0.4,0.7,0.9,1.4c0.8,1.1,2.1,2.7,3.7,4.7c0.1,0.2,0.2,0.5,0.2,0.6c0.1,0.2,0.2,0.3,0.5,0.3
		c0.8-0.1,1.6-0.5,2.4-1.1c0.5-0.5,0.6-0.8,0.2-0.9h-0.5l-1.1,0.2c-0.5,0.1-1-0.1-1.3-0.4c-0.7-0.8-1.4-1.7-2-2.7
		c-0.1-0.2,0-0.5,0.1-0.7l2.4-2.1c0.3-0.2,0.5-0.2,0.6-0.1l1.4,1.7c0.2,0.3,0.2,0.6-0.1,0.8l-0.7,1c-0.1,0.1-0.1,0.2,0,0.3
		c0.1,0.2,0.2,0.2,0.2,0.2c1.3-0.6,2.4-1.3,3.2-2.2c0.2-0.2,0.3-0.4,0.5-0.5c0.1-0.1,0.1-0.2,0.1-0.3c-0.1-0.1-0.1-0.2-0.3-0.2
		c-0.1,0-0.2,0-0.2,0c-0.1,0-0.3,0.1-0.4,0.2c-0.4,0.2-0.7,0.3-0.8,0.3c-0.3,0-0.5-0.1-0.7-0.4l-1.1-1.5c-0.2-0.2-0.1-0.4,0.1-0.6
		c0.8-0.6,1.5-1.1,2.2-1.5c0.3-0.2,0.6-0.2,0.8-0.1c0.1,0.1,0.2,0.1,0.3,0.2l1.8,2.3c0.2,0.5,0.2,0.9,0,1.3
		c-0.2,0.4-0.2,0.7-0.2,0.9c0.1,0.2,0.3,0.3,0.6,0.2c0.6-0.5,1.1-1,1.4-1.7c0.1-0.2-0.1-0.5-0.6-0.8L405.5,136.4 M546.5,100.4
		c0.5-0.4,0.8-0.3,0.9,0.2c-0.1,0.3,0.1,0.6,0.4,0.8c3.3,0.7,6.6,1.2,10,1.6c0.1,0,0.2,0.1,0.2,0.2c0,0.1,0,0.2,0,0.4
		c-0.1,0.3-1.2,1.2-3.5,2.7c-1.4,0.9-3.7,2.2-6.9,4l7.2,1c0.6-0.1,0.9-0.3,0.9-0.6c0.4-0.5,0.8-0.4,1,0.4c0.1,0.8,0,1.5-0.3,2.2
		c-0.2,0.4-0.3,0.6-0.6,0.6c-0.2,0-0.4-0.2-0.5-0.5c-0.1-0.2-0.1-0.4-0.2-0.5c-0.1-0.1-0.2-0.2-0.3-0.2c-2.9-0.6-5.7-1-8.5-1.2
		c-0.2-0.1-0.4,0.1-0.4,0.4c-0.5,0.7-0.8,0.7-1.1,0c-0.1-0.8,0-1.6,0.3-2.4c3.4-1.9,6.6-3.7,9.3-5.6c-2.2-0.5-4.4-0.8-6.6-0.9
		c-0.2-0.1-0.4,0-0.6,0.2l-0.4,0.7c-0.5,0.1-0.7-0.1-0.7-0.4C546,102.2,546.1,101.3,546.5,100.4 M544.3,112.8
		c-0.5,1.1-0.8,2.3-1,3.5c0.1,0.4,0.2,0.6,0.4,0.7c0.2,0.1,0.5-0.1,0.7-0.5c0.1-0.1,0.2-0.2,0.3-0.2c0,0,0.1,0,0.3,0
		c3.2,0.7,5.9,1.4,8.3,2.1c0.2,0.1,0.3,0.2,0.3,0.4c0.1,0.3,0.2,0.5,0.3,0.7c0.1,0.2,0.2,0.3,0.3,0.3c0.2,0,0.3-0.1,0.5-0.3
		c0.2-0.6,0.4-1.2,0.6-1.9c0.1-0.5,0.2-1.1,0.3-1.7c-0.2-0.5-0.5-0.7-0.7-0.4l-0.5,0.5c0,0-0.1,0.1-0.2,0.2c-0.1,0-0.1,0.1-0.2,0
		c-2.9-0.5-5.7-1.3-8.4-2.2c-0.2,0-0.3-0.2-0.4-0.3l-0.2-0.6c-0.1-0.2-0.2-0.3-0.4-0.4C544.6,112.7,544.5,112.7,544.3,112.8
		 M541.5,120.9c-0.6,1-1.1,2.1-1.4,3.6c0.1,0.1,0.2,0.2,0.3,0.3c0.1,0,0.2,0,0.3,0c0.5-0.5,0.8-0.7,1-0.6c0.3,0.1,0.5,0.1,0.8,0.2
		c2.5,0.8,5,1.8,7.4,2.9c0.2,0.1,0.2,0.1,0.3,0.3c0,0.1,0.1,0.2,0.1,0.5c0.1,0.4,0.2,0.7,0.5,0.8c0.2,0.1,0.4,0,0.5-0.3l2.4-6
		c0.1-0.3,0.2-0.5,0.5-0.8c0.2-0.2,0.3-0.4,0.2-0.6c-0.7-0.8-1.6-1.4-2.7-1.7c-0.5,0-0.6,0.2-0.5,0.6l1,1.4c0.1,0.3,0.2,0.7,0.2,1.1
		c-0.5,1.5-0.9,2.3-1.1,2.4c-0.3,0.2-0.6,0.3-0.8,0.2c-3.1-1-5.7-2.1-7.9-3.2c-0.1,0-0.2-0.2-0.2-0.4c0-0.3,0-0.5-0.1-0.6
		 M531.6,141l1.8-2.3c0.5-0.3,0.9-0.4,1.2-0.3c0.4,0.1,0.7,0.1,0.9-0.1c0.2-0.1,0.2-0.4,0.1-0.7c-0.6-0.5-1.3-0.8-2.1-1
		c-0.2,0-0.5,0.2-0.6,0.8l-4.4,5.7c-0.3,0.8-0.2,1.1,0.5,0.9l0.5-0.2c0.2-0.1,0.3-0.1,0.5,0c3.6,2.6,5.9,4.4,6.9,5.4
		c0.1,0.2,0.2,0.3,0.1,0.5c-0.1,0.2-0.1,0.5-0.1,0.7c0.1,0.4,0.3,0.5,0.7,0.3c0.2-0.1,0.5-0.5,1.1-1.2c0.9-1.1,2.1-2.7,3.7-4.8
		c0.2-0.2,0.4-0.3,0.5-0.4c0.2-0.1,0.3-0.3,0.1-0.6c-0.3-0.8-0.8-1.5-1.7-2.1c-0.6-0.4-1-0.4-0.9,0l0.1,0.5l0.4,1
		c0.2,0.5,0.2,1,0,1.4c-0.6,0.9-1.3,1.8-2.1,2.7c-0.2,0.1-0.4,0.2-0.7,0l-2.6-1.8c-0.2-0.3-0.3-0.5-0.3-0.6l1.3-1.8
		c0.2-0.3,0.5-0.3,0.8-0.2l1.1,0.4c0.1,0.1,0.2,0,0.4-0.1c0.1-0.1,0.1-0.2,0.1-0.3c-0.9-1.1-1.9-2-3-2.6c-0.2-0.2-0.4-0.3-0.7-0.4
		c-0.2-0.1-0.2-0.1-0.3,0c-0.1,0.1-0.2,0.2-0.2,0.4c0,0.1,0,0.2,0.1,0.2c0.1,0.1,0.2,0.2,0.3,0.4c0.3,0.3,0.5,0.6,0.5,0.7
		c0.1,0.3,0,0.6-0.2,0.8l-1.2,1.5c-0.2,0.2-0.4,0.3-0.6,0.1c-0.8-0.6-1.5-1.2-2-1.8c-0.3-0.2-0.4-0.5-0.3-0.8
		C531.5,141.2,531.5,141.1,531.6,141 M549.8,131c0,0.7-0.1,1.2-0.5,1.6c-0.3,0.5-0.8,0.8-1.4,0.8c-0.3,0-0.8,0-1.2-0.1
		c-0.1,0-0.5-0.1-1.2-0.2c-1-0.2-1.7-0.2-2.1,0c-0.6,0.3-1.2,0.9-1.7,1.9c-0.1,0.3,0,0.5,0.2,0.6c0.6,0.3,1.1,0.6,1.8,0.9
		c0.4,0.2,0.8,0.4,1.2,0.6c0.2,0.1,0.4,0.1,0.5,0l0.5-0.5c0.2,0,0.4,0.1,0.6,0.3c-0.1,0.7-0.4,1.4-0.7,2c-0.3,0.7-0.7,1.2-1.1,1.5
		c-0.1,0.1-0.2,0.1-0.4,0.1c-0.2-0.1-0.3-0.1-0.3-0.3l0-0.7c0-0.2-0.2-0.4-0.3-0.5c-0.7-0.5-1.4-1-2.1-1.4c-1.7-1-3.4-1.9-5.2-2.7
		c-0.2-0.1-0.4-0.1-0.5,0l-0.3,0.3c-0.6,0.3-0.8,0.2-0.8-0.4c0.9-2,1.9-3.8,2.9-5.5c0,0,0-0.1,0.1-0.1c0.5-0.6,1-1,1.7-1.2
		c0.2-0.1,0.5-0.1,0.7-0.1c0.4,0,0.8,0.1,1.1,0.2c0.6,0.3,1.1,0.7,1.4,1.3c0.3,0.7,0.5,1.4,0.3,2.3c0,0.2,0.1,0.2,0.2,0.1
		c0.1-0.2,0.3-0.4,0.4-0.5s0.4-0.2,0.7-0.3c0.3-0.1,0.7-0.1,1-0.1c0.2,0,0.6,0.1,1,0.2c0.8,0.3,1.5,0.4,1.9,0.4
		c0.4-0.1,0.7-0.3,0.8-0.7c0-0.2,0.2-0.3,0.4-0.3C549.5,130.6,549.7,130.7,549.8,131 M541.5,131.2c-0.2-0.5-0.5-0.8-1-1
		c-0.4-0.1-0.9-0.2-1.4,0c-0.5,0.1-0.9,0.4-1.2,0.8c-0.8,1.1-1,1.8-0.4,2l3.1,1.8c0.5-0.6,0.8-1.3,1.1-1.9
		C541.7,132.2,541.7,131.6,541.5,131.2 M534.6,152.9c0,0.2-0.1,0.4-0.1,0.6c-0.2,0.8-0.6,1.4-1.3,2l-3.4,3.2c-0.5,0.7-1,1-1.6,1
		c-0.2-0.1-0.2-0.4,0-0.8c0.2-0.4,0.1-0.7-0.1-1c-1.6-1.8-3.6-3.8-6-6.1c-0.2-0.2-0.5-0.2-0.8,0c-0.2,0.1-0.4,0.2-0.6,0.1
		c-0.3,0-0.4-0.2-0.4-0.6c0,0,0-0.1,0-0.2l4.6-4.5c0.2-0.3,0.5-0.5,0.8-0.6c0.2-0.1,0.5-0.1,0.8-0.2c0.2,0,0.5,0,0.7,0
		c0.3,0,0.5,0.1,0.8,0.2c0.5,0.1,0.8,0.4,1.1,0.8c0.3,0.4,0.5,0.9,0.5,1.4c0,0.3-0.1,0.8-0.3,1.5l-0.3,0.8l0.6-0.4
		c0.4-0.3,0.9-0.5,1.3-0.5c0.8-0.2,1.5-0.2,2.1,0.2c0.6,0.4,1,0.9,1.3,1.6C534.6,151.9,534.7,152.4,534.6,152.9 M528.1,150.6
		c0.2-0.5,0.2-1.1-0.1-1.6c-0.6-1-1.3-1.4-2-1.2c-0.7,0.1-1.4,0.6-2.3,1.5c-0.2,0.3-0.2,0.6,0.1,0.8c0.7,0.9,1.5,1.8,2.4,2.6
		C527.1,152.1,527.8,151.4,528.1,150.6 M532.4,152.7c-0.7-1.3-1.6-1.7-2.8-1.1c-0.9,0.4-1.8,1.1-2.5,2.1l2.4,2.5
		c0.5,0.4,0.8,0.5,1.2,0.1l1.3-1.2C532.7,154,532.8,153.2,532.4,152.7 M472,181.4c-0.1-0.2-0.2-0.3-0.4-0.2c-0.4,0.1-0.7,0-0.9-0.4
		c-0.2-0.4-0.4-1-0.6-1.9c-0.1-0.5-0.2-0.8-0.3-1c-0.1-0.3-0.3-0.6-0.5-0.9c-0.2-0.2-0.4-0.4-0.6-0.5c-0.2-0.1-0.4-0.1-0.7-0.1
		c-0.2-0.1-0.2-0.1,0-0.2c0.4-0.2,0.8-0.3,1.1-0.5c0.3-0.2,0.6-0.5,0.8-0.8c0.4-0.5,0.6-1.1,0.5-1.8c0-0.7-0.3-1.2-0.7-1.7
		c-0.5-0.5-1.1-0.9-1.9-1c-2.1-0.2-4.2-0.2-6.5-0.2c-0.6,0.3-0.6,0.6,0,1l0.4,0.2c0.2,0.1,0.2,0.3,0.2,0.5c0,0.5,0.1,1.1,0.1,1.6
		c0.1,2.3-0.1,4.6-0.4,6.9c0,0.2-0.1,0.4-0.3,0.5l-0.7,0.3c-0.1,0.1-0.1,0.2-0.1,0.4c0,0.1,0.1,0.2,0.2,0.3c0.5,0.2,1.2,0.3,1.9,0.3
		c0.7,0,1.4-0.1,2.1-0.3c0.1-0.3,0.1-0.5,0-0.7l-0.6-0.3c-0.2-0.1-0.3-0.2-0.3-0.5c0-1.1,0-2.3,0-3.4c0-0.3,0.1-0.5,0.4-0.5
		c1.1-0.1,2,0.2,2.5,0.6c0.4,0.3,0.7,0.9,1,1.9c0.2,0.7,0.3,1.1,0.4,1.2c0.2,0.5,0.3,0.8,0.5,1.1c0.4,0.5,0.8,0.8,1.4,0.9
		c0.5,0.1,1.1,0,1.7-0.3C472,181.9,472.1,181.7,472,181.4 M467.8,174.6c-0.2,0.2-0.3,0.4-0.5,0.5c-0.3,0.2-0.6,0.3-1,0.4
		c-0.7,0.1-1.4,0.1-2.2-0.1l0.2-3.7c0-0.6,0.7-0.8,2-0.5c0.5,0.1,0.9,0.4,1.3,0.8c0.3,0.4,0.5,0.8,0.6,1.3
		C468.3,173.7,468.2,174.2,467.8,174.6 M474.5,176c-0.7-0.3-1.3-0.8-1.6-1.3c-0.6-1.1-0.5-2.1,0.1-3.1c0.8-1.3,2-1.9,3.7-1.8
		c1.1,0.1,1.7,0.1,1.8,0.1c0.4-0.4,0.8-0.4,1.1,0c0.3,0.3,0.6,1.1,0.9,2.2c0,0.4-0.1,0.6-0.4,0.6c-0.2,0-0.5-0.2-0.9-0.6
		c-0.5-0.5-0.9-0.8-1.3-0.9c-1.5-0.3-2.5,0-3,0.9c-0.5,1.2,0.2,2.1,2,2.7l2.3,0.8c1.1,0.4,1.8,1.1,2.1,2.1c0.3,1.2,0.1,2.1-0.6,2.8
		c-0.4,0.6-1,1-1.9,1.3c-1.1,0.4-2.4,0.4-3.9,0.2c-0.8-0.2-1.3-0.4-1.5-0.7c-0.5-0.7-0.7-1.5-0.6-2.5c0.3-0.4,0.6-0.4,0.9-0.1
		l0.9,1.1c0.4,0.5,0.9,0.8,1.4,1c0.9,0.3,1.7,0.2,2.4-0.3c0.7-0.7,1-1.3,0.8-1.8c-0.1-0.3-0.4-0.6-0.7-0.9c-0.3-0.3-0.7-0.5-1.1-0.6
		L474.5,176 M481.5,169.9c-0.1-0.2,0.1-0.4,0.4-0.6c1.1-0.4,2.3-0.6,3.5-0.6c0.1,0.1,0.3,0.2,0.3,0.3c0,0.2,0,0.3-0.2,0.5l-0.5,0.4
		c-0.1,0.2-0.1,0.3-0.1,0.5c0.3,2.8,0.9,5.6,1.6,8.4c0.1,0.1,0.2,0.2,0.3,0.3l0.7,0.1c0.4,0.2,0.4,0.5,0,0.9l-3.5,0.8
		c-0.5-0.1-0.6-0.4-0.4-0.8c0.5-0.3,0.7-0.6,0.7-1c-0.4-2.4-0.9-5.2-1.7-8.3c-0.1-0.2-0.1-0.3-0.1-0.3c-0.1-0.1-0.2-0.2-0.3-0.2
		C481.8,170.3,481.5,170.1,481.5,169.9 M490.5,168.7c-0.5,0-0.9,0.1-1.2,0.3c-0.5,0.4-0.8,1-0.8,1.8c-0.2,0.6-0.5,0.8-0.9,0.6
		c-0.4-0.8-0.5-1.7-0.5-2.7c0-0.2,0.1-0.3,0.2-0.4c0.1-0.1,0.2-0.2,0.3-0.1c2-0.5,3.3-0.8,4-1c1.5-0.4,2.7-0.8,3.8-1.2
		c0.2-0.1,0.4-0.1,0.5-0.1c0.1,0,0.3,0.1,0.4,0.3c0.5,0.8,0.9,1.7,0.9,2.4c-0.1,0.2-0.2,0.4-0.5,0.4c-0.2-0.2-0.5-0.5-0.9-0.9
		c-0.2-0.3-0.5-0.5-0.7-0.5c-0.6-0.1-1.1,0-1.7,0.2c-0.3,0.1-0.4,0.3-0.2,0.8c0.3,1.1,0.6,2.2,0.9,3.3c0.1,0.4,0.2,0.8,0.4,1.2
		c0.4,1.3,0.8,2.6,1.2,3.9l1,0.2c0.1,0.1,0.2,0.2,0.2,0.2c0.1,0.1,0,0.2,0,0.2c-0.4,0.3-0.9,0.6-1.7,0.9c-0.7,0.2-1.4,0.4-2.1,0.4
		c-0.4-0.2-0.5-0.4-0.3-0.6l0.6-0.6c0.1-0.2,0.1-0.3,0.1-0.5l-2.2-8.1C490.9,168.7,490.7,168.6,490.5,168.7 M440.6,164.7
		c0.9,0.2,1.5,0.4,1.8,0.5c0.7,0.2,1.3,0.5,1.7,0.7c0.3,0.2,0.5,0.4,0.4,0.6c-0.1,0.2-0.2,0.3-0.6,0.3h-0.5c-0.2,0-0.3,0.2-0.4,0.3
		c-0.2,2.1-0.2,4.4,0.2,7.1c0,0.2,0.1,0.2,0.2,0.2c0.1,0,0.2-0.1,0.3-0.2c1.5-1.4,2.9-2.9,4.2-4.6l0.1-0.1c0.2-0.2,0.2-0.5,0.2-0.7
		c0-0.1-0.2-0.3-0.4-0.6c-0.2-0.2-0.3-0.5-0.2-0.6c0.1-0.2,0.3-0.3,0.6-0.2c1,0.2,2,0.6,2.9,1c0.5,0.4,0.4,0.7-0.4,0.9
		c-0.4,0-0.8,0.1-1,0.4c-1.7,1.8-4.2,4.5-7.5,8.1c-0.3,0.3-0.5,0.2-0.6-0.1c-0.4-3.4-0.6-7-0.6-10.8c0-0.5-0.2-0.8-0.5-1.1
		c-0.3-0.2-0.4-0.4-0.4-0.6C440.1,164.8,440.3,164.7,440.6,164.7 M439.7,164.6c0.1,0.2,0.1,0.3,0.1,0.5c-0.1,0.2-0.2,0.2-0.4,0.3
		l-0.6,0.1c-0.2,0.1-0.3,0.2-0.4,0.3c-1.4,2.5-2.6,5.1-3.7,7.8c0,0.1,0,0.2,0,0.3c0.1,0.1,0.1,0.1,0.1,0.2l0.4,0.5
		c0.2,0.3,0,0.5-0.5,0.6c-0.5-0.2-1.1-0.4-1.6-0.6c-0.6-0.3-1.2-0.6-1.8-0.9c-0.2-0.2-0.2-0.4-0.2-0.5c0-0.1,0.2-0.2,0.4-0.2
		c0.2,0,0.4-0.1,0.7-0.1c0.2,0,0.3-0.1,0.4-0.2c1.2-2.2,2.4-4.8,3.6-7.8c0.1-0.2,0.1-0.3,0.1-0.3c0-0.2,0-0.2-0.1-0.3
		c-0.4-0.3-0.5-0.5-0.4-0.8c0.1-0.2,0.3-0.3,0.8-0.2C437.6,163.4,438.7,163.9,439.7,164.6 M432.7,163.1c0.2-0.2,0.2-0.4,0.1-0.7
		l-0.5-0.6c0.1-0.5,0.3-0.6,0.6-0.5c0.9,0.3,1.8,0.8,2.4,1.5c0.2,0.5,0,0.8-0.5,0.8c-0.3-0.2-0.6-0.2-0.9,0
		c-1.8,2.7-3.6,5.6-5.2,8.6c-0.1,0.1-0.2,0.2-0.2,0.1c0,0-0.2-0.1-0.3-0.2c-0.3-0.2-0.7-1.6-1.1-4.2c-0.3-1.7-0.7-4.3-1.2-7.9
		l-3.6,6.3c-0.2,0.6-0.1,1,0.2,1.1c0.3,0.6,0.1,0.9-0.7,0.8c-0.7-0.2-1.4-0.6-2-1.1c-0.3-0.3-0.4-0.5-0.3-0.8
		c0.1-0.2,0.3-0.3,0.6-0.3c0.3,0,0.4,0,0.5,0c0.2,0,0.3-0.1,0.3-0.2c1.6-2.4,3.1-4.9,4.4-7.5c0.1-0.2,0-0.3-0.2-0.5
		c-0.5-0.7-0.3-1,0.4-1c0.8,0.2,1.5,0.6,2.1,1.1c0.4,3.9,1,7.5,1.7,10.8C430.7,167,431.8,165.1,432.7,163.1 M451.8,169.5
		c-0.5-0.5-0.3-0.8,0.5-0.9l7,1.3c0.6-0.1,0.9-0.1,1,0.2c0.2,0.7,0.2,1.5,0.1,2.2c-0.2,0.3-0.4,0.4-0.6,0.2
		c-0.2-0.1-0.3-0.4-0.5-0.8c-0.1-0.4-0.4-0.7-0.8-0.9l-2.8-0.5h-0.4c-0.3,0.1-0.5,0.3-0.6,0.7c-0.2,0.7-0.5,1.6-0.6,2.6
		c-0.1,0.3,0.1,0.5,0.3,0.5l1.8,0.4c0.3,0.1,0.6,0,0.8-0.2c0.2-0.1,0.3-0.4,0.4-0.8c0.1-0.2,0.1-0.3,0.2-0.4
		c0.1-0.1,0.1-0.2,0.2-0.2c0.2-0.1,0.3-0.1,0.4,0c0.1,0.1,0.2,0.1,0.2,0.3v0.8c-0.1,1.2-0.4,2.4-0.9,3.7c-0.1,0.1-0.2,0.1-0.3,0.1
		c-0.1-0.1-0.2-0.2-0.2-0.3l-0.1-1.2c0-0.3-0.2-0.6-0.5-0.7l-2.2-0.3c-0.2,0-0.3,0.2-0.4,0.5l-0.4,3.1c0,0.3,0.2,0.5,0.3,0.6
		c1.1,0.3,2.2,0.5,3.3,0.7c0.4,0.1,0.8-0.1,1.1-0.5c0-0.1,0.1-0.1,0.1-0.1l0.7-0.8l0.3-0.3c0.3-0.2,0.5,0.1,0.4,0.8
		c-0.1,0.5-0.2,0.9-0.4,1.3c-0.2,0.4-0.4,0.8-0.7,1.1c-0.2,0.2-0.3,0.3-0.5,0.2c-0.1-0.1-0.3-0.2-0.6-0.3c-2.6-0.4-4.5-0.8-5.9-1
		c-0.8-0.2-1.3-0.3-1.5-0.4c-0.3-0.2-0.4-0.4-0.1-0.7c0.2-0.2,0.4-0.3,0.6-0.3c0.2,0,0.3-0.1,0.4-0.3c0.3-0.7,0.5-1.9,0.9-3.6
		c0.2-1.3,0.5-3,0.8-4.9c0-0.2-0.1-0.4-0.2-0.5L451.8,169.5 M419.2,151.5c0.2,0.5,0.2,0.7-0.3,0.8c-0.5-0.3-0.8-0.4-1.2-0.1
		c-1.1,1-2.1,2.1-3.1,3.2c0,0.1-0.1,0.1-0.2,0.2c-0.6,0.8-1.2,1.6-1.8,2.4c-0.2,0.3-0.2,0.7-0.2,1.1c0.2,0.7,0.5,1.4,1.1,1.9
		c0.6,0.5,1.2,0.8,1.9,1c0.7-0.1,1.3-0.4,1.8-0.8c0.1,0,0.1-0.1,0.1-0.1l0.1-0.1c1.6-1.6,3.1-3.3,4.4-5c0.1-0.2,0.2-0.3,0.2-0.5
		c0-0.2-0.2-0.4-0.3-0.7c0-0.2,0-0.3,0-0.3c0.1-0.1,0.2-0.2,0.4-0.2c0.8,0.4,1.6,1.1,2.3,2c0.1,0.3,0.1,0.5-0.1,0.6
		c-0.2,0.1-0.2,0.1-0.3,0.1c-0.1,0-0.2-0.1-0.5-0.2c-0.3-0.1-0.6-0.1-0.8,0.2l-4.2,4.7c-0.2,0.2-0.3,0.3-0.5,0.5
		c-0.1,0.1-0.1,0.1-0.2,0.2c-0.4,0.3-0.8,0.5-1.3,0.6c-0.5,0.1-0.8,0.2-0.9,0.2c-0.3,0-0.6-0.1-1.1-0.2c-0.6-0.2-1.1-0.4-1.5-0.7
		c-0.5-0.3-0.8-0.7-1.2-1.1c-0.6-0.8-1-1.6-1.2-2.4c0-1.1,0.2-2.1,0.8-2.8l4.4-5.1c0.2-0.2,0.2-0.4,0.2-0.5
		c-0.2-0.3-0.3-0.6-0.3-0.8c0.1-0.2,0.3-0.3,0.5-0.3C417.5,150,418.5,150.8,419.2,151.5 M514.1,158.8c-0.3-0.2-0.6-0.4-0.8-0.3
		c-0.5,0-1.1,0.2-1.6,0.6c-0.2,0.2-0.2,0.4,0,0.8c0.5,1,1.1,2,1.7,2.9c0.2,0.4,0.4,0.7,0.7,1.1c0.7,1.2,1.4,2.3,2.2,3.4l1-0.1
		c0.1,0,0.2,0.1,0.3,0.2c0.1,0.1,0.1,0.2,0,0.3c-0.3,0.4-0.7,0.8-1.4,1.3c-0.6,0.4-1.3,0.7-1.9,0.9c-0.4-0.1-0.6-0.2-0.5-0.5
		l0.4-0.7c0-0.2,0-0.3-0.1-0.5l-4.3-7.3c-0.3-0.2-0.5-0.3-0.7-0.2c-0.5,0.2-0.8,0.4-1,0.7c-0.5,0.5-0.5,1.1-0.3,1.9
		c0,0.7-0.3,0.9-0.7,0.8c-0.5-0.6-0.9-1.4-1.2-2.4c0-0.2,0-0.3,0.1-0.5c0.1-0.1,0.2-0.2,0.3-0.2c1.8-1,3-1.6,3.6-2
		c1.3-0.8,2.4-1.5,3.4-2.1c0.2-0.2,0.3-0.2,0.5-0.2c0.1,0,0.3,0.1,0.5,0.2c0.8,0.7,1.2,1.4,1.5,2.1c0,0.2-0.2,0.4-0.4,0.5
		C515,159.4,514.6,159.2,514.1,158.8 M502.6,162.9c0-0.1,0-0.1,0.1-0.1l1.3-0.5h0.1c0.1,0,0.1,0.1,0.1,0.1l0.7,1.3c0,0,0,0.1,0,0.1
		c0,0,0,0.1-0.1,0.1l-1.3,0.6h-0.1c-0.1,0-0.1-0.1-0.1-0.1l-0.7-1.3V162.9 M499.3,164.6l0.6,1.3v0.1c0,0.1-0.1,0.1-0.1,0.1l-1.4,0.5
		h-0.2l-0.1-0.1l-0.6-1.3c0,0,0-0.1,0-0.1c0,0,0.1-0.1,0.1-0.1l1.4-0.5C499.1,164.5,499.2,164.5,499.3,164.6
		C499.2,164.6,499.3,164.6,499.3,164.6 M511.2,170.9c-0.1-0.2-0.2-0.3-0.5-0.3c-0.3,0.1-0.5,0.1-0.5,0.1c-0.2,0-0.5-0.1-0.8-0.3
		c-1.2-1-2.8-2.5-4.9-4.3c-2.1-1.9-3.2-2.8-3.4-2.8c-0.2,0-0.5,0.1-0.7,0.3c-0.2,0.2-0.3,0.4-0.2,0.5c0.1,0.2,0.2,2,0.5,5.4
		c0.1,1.7,0.2,3.4,0.3,5c-0.2,0.5-0.5,1-0.8,1.4c0,0.3,0.1,0.5,0.5,0.5c0.6-0.2,1.1-0.4,1.7-0.7v0c0.1,0,0.2-0.1,0.3-0.1
		c0.5-0.3,0.9-0.5,1.3-0.8c0.1-0.2,0.1-0.3,0-0.5c-0.1-0.2-0.4-0.2-0.7-0.2c-0.2,0-0.4,0-0.5,0c-0.1-0.1-0.2-0.1-0.3-0.2l-0.1-0.1
		c-0.2-0.3-0.3-0.8-0.2-1.5c-0.1-0.2,0.1-0.4,0.4-0.5c1.1-0.6,2.4-1.1,3.7-1.7c0.6,0.4,1.1,0.9,1.5,1.5c0.1,0.2,0.1,0.3,0,0.5
		c-0.3,0.2-0.5,0.4-0.5,0.5c-0.2,0.3-0.1,0.5,0.4,0.6c1.4-0.4,2.7-1,3.8-1.8C511.2,171.2,511.3,171.1,511.2,170.9 M501.7,170.7
		l-0.3-4.4c0-0.1,0.1-0.2,0.2-0.1l3.2,3L501.7,170.7z M383.9,94l1.9-0.7l-0.2-2.1l1.6,1.2l1.7-1.3l-0.4,2.1l2,0.7l-1.9,0.8l0.3,2.1
		l-1.7-1.3l-1.7,1.2l0.3-2.1L383.9,94 M552.6,92.5l-1.6-1.3l0.2,2.1l-1.9,0.7l2,0.8l-0.4,2.1l1.7-1.2l1.7,1.3l-0.3-2.1L556,94
		l-2-0.7l0.4-2.1L552.6,92.5"/>
</g>
</svg>
