<svg id="Ebene_1" data-name="Ebene 1" xmlns="http://www.w3.org/2000/svg" width="45.26mm" height="9.67mm" viewBox="0 0 128.3 27.4">
  <defs>
    <style>
      .cls-1 {
        fill: #1d1d1b;
      }

      .cls-2 {
        fill: #adc913;
      }
    </style>
  </defs>
  <title>IKON-Logo-screen</title>
  <polygon class="cls-1" points="33.76 0.18 33.76 1.65 37.45 1.65 37.45 25.8 33.76 25.8 33.76 27.26 42.6 27.26 42.6 25.8 39.46 25.8 39.46 1.65 42.6 1.65 42.6 0.18 33.76 0.18"/>
  <polygon class="cls-1" points="63.42 0.16 63.42 1.63 66.46 1.63 58.48 12.81 51.27 12.81 51.27 1.63 54.69 1.63 54.69 0.16 45.85 0.16 45.85 1.63 49.26 1.63 49.26 25.78 45.85 25.78 45.85 27.24 54.69 27.24 54.69 25.78 51.27 25.78 51.27 14.07 58.46 14.07 66.28 25.78 63.42 25.78 63.42 27.24 72.25 27.24 72.25 25.78 68.37 25.78 60.01 13.2 68.26 1.63 72.25 1.63 72.25 0.16 63.42 0.16"/>
  <polygon class="cls-1" points="119.47 0.16 119.47 1.63 122.88 1.63 122.88 24.34 107.16 0.21 107.15 0.22 107.15 0.16 101.28 0.16 101.28 1.63 105.14 1.63 105.14 25.78 101.28 25.78 101.28 27.24 110.11 27.24 110.11 25.78 107.15 25.78 107.15 3.48 122.36 27.24 122.88 27.24 124.89 27.24 124.89 1.63 128.3 1.63 128.3 0.16 119.47 0.16"/>
  <path class="cls-2" d="M0,.25v27H27V.25Zm22.43,16v-2H16.61a3.13,3.13,0,0,1-.55,1.33l4.11,4.11,1.43-1.43v3.58H18l1.43-1.43-4.11-4.11a3.13,3.13,0,0,1-1.33.55v5.82h2l-2.53,2.53L11,22.68h2V16.86a3.13,3.13,0,0,1-1.33-.55L7.55,20.43,9,21.86H5.41V18.28l1.43,1.43L11,15.6a3.13,3.13,0,0,1-.55-1.33H4.58v2L2.05,13.76l2.53-2.53v2H10.4A3.13,3.13,0,0,1,11,11.92L6.84,7.81,5.41,9.24V5.66H9L7.55,7.09l4.11,4.11A3.13,3.13,0,0,1,13,10.65V4.84H11l2.53-2.53L16,4.84H14v5.82a3.13,3.13,0,0,1,1.33.55l4.11-4.11L18,5.66H21.6V9.24L20.17,7.81l-4.11,4.11a3.13,3.13,0,0,1,.55,1.33h5.82v-2L25,13.76Z"/>
  <path class="cls-1" d="M95.27,7.88v11.6c0,3.83-2.68,6.48-7.9,6.48h-2c-5.22,0-7.7-2.91-7.9-6.48V7.88c0-3.39,2.71-6.41,7.9-6.41h2c5,0,7.83,3.36,7.89,6.41m2,0c0-4.41-4-7.8-8.56-7.88H84.14c-5,.22-8.64,3-8.64,7.88v11.6C75.5,24.14,79,27.4,84,27.4h4.68c5.11,0,8.53-3,8.53-7.93Z"/>
</svg>
