<?xml version="1.0" encoding="utf-8"?>
<!-- Generator: Adobe Illustrator 21.1.0, SVG Export Plug-In . SVG Version: 6.00 Build 0)  -->
<svg version="1.1" id="Ebene_1" xmlns="http://www.w3.org/2000/svg" xmlns:xlink="http://www.w3.org/1999/xlink" x="0px" y="0px"
	 width="960.1px" height="372px" viewBox="0 0 960.1 372" style="enable-background:new 0 0 960.1 372;" xml:space="preserve">
<style type="text/css">
	.st0{clip-path:url(#SVGID_2_);}
	.st1{clip-path:url(#SVGID_4_);}
	.st2{clip-path:url(#SVGID_6_);fill:#AFCA0B;}
	.st3{clip-path:url(#SVGID_8_);}
	.st4{clip-path:url(#SVGID_10_);}
</style>
<g>
	<defs>
		<rect id="SVGID_1_" x="157.2" y="-44.7" width="645.7" height="456.6"/>
	</defs>
	<clipPath id="SVGID_2_">
		<use xlink:href="#SVGID_1_"  style="overflow:visible;"/>
	</clipPath>
	<path class="st0" d="M775.3,283.3v-8.1h-16v-6.7h11.2v-7.8h-11.2v-5.8H775v-8.1h-25.7v36.6H775.3L775.3,283.3z M722.1,274.8v-19.6
		h3.5c2.7,0,4.6,0.8,5.8,2.5s1.9,4,1.9,7c0,3.1-0.6,5.6-1.9,7.4c-1.3,1.8-3.4,2.8-6.1,2.8L722.1,274.8L722.1,274.8L722.1,274.8z
		 M724.8,283.3c2.9,0,5.5-0.4,7.8-1.2s4.2-2.1,5.8-3.7c1.6-1.6,2.8-3.6,3.6-5.9c0.8-2.4,1.2-5.1,1.2-8.1c0-6-1.5-10.4-4.7-13.3
		c-3.1-2.9-7.6-4.4-13.4-4.4h-13v36.6H724.8z M704.5,283.3v-36.6h-9.2v20h-0.1l-10.9-20.1h-11.1v36.6h9.2v-21.4h0.1l12.2,21.4
		L704.5,283.3L704.5,283.3z M655.9,269.8c0,2-0.5,3.5-1.5,4.5c-1.1,1.1-2.5,1.5-4.3,1.5c-1.8,0-3.2-0.5-4.1-1.5
		c-0.9-1.1-1.3-2.5-1.3-4.5v-23.1h-10v21.2c0,2.5,0.2,4.8,0.8,6.8c0.5,2,1.4,3.7,2.6,5.1c1.2,1.4,2.8,2.4,4.7,3.1
		c1.9,0.7,4.3,1.1,7.1,1.1c2.8,0,5.2-0.4,7.2-1.1s3.7-1.8,4.9-3.1c1.3-1.4,2.2-3.1,2.8-5.1c0.6-2,0.9-4.3,0.9-6.8v-21.2h-10
		L655.9,269.8L655.9,269.8z M631.7,283.3l-11.8-23.5l10.1-13.1h-10.7L609,261.2h-0.1v-14.6h-10v36.6h10v-9.4l4.4-5.7l7.3,15h11.1
		V283.3z M573.4,262.3v-7.5h4.4c0.5,0,1,0.1,1.5,0.2c0.5,0.1,1,0.2,1.5,0.5c0.5,0.2,0.8,0.6,1.2,1.2c0.3,0.5,0.5,1.2,0.5,2
		s-0.2,1.5-0.5,2c-0.3,0.5-0.8,0.8-1.2,1.2c-0.5,0.3-1.1,0.5-1.6,0.5c-0.6,0.1-1.2,0.2-1.7,0.2h-4V262.3z M594.2,283.3l-7.3-16
		c1.7-0.9,3.1-2.1,4.1-3.7c1-1.6,1.5-3.5,1.5-5.8c0-7.4-5-11-15-11h-14.1v36.6h10v-13.2h4.6l5.2,13.2L594.2,283.3L594.2,283.3
		L594.2,283.3z M546.2,269.8c0,2-0.5,3.5-1.5,4.5c-1.1,1.1-2.5,1.5-4.3,1.5s-3.2-0.5-4.1-1.5c-0.9-1.1-1.3-2.5-1.3-4.5v-23.1h-10
		v21.2c0,2.5,0.2,4.8,0.8,6.8c0.5,2,1.4,3.7,2.6,5.1c1.2,1.4,2.8,2.4,4.7,3.1c1.9,0.7,4.3,1.1,7.1,1.1c2.8,0,5.2-0.4,7.2-1.1
		c2-0.7,3.7-1.8,4.9-3.1c1.3-1.4,2.2-3.1,2.8-5.1c0.6-2,0.9-4.3,0.9-6.8v-21.2h-10L546.2,269.8L546.2,269.8z M511.1,283.3v-28.5h9.2
		v-8.1H492v8.1h9.2v28.5H511.1z M475.1,254.8L475.1,254.8l3.1,12.4h-6.1L475.1,254.8z M492.4,283.3l-10.5-36.6h-13.1l-10.5,36.6h10
		l1.9-8h9.9l1.9,8H492.4z M453.7,283.3v-36.6h-9.2v20h-0.1l-10.9-20.1h-11.1v36.6h9.2v-21.4h0.1l12.2,21.4L453.7,283.3L453.7,283.3
		L453.7,283.3z"/>
</g>
<g>
	<defs>
		<rect id="SVGID_3_" x="157.2" y="-44.7" width="645.7" height="456.6"/>
	</defs>
	<clipPath id="SVGID_4_">
		<use xlink:href="#SVGID_3_"  style="overflow:visible;"/>
	</clipPath>
	<path class="st1" d="M747.8,216.4v-7.5h4.4c0.5,0,1,0.1,1.5,0.2c0.5,0.1,1,0.2,1.5,0.5c0.5,0.2,0.8,0.6,1.2,1.2
		c0.3,0.5,0.5,1.2,0.5,2c0,0.8-0.2,1.5-0.5,2c-0.3,0.5-0.8,0.8-1.2,1.2c-0.5,0.3-1.1,0.5-1.6,0.5c-0.6,0.1-1.2,0.2-1.7,0.2h-4V216.4
		z M768.6,237.3l-7.3-16c1.7-0.9,3.1-2.1,4.1-3.7c1-1.6,1.5-3.5,1.5-5.8c0-7.4-5-11-15-11h-14.1v36.6h10v-13.2h4.6l5.2,13.2
		L768.6,237.3L768.6,237.3z M724.1,191.7h-7.4v6.3h7.4V191.7z M713.3,191.7h-7.2v6.3h7.2V191.7z M720.5,223.8c0,2-0.5,3.5-1.5,4.5
		c-1.1,1.1-2.5,1.5-4.3,1.5c-1.8,0-3.2-0.5-4.1-1.5c-0.9-1.1-1.3-2.5-1.3-4.5v-23.1h-10v21.2c0,2.5,0.2,4.8,0.8,6.8
		c0.5,2,1.4,3.7,2.6,5.1c1.2,1.4,2.8,2.4,4.7,3.1c1.9,0.7,4.3,1.1,7.1,1.1c2.8,0,5.2-0.4,7.2-1.1c2-0.7,3.7-1.8,4.9-3.1
		c1.3-1.4,2.2-3.1,2.8-5.1c0.6-2,0.9-4.3,0.9-6.8v-21.2h-10L720.5,223.8L720.5,223.8z M678.6,237.3v-14.8h11.7v-7.8h-11.7v-5.8h16.3
		v-8.1h-26.2v36.6H678.6z M648.7,237.3v-36.6h-12.7l-6.6,23.9h-0.1l-6.3-23.9h-12.9v36.6h9.2v-23.2h0.1l6.1,23.2h8l6.1-23.2h0.1
		v23.2H648.7z M592.6,223.8c0,2-0.5,3.5-1.5,4.5c-1.1,1.1-2.5,1.5-4.3,1.5c-1.8,0-3.2-0.5-4.1-1.5c-0.9-1.1-1.3-2.5-1.3-4.5v-23.1
		h-10v21.2c0,2.5,0.2,4.8,0.8,6.8c0.5,2,1.4,3.7,2.6,5.1c1.2,1.4,2.8,2.4,4.7,3.1c1.9,0.7,4.3,1.1,7.1,1.1c2.8,0,5.2-0.4,7.2-1.1
		c2-0.7,3.7-1.8,4.9-3.1c1.3-1.4,2.2-3.1,2.8-5.1c0.6-2,0.9-4.3,0.9-6.8v-21.2h-10L592.6,223.8L592.6,223.8z M566.1,237.3v-8.1h-16
		v-6.7h11.2v-7.8H550v-5.8h15.7v-8.1h-25.7v36.6H566.1z M533.2,208.9c-1.2-3.2-3.1-5.4-5.4-6.7c-2.4-1.3-5.3-2-8.7-2
		c-1.9,0-3.7,0.2-5.3,0.8c-1.6,0.5-3.1,1.2-4.2,2.1c-1.2,0.9-2.1,2.1-2.8,3.3c-0.7,1.3-1,2.7-1,4.2c0,2.4,0.5,4.4,1.4,5.8
		c0.9,1.5,2.1,2.6,3.5,3.5c1.5,0.8,3,1.5,4.6,1.9c1.6,0.5,3.1,0.8,4.6,1.3c1.5,0.5,2.6,0.9,3.5,1.5c0.9,0.6,1.4,1.4,1.4,2.5
		c0,1.1-0.5,1.9-1.4,2.5c-0.9,0.5-2.1,0.8-3.4,0.8c-1.8,0-3.1-0.5-4.2-1.5c-1.1-0.9-1.7-2.2-2-3.8l-9.1,2.8c0.5,1.8,1.3,3.4,2.2,4.7
		c0.9,1.3,2,2.3,3.2,3.1c1.2,0.8,2.6,1.4,4.1,1.7c1.5,0.4,3.2,0.5,5.1,0.5c2.1,0,4.1-0.2,5.9-0.8c1.8-0.5,3.4-1.2,4.7-2.2
		c1.3-1,2.3-2.2,3-3.7c0.7-1.5,1.1-3.1,1.1-5.1c0-2.3-0.5-4.1-1.4-5.5c-0.9-1.4-2.1-2.5-3.5-3.3c-1.4-0.8-2.8-1.5-4.4-1.8
		c-1.6-0.5-3.1-0.8-4.4-1.2c-1.4-0.4-2.5-0.8-3.5-1.4c-0.9-0.5-1.4-1.3-1.4-2.4c0-0.9,0.4-1.6,1.2-2.1c0.8-0.5,1.6-0.8,2.7-0.8
		c1.3,0,2.5,0.3,3.5,1c1,0.7,1.8,1.7,2.3,3.1L533.2,208.9z M489.7,223.8c0,2-0.5,3.5-1.5,4.5c-1.1,1.1-2.5,1.5-4.3,1.5
		c-1.8,0-3.2-0.5-4.1-1.5c-0.9-1.1-1.3-2.5-1.3-4.5v-23.1h-10v21.2c0,2.5,0.2,4.8,0.8,6.8c0.5,2,1.4,3.7,2.6,5.1
		c1.2,1.4,2.8,2.4,4.7,3.1c1.9,0.7,4.3,1.1,7.1,1.1s5.2-0.4,7.2-1.1c2-0.7,3.7-1.8,4.9-3.1c1.3-1.4,2.2-3.1,2.8-5.1
		c0.6-2,0.9-4.3,0.9-6.8v-21.2h-10L489.7,223.8L489.7,223.8z M461.1,237.3v-36.6h-12.7l-6.6,23.9h-0.1l-6.3-23.9h-12.9v36.6h9.2
		v-23.2h0.1l6.1,23.2h8l6.1-23.2h0.1v23.2H461.1z"/>
</g>
<g>
	<defs>
		<rect id="SVGID_5_" x="157.2" y="-44.7" width="645.7" height="456.6"/>
	</defs>
	<clipPath id="SVGID_6_">
		<use xlink:href="#SVGID_5_"  style="overflow:visible;"/>
	</clipPath>
	<path class="st2" d="M472,136.7c-1.2,0.8-2.6,4.7-1.9,5.4c1.2,1.5,2.8,1.3,3.7-0.5c0.3-0.6,0.5-1.2,0.7-1.8
		c0.6-1.6,0.4-2.2-1.1-3.1C473,136.4,472.6,136.4,472,136.7 M413.1,191.9c0.8-1.2,0-2.8-1.3-3.6c-1.2-0.7-2.1-0.4-3.1,0.8
		c-0.3,0.4-14.3,23.2-18.3,30.4c-1.5,2.4,1.2,6.4,4.2,2.8c0.8-1.1,12.4-21.6,12.5-21.6c-0.2,1.5-1.5,13.1-1.5,17.5
		c0.9,9,7.1,5.2,5.4,1.3c-1.4-2.7,0.1-10.4,0.4-13.6C411.7,202.7,412.3,193.3,413.1,191.9 M393.1,155.8c-0.6-2.6-1.3-5.1-1.2-7.8
		c0.1-1.8-0.2-8.4,2.7-12.7c3.1-3.8,8.1,0.7,12-1.1c5.5-2.7,5.8-6.3,5.8-6.9c0.1-1.1-0.6-1.8-1.7-1.5c-1.7,0.1-3.9,2.1-5,3.1
		c-2.6,2.7-7.1-1.1-10-1.4c-0.9-0.2-1.6,0.2-2.1,1c-2,4.2-3.9,6.3-3.9,5.5c-0.2-1.3-1.1-3.7-3-3c-0.9,0.3-1.2,1.1-1.2,1.9
		c-0.1,2.5,2.6,22.2,3.1,23.8C389.1,159.7,393.8,160.3,393.1,155.8 M391.8,263.6c-0.4-0.9,0.2-1.5,0.2-1.6c0.2,0.4,0.9,2.1,1.2,2.5
		C393.1,264.6,392.5,265.2,391.8,263.6 M394.1,255.6c1.7-4.1,7.2-21.5,10.6-14.7c0.5,1.5,0.8,2.9,0.9,4.4c0.7,9.7-2.8,14.9-8.3,18
		c-0.5-1-2.3-4.8-2.9-5.8C394,256.8,393.8,256.4,394.1,255.6 M383.5,275.8c-1.6,5.4,2.8,5.4,4,1.6c0.2-0.5,3.2-9.1,3.4-9.9
		c0.9,0.2,1.7,1.2,2.5,1.2c1.2,0,1.7,0.6,2.2,1.5c5.1,10.3,7,12.8,12.3,12.4c2.2-0.3,4.7-3.2,4.1-5.1c-1.3-4-4,4-9.4-3.1
		c-1.6-2.2-2.5-4.7-3.2-7.3c1.2-1,6.7-3.3,8.9-9.3c1.9-4.5,2.5-9.4,2.1-14.2c-0.1-4.4-4.4-13.3-10.9-7.3c-3.2,3.8-5.1,8.9-5.9,10.8
		c-0.2,0.5-0.3,0.8-0.8,1c-1.4,0.4-1.9,1.5-2.1,2.7c-0.2,1.2-1.1,5.1-1.5,5.7c-1.7,1.8-2,4-1.8,6.3c0.1,1.1,0,2.1-0.4,3.1
		C385.8,269.2,384.6,272.5,383.5,275.8 M339.6,232.7c3.2-4.3,10.6-13.3,10.6-13.1c-1.5,3.8-3.3,9.4-4.8,13.3
		c-0.6,1.6-0.8,1.8-2.5,1.4C342,234.1,340.5,233.7,339.6,232.7 M349.6,233.8c0.5-3.1,2.1-5.7,3.4-8.4c2,1.5,3.8,2.9,5.8,4.4
		C355.8,231.5,353,233,349.6,233.8 M327.5,247.1c3.6-0.8,7.2-7.7,8.7-9.4c0,0,1.4,1.2,6,2.5c-0.2,0.6-5.1,14.7-5.1,15.3
		c0,1.1,2.6,4.6,5.4-3.8c0.3-0.5,2.2-5.8,3.8-10c0.5-1.5,1.4-2.2,2.9-2.5c2.9-0.6,13.3-6.4,13.4-6.4c-0.4,1.2-4.7,11.6-6.4,15.6
		c-2.1,4.7-3.7,8.6-5.8,13.3c-1.5,3.6,2.5,5.4,4.4,2c3.5-6.3,12-27.4,12.8-29.4c0.3-0.7,0.8-1,1.6-1c3.1,0.2,5.7,0.4,9-0.5
		c-6.8,9.5-12,17.9-16.2,27.1c-1.1,2.4-2,4.8-2.4,7.4c-0.2,0.8,0,7.9,6.5,2.4c0.8-0.8,14.8-15.4,15.3-16c-0.2,0.5-5.9,15.1-7.1,18
		c-2.8,6.7,1.5,6.1,2.4,4.1c0.2-0.5,7.6-17.5,11-25.4c1.2-2,0.1-7.6-4.4-3.9c-3.6,2.8-17.1,16.9-17.6,17.3c0.2-0.9,0.4-1.8,0.8-2.5
		c3.2-7.2,7.1-14.1,11.7-20.5c2.6-3.6,8.9-10.2,9.7-12.9c0.5-1.5-0.2-4.9-3.9-2.8c-4.3,2.8-9,3.2-14,2.2c-0.5-0.1-1.2-0.5-1.5-0.9
		c-0.7-1.1-1.5-1.4-2.7-0.9c-0.8,0.3-1.5,0.2-2.2-0.2c-1.2-0.7-5.7-4.6-6.8-5.8c-0.6-0.6-0.7-1.2-0.3-1.9c0.8-2.8,1.9-6.1,2.6-8.5
		c1.2-4.4,0.2-6.9-3.5-2.7c-3.8,5.1-18,22.2-18.9,22.8c-0.3-0.2-0.5-0.3-0.7-0.4c-1.5-0.8-2.5-0.6-3.4,0.8c-0.9,1.2-0.9,2.5-0.4,3.9
		c0.3,0.8,0.2,1.3-0.4,1.8c-0.4,0.4-4.4,4.9-5.9,6.7C324.1,244.1,325.2,247.1,327.5,247.1 M310.6,226.4c-1.1,1.1,0,4.1,2.8,2
		c2.5-2,6.4-7.1,6.5-7.1c-0.2,0.4-4,9.5-4,14.6c0,2.6,2,3.8,4.4,2.7c4.4-2.5,15-14.3,30.4-38.3c0.7-1.1,1-2.8,0.4-3.9
		c-0.8-1.2-2.8-0.7-3.8,0.3c-0.5,0.6-5.5,9.4-13.7,20.3c-8,11-12,15.5-12.7,15.3c-0.9-0.5,2.8-10.9,7-22.1c1.5-3.8,6.4-10,7.5-11.7
		c1.8-2.8-2.2-7.1-4.1-3.9c-0.6,0.9-5.9,11.4-8.8,15.3C319.3,214.6,311.1,225.5,310.6,226.4 M298,102.9c-0.2,0.5-0.2,1.1-0.2,1.7
		c0,0.8-1,2.8-1.2,3.4c-1.2,2.8-2.2,5.6-2.8,8.6c-1.6,8.7-3.4,17.4-5,26.2c-1.1,5.7-1.9,11.4-1.8,17.2c0,1.6,0.3,3.1,0.8,4.5
		c0.5,1.3,1.5,2.1,2.8,2.5c1.6,0.3,4.4-1.5,1.6-5.1c-0.6-0.5-0.8-1.2-0.8-1.9c-0.3-3.1,0.4-7.4,0.8-9.7c0.8-4.6,1.6-10,2.5-14.6
		c0.1,0,1.8-12,1.8-12c0,0.3-1.2,13.4-1.2,13.7c-0.5,3.1-0.6,6.1-0.2,9.1c2,16.3,6.5,17.9,7.4,18.4c2,1.1,4.9,0.8,6.5-3.9
		c1.8-5.8,2.8-11.7,3.9-17.6c2-11,3.8-22.1,5.8-33.2c0.5-3.1,1-6.1,3.5-8.4c0.8-0.7,0.6-1.8,0-2.6c-1.2-1.8-3.4-1.9-4.7-0.3
		c-0.6,0.8-1.1,1.9-1.3,2.9c-1.2,5.2-2.4,10.4-3.4,15.7c-1.8,9-2.5,16.8-4.2,25.8c-0.9,4.6-2,10.3-3.5,14.8
		c-1.1,2.5-3.1-1.6-3.6-3.2c-1-3.4-1.4-6.8-1.7-10.3c-0.3-6.8,1.8-18.9,2.6-26.5c0.5-4.1,0.6-8.5,0.8-12.7c0-0.3-0.3-2.7-2.4-3.7
		C299.8,101,298.4,101.6,298,102.9 M362.5,76.9c-1.7,1.8-3.4,3.5-5,5.3c-2.2,2.5-4,5.4-5.4,8.6c-2.1,4.7-3.6,9.4-4.4,14.5
		c-0.8,4.6-1.6,9.3-2.5,14c-0.2-0.2-3-19.5-3.8-25.2c0,0,1.5,0.2,3.5-1.8c1-0.9,2.5-3.7,2.1-6.8c-0.6-2.8-2.4-12.2-2.8-14.8
		c1.6-0.1,1.5-0.1,2,1.2c1,2.9,1.9,5.9,3,8.8c2.1,4.3,5.9,0.7,4.6-2c-0.8-1.9-2.6-6.4-2.7-6.8C354.2,71.7,361.7,74.2,362.5,76.9
		 M348.2,61.3c-1.3-7.3,0.9-15.4,1.2-17.3c3.3,2.5,5.5,5.4,5.5,9.6c0,2.5-0.8,4.6-3.2,5.8C350.6,59.9,349.5,60.5,348.2,61.3
		 M389.7,31.5c0.2-0.2,0.3-0.5,0.4-0.8c0.3-1.6-0.8-3-2.5-3.3c-1.3-0.3-2.6,2.2-2.6,2.2c-1.1,4.1-1.8,8.3-2.2,12.5
		c-0.5,4.9-0.7,9.7-0.3,14.6c0.4,8.7,2.9,14.6,2.1,14.6c-1.2,0-12.7-24.5-16-31.5c-0.9-2-2.1-3.8-3.3-5.8c-0.7-1.7-6.6-3.3-4.2,5.6
		c0.9,3.8,8.7,31.4,9,33.2c-1,0.5-2.3,1.1-3.2,1.5c-0.2-0.2-2-3.7-6.5-5.2c-3.1-1.2-10.4-2.7-11-2.8c1.7-2.9,5.2-2.7,7-4.4
		c2.7-2.2,7.1-12.3-3.4-20.9c-0.8-0.7-6.2-5-7.7,1c-0.2,0.6-2.2,11.5-1.2,19c0.2,1.1,0.2,2.1,0.3,3.2c-1,0.7-1.8,1.3-3.1,0.8
		c-0.8-0.3-3.1,0-2.3,2.8c0.4,1.1,3.5,13.7,4.1,17c0.1,0.5,1.2,4.9-2.8,5.1c-3.8,0-7.2-14.1-7.4-14.7c-1.7-3.8-5.3-0.3-4.6,1.3
		c-3.1,3-6.4,6-6.7,6.1c-1.5-3.2-2.8-6.4-4.3-9.6c0.7-0.8,10.4-11.3,14.6-15.5c1.7-1.7,4.1-3.6,5.9-5.2c0.5-0.4,1.1-0.7,1.8-0.6
		c0.9,0.1,1.6-0.5,2-1.3c0.3-0.8,0.1-1.6-0.7-2.3c-1.1-0.9-2.2-1.1-3.5-0.5c-4.4,1.8-15.6,13.3-26.6,26.2c-1.9,2.1-7.5,10.3-8.7,12
		c-0.6,0.9-3.5,3.5-2,5.2c0.5,0.8,3.1,3.3,7.1-5c1.8-3.1,6.6-9.3,7-9.8c1.5,3.2,2.8,6.1,4.1,9c-1.2,0.8-1.8,1.8-1.3,3.1
		c0.6,1.5,2.1,1.4,3.4,1.3c0.3,0.5,4.4,9.5,4.8,9.8c1.8,2.1,4.8-0.1,3.9-1.9c-0.2-0.5-5.1-10.6-5.1-10.7c3-3.1,2.7-3.2,5.7-6.4
		c1.2,3.1,6.3,12.6,6.3,12.7c-0.2,1.2-3.6,11.3-5.8,18.7c-1.2,3.8-4.1,12.7-4.8,13.1c-0.8-1.1-1.2-2.1-1.3-3.5
		c-0.2-5.1-4.8-3.8-4.8-0.8c0.1,2.6,0.7,7.5,4.2,8.8c6.7,2.5,8-8.1,11.7-20.4c1.3-4.4,2.3-7.9,2.5-8.3c0.1,0.2,1.7,11.5,2.5,17
		c0.5,3.4,0.9,6.7,2.2,9.9c2.3,3.8,6.5,1.1,7.1-4.1c0.7-5.7,3.5-33.5,15.4-43.3c0,0,4.1,2.3,3.8-2.2c0,0,1.9-0.8,2.4-1.1
		c0.2,0.4,3,10.6,4.2,15.3c0.6,2.4,5.8,2.4,4.1-2.3c-1.2-4.1-3.1-10.5-4.4-14.6c0,0,2.5-0.9,2-2.8c-0.4-1.6-3-1.3-3.1-1.3
		c-1.8-6.7-5.9-22.6-5.8-22.3c1.4,3.2,9.4,18.8,11,21.5c1.2,1.9,4.7,9.6,8.8,8.7c2.4-0.9,1.4-6.1,1.1-7.7
		c-1.1-5.6-1.8-11.2-2.1-16.9c-0.5-7.3,0.1-14.4,1.9-21.6C388.9,32.6,389,31.9,389.7,31.5 M337,64.3c-0.3-1.5-1.1-4.8-1.2-4.9
		c-0.5-0.8-4.5-2-3.4,1.2c0.4,1.1,1.6,4.5,2,5.1C335.1,66.3,337.1,66.5,337,64.3 M329.5,70.1c0.9,0.8,2.7,0.8,2.4-0.2
		c-0.8-1.7-1.7-5.5-1.7-5.6c-1.3-2.1-3.1-0.5-3.1,0.5C327.1,66.9,328,68.6,329.5,70.1 M404.7,46c-1.9,0.8-4.5,1.6-6.4,1.9
		c-0.2-2.8,1.2-17.2,2.3-20.3C401.8,33,403.5,40.9,404.7,46 M443.4,21.8c-5.1,1.8-23.2,8.1-23.2,8.1c-2.9-3.1-5.2,0.2-4.6,1.7
		c-3.1,1.2-6.1,2.1-9.4,2.9c-0.2-0.7-1.8-7.6-2.5-10.6c-0.5-2.8-4.1-5.9-6.2,0.3c-1.9,6-2.9,12.1-3.6,18.3c-0.2,2.1-0.4,4.1-0.6,6.1
		c-1.5,0.2-2.8,0.5-3.1,2.2c-0.3,1.8,0.9,2.5,2.4,3c-0.1,0.8-0.1,1.5-0.2,2.2c-0.2,2.6-0.5,5.2-0.6,7.9c-0.1,2.2,0,4.5,0.2,6.7
		c0.1,1.4,1,2.1,2.4,2.1c1.5,0,2.8-1.2,2.8-2.8c-0.9-6.4,0.5-15,0.6-16.6c2.6-0.8,5.8-1.8,8.4-2.5c0.3,0.8,3.2,10.1,5.7,12.6
		c2.9,2.5,4.8-1.9,2.9-3.1c-0.4-0.4-0.7-0.9-0.9-1.5c-1.5-3.1-3.7-9.3-3.8-9.7c0.5-0.3,3.1-1.7,3.9-2.1c1.1-0.6,1.1-3.5-2.4-2.9
		c-0.9,0.2-1.8,0.5-2.9,0.8c-0.5-1.7-0.8-3.3-1.2-5c3.2-1.5,6.3-2.6,9.6-3.8c0.8,3.1,9.9,37,10,37.3c1.8,2.7,4.8,0.7,4.1-1.9
		c-0.5-1.8-9.4-34.3-10-36.9c0.5-0.2,16.8-5.9,24.3-8.4C449.9,25.2,448.4,19.7,443.4,21.8 M454.1,44.5c-0.1-1.8-0.1-3.5,0-5.2
		c0.5-6-5.2-5.4-4.8-1.3c0.1,1.8,0.2,3.5,0.2,5.2c0,1.5,0.1,2.9,0.1,4.4c0,1.8,0.5,10.4,0.5,14.2c-0.4,5.1-4.4,4.5-5.8,2.7
		c-4-5.5-5.8-20.6-7.4-25.5c-0.5-2.8-6.3-3.2-5.1,0.8c1.1,2.5,2.1,5.1,2.8,7.7c1.2,4.3,2.8,21.3,11.4,23.4c3.3,0.8,8.5-1.1,8.6-8.4
		C454.5,56.5,454.2,50.5,454.1,44.5 M372.5,99.9c0.1,0.8-0.6,6.4-1.3,7.6c-1.2,2.1-2,3.1-4.7,6.7c-7.3,7.2-2.8-7.6-1.4-9.8
		C370.6,95.7,372.5,99.4,372.5,99.9 M342.8,149.4c-0.8,0.1-2.9,0.5-4.2-4.3c-2.5-7.4,1.4-8.6,2.6-6.7c2.1,2.4,3.3,5.1,4.9,7.7
		C347.6,148.1,343.9,149.3,342.8,149.4 M324,157.3c-6.6,4.4-1.2-13.9,0.4-17c0.5-0.8,2.5-4.3,3.2-2.5
		C329.8,144.5,327.6,154.8,324,157.3 M454.7,72.9c-3.1,0.8-5.8,2.1-8.6,3.5c-2,1.1-1.1,3.5-1,3.8c-0.5,0.7-2.5,4.8-7.4,6.5
		c-1.5,0.6-3.3-0.2-4-1.8c-0.7-1.6-1-3.3,0-5c0.8-1.5,0.2-2.9-1.6-3.3c-2.1-0.5-3.3,0.2-4.1,2.2c-1.7,4.1-3.1,8-6.1,11.3
		c-5.6,5-4.6-4.6-1.7-9.1c1.6-3.5-2.8-4.3-4.4-2.5c-0.7,0.6-2.1,2.9-2.4,3.1c-2.8,1.8-9.6,5.4-10,5.5c0-0.5,2-19.5,2.5-22.4
		c0.2-1.5,0.7-2.2-0.8-2.6c-0.6-0.2-1.2-0.2-1.8-0.2c-1.5,0.2-2.1,1-2.1,2.5c0,0.8,0,1.7-0.1,2.5c-0.8,5.8-1.4,11.5-1.5,17.3
		c-0.1,1.8-0.2,3.7-0.2,5.4c-0.7,0.6-1.4,0.8-2.2,0.5c-10.3-2.1-8.5,3.9-6.1,4.4c0.5,0.2,1.2,0.5,1.7,0.8c-0.2,0.5-3.8,6.8-6,10.3
		c-0.8,1.2-6.7,10.8-8.9,2.8c-1.1-4.8-0.8-8.7-1.3-11.3c-0.5-2.1-1.8-3.1-4.1-3.1c-2.4-0.1-4.4,0.7-5.9,2.5
		c-1.3,1.5-2.5,3.1-3.6,4.7c-2,3-3.3,6.3-4.1,9.9c-1.3,0.1-1.9,0.9-2.2,2.1c-0.4,1.2-0.8,2.2-1.1,3.4c-1.1,4.4-2.1,8.7-3,13
		c-0.8,4-2.5,11.5-4,12.8c-0.9-1.5-5.4-9.2-8.9-9.7c-2.1-0.5-3.8,0.6-4.5,2.8c-0.7,2.1-0.8,4.4-0.6,6.6c0.2,3,0.8,5.8,2.4,8.5
		c1.8,3.6,6,4,6.4,4.1c-3.5,8.7-5.1,1.9-5.8,0.2c-0.9-2.2-1.5-4.1-5.1-4.9c0-0.6,0.3-8.4,0.3-11.6c0-1.8-0.7-3.3-2-4.5
		c-2.7-2.5-7.5-3.1-10.7,6.3c-0.9,3.3-1.8,6.6-2.5,10c-0.5,2.4-0.5,4.8-0.5,7.3c0.7,7.5,6.8,4.8,7.9,4.6c-0.1,0.3-0.6,1.9-0.7,2.3
		c-0.4,2,3,4.2,4.6,0.2c0.8-2.8,1.5-5.6,2.3-8.4c0.2-0.5,0.2-2.8,1.4,0c0.7,1.5,3.4,6.4,4.2,7.2c2.4,2,5.6,1.6,7.4-0.8
		c0.8-1.2,4.8-8.6,5.1-9c0.5,1.5,2.3,9.5,7.2,14c3.1,2.8,6.4,0.4,3.9-2.7c-1.7-2.8-8.3-7.1-5.3-18.5c0.8-1.8,3.9-5.3,5.8-7.2
		c2.8-3.5,2.9-0.8,2.8-0.2c-0.7,5.1-1.5,10.4-2.1,15.5c-0.2,1.9-0.3,3.9-0.2,5.9c0.6,5.4,6.3,4.7,8.3,2.4c2.7-2.8,7.1-19.1,7.1-19.5
		c0,1.1-1.6,11.4-1.6,13.8c0.1,2.3,0.6,4,2.6,5.3c2.1,1.2,7.5-2.4,7.1-4.4c-0.5-1.8-2.8-0.4-4.2,0.2c-0.7,0.1-1.1-1.2-0.5-5.2
		c0.6-6.4,0.9-18.3,1.1-20c0.1-1.8-0.5-2.6-1.5-2.8c-1.2-0.3-1.9,0.2-2.5,1.5c-0.8,1.8-8.4,21.6-9.1,23.5c-0.2,0.5-1.5,3.8-2.2,3.6
		c-1.5-0.2,2.4-23,2.1-24.7c-0.4-2.3-2.5-3.8-5-2.5c-0.9,0.5-1.9,1.1-2.8,1.7c-1.2,0.9-2.9,2.5-4.1,3.5c0.5-5.2,1.7-13.8,3.1-16.5
		c1.2,1.1,2.6,1,3.4,0.9c2.5-0.3,4.6-1.6,6.1-3.7c0.1-0.1,4-4.8,4.8-5.2c0.5,0.6,1.8,4.1,5.8,4.4c7.4,0.4,13-12.7,16.6-18.7
		c0.2-0.4,0.6-0.8,0.9-1.2c0.9,1.5,1.9,2.4,1.9,4.1c0,0.8,0.2,4,0.2,4.8c0.2,4.1-2.2,14.6,3.3,13.7c3-0.7,1.6-6.8,1.2-13.1
		c-0.5-6.8-0.2-13.8-0.2-13.8c2.2-1.3,8.9-4.9,9.2-5.1c0.2,1.7,0.2,3.2,0.4,4.8c0.6,3.4,2.6,5.1,6.1,4.4c2.4-0.5,5.1-1.5,9.7-8.6
		c0.2,0.2,2.3,4.7,8.2,3.5c7.2-2,10.2-7.5,10.5-8c1.1,2.3,1.5,4.1,0.5,11.6c-0.2,4.2,4.7,3.4,4.8,0.5c0.1-2.4,0.1-5.6,0-7.9
		c-0.3-4.4-1.5-7.1-1.7-8c1.4-0.6,3.5-1.4,4.8-2C459.7,75.9,459.5,71.9,454.7,72.9 M468.2,48c0.4-4.4,7.5-12.7,8.9-11.8
		C478.5,37.2,474.2,45.1,468.2,48 M490.7,64.6c-1.3-0.6-2.7-1.2-3.9-2c-5-3.1-10.4-5.3-16-6.8c-1.2-0.3-2.2-0.7-3.7-1.2
		c0.5-0.5,2.7-2.3,3.5-2.8c2.7-1.9,5.2-4,7.3-6.6c2.3-3,3.8-6.2,4-10c0.2-2.6-3.2-4.5-5.3-3.5c-7.3,3.9-11.5,10.6-12.7,18.2
		c-0.2,0.8-0.5,1.3-1.1,1.7c-8.4,3.6-1,6.4-0.5,6.6c-0.2,0.9-2.4,6.9,1.7,30.4c0.8,5.2,5.5,3.6,4.9-0.1c-0.5-3.4-3-18-2.8-22.3
		c0.1-1.9,0.3-4.8,0.4-6.7c0.3-0.1,10.9,2.1,20.6,9.4C491.4,70.4,493.3,65.7,490.7,64.6 M525.5,103.6c-0.7-0.1-1.6-0.1-2.3-0.1
		c-0.5,0-3.1,0.2-2.8-2.5c0.2-1,1.8-4.1,0.5-6.1c-1-1.8-2.5-2-3.9-0.5c-4.1,4.8-9.6,10.3-10.3,9.8c-0.5-0.3-0.2-1.4,0.1-2.1
		c0.5-1.8,2.5-6.4,1.7-9c-1-2.5-2.1-3.1-4.3-1.4c-2.1,1.8-4.2,3.8-6.3,5.8c-10.8,11-21.6,30.1-21.8,30.5c-1.1,2,0.9,3.8,2.2,2.2
		c2.5-3.6,5.4-8.1,8-11.7c4.5-6.5,9.4-11.7,14.5-17.6c0.3-0.4,0.8-1.3,1.3-0.9c0.2,0.5-0.4,4.1-0.3,5.4c0.1,1.3,0.7,2.5,1.5,3.4
		c1.5,1.6,3.4,1.6,5.8,0.2c2.1-1.3,5.8-5.4,6.4-6.1c0.5,1.2,1.2,2.3,2.1,3.4c2.3,2.1,6.8,1.6,8.6-0.8
		C526.9,104.6,526.6,103.7,525.5,103.6"/>
</g>
<g>
	<defs>
		<rect id="SVGID_7_" x="157.2" y="-44.7" width="645.7" height="456.6"/>
	</defs>
	<clipPath id="SVGID_8_">
		<use xlink:href="#SVGID_7_"  style="overflow:visible;"/>
	</clipPath>
	<path class="st3" d="M282.4,163.1c1.9-6-21.3-1.1-20.6-1.8c0.4-2.3,0.5-1.5-0.2-2.5c-1.1-1.4-4.8-1.1-6.9,0.6
		c-1.3,1-4.6,7.7-4.8,8.7c-0.3,1.7-0.1,3.2,1.8,4.2c2.8,1.4,4.1,1.5,7.7-0.5c10-5.8,14.5-2.8,21.6-6.7
		C281.5,164.4,281.9,163.8,282.4,163.1 M355.8,178.7c-3.9-0.5-6.4-2-8.5-5.4c-1.5-1.9-4.3-6.4-9-4.1c-1.2,0.6-11.3,7-15.2,9.5
		c-7.3,4.9-5.5-9.8-10.4-7.1c-0.5,0.2-14.5,10.4-19.5,13.9c-5,3.7-7.7,0.9-8.8-1.1c-2.8-4.6,3.8-12-3.5-13.6
		c-8.4-2.1-15.3,21.4-22,19.9c-8.1-1.5-1.8-11.3-7.4-11.7c-7.1-0.9-11.3,14.6-19.9,16.5c-1.4,0.3-7.4,0.8-5.8-3.3
		c8.7-21.4,15.9-43.6,25.7-63.4c9.8-21.1,19-28.9,21.8-32.9c6.5-7.3-0.9-24.2-13-8.1c-1.8,3.1-3.7,6.1-5.4,9.2
		c-10.5,19.2-21.7,49.5-36.9,79.3c-0.6,1.2-7.4,16.1-10,16.2c-0.3-0.1-5.4-1.5-7.2-1.2c-4.3,0.9-10.2,3.5-9.2,13.4
		c1.2,5.6,7.2,5.4,7.4,7.7c0.5,1.4,0,3.5-0.5,4.8c-1.5,3.6-12.4,27.5-13.3,32.7c-1.3,6.1,0.9,10.1,4.1,11c6.3,1.5,6.1-0.2,10.2-12.2
		c0.8-2.7,12.2-27.7,15.5-33.3c6.4-10.3,25.5-15.7,28.8-13.6c1.7,0.8,9.1,4.3,14,3.3c4.8-1.3,7.8-4.7,9.1-5.7c2.2-3,6.8,2,9.7,2.5
		c9.4,0.9,25.5-15.6,27.7-8.7c0.8,1.1-0.8,10-0.9,12c-0.2,1.6,2.6,5.1,5.2,2.7c1.2-1.3,13-17.3,25.9-25.9c3.5-3.3,8.9,2.1,9.8,2.8
		c3.6,2.7,7.1,3.1,10.9,0.6C357.1,184.3,360,179.1,355.8,178.7 M524.6,77.5c0.1-1.9,0.5-23.2-14.8-18.6c-5,1.8-12.7,8.9-15.5,12
		c-4.2,4.8-8.5,9.6-12.5,14.6c-8.8,10.9-16.8,22.4-24.2,34.3c-3.3,5.3-6.8,10.5-10.3,15.7c-0.8,1.2-3.3,3.5-4.7-0.6
		c-1.8-5.1-3.9-7.2,3.2-25.9c0.8-2.5-0.7-4.3-3.3-4.3c-0.5,0-4.5,0.7-5.7-0.2c-2.3-0.6-3.5-5.6-6.8-5.8c-2-0.3-8.1-0.3-9.1,3.5
		c-0.3,1.3-0.5,2.7-0.9,4c-0.3,1.2,0.5,3.5,1,4.4c5.7,7.4,7.2,9.8,6.5,13.3c-0.2,2.3-7.8,13.2-10.3,16.9
		c-5.1,7.6-25.1,33.3-29.1,39.2c-6,9.1-7.8,6.1-8.5,4.5c-0.4-0.8-1.5-5.2-2-6.4c-0.8-1.8-2.7-2.4-4.4-1.3
		c-5.8,4.7-6.6,19.2-5.8,26.4c1.1,7.1,3.6,9.9,5,10.8c4.1,3.5,9.7-5.1,11-6.8c14.7-19.5,45.4-60,46.1-60.8c0.5,2,3.2,7.1,2.1,13.1
		c-0.9,6.2-2.4,12.3-4.6,18.2c-1.2,3-4.4,10.6-4.7,11.4c-0.5,1.8-0.2,5.4,7.3,3.8c7.6-1.2,10.9-9.5,11.5-10.9
		c3.9-8.5,7.7-17.1,11.7-25.6c2.7-6,5.1-12.1,8.2-17.9c7.8-14.6,16.6-28.5,26.3-42c4-5.6,8.1-11.2,12.6-16.3c1.8-2.1,6.2-7.1,9-7.7
		c7.1-2.3,1.5,9.3,9.4,11C521.9,83.9,524.4,80.9,524.6,77.5 M467.4,176c-2.4,0.4-3.8-1.2-3.8-4.4c0.5-7.7,10.5-11.4,12.9-11.5
		c1.6-0.2,2.8,0.7,3.4,2.1C483.5,169.8,471.6,175.7,467.4,176 M653.6,154.4c0.1-1.5-0.4-2.1-1.9-2.2c-3.4-0.2-8.1,0.8-8.3-3.7
		c-0.4-1.7,1.8-9.3,2.5-11.7c0.2-0.8,1.7-9.4-15,7.7c-2.8,2.8-5.7,6.4-9.2,9.2c-1.8,0.9-4.4,1.5-4.4-5.3c-0.4-4.4-6.1-1.2-6.8-0.8
		c-5.3,2.9-11.4,7.6-19.9,10.7c-3.5,0.3-5.1-1.5-4.4-4.9c0.4-1.8,1.8-7.5,1.8-8.6c-0.1-2.5-1.6-3.8-4.1-3.4c-2.5,0.5-4,1.6-5.3,3.8
		c-0.8,1.2-5.3,10.3-9.1,13.7c-2.9,3-6.3,4.4-10.4,3.9c-7.4-2-1.5-9.8-1.2-14.9c0.3-2-0.8-3.1-2.8-3.1c-7.4-0.4-10.8,20.8-29.8,23.2
		c-11.5,1.5,7.5-29.5,12.5-38.8c4-11.5,45-15,74.8-24.1c7.1-2.5,9.3-3.9,8.4-6.1c-0.9-2.6-7.2-1.9-14.8-0.6
		c-16.3,3.3-52.3,10.8-53.3,11c-4.1,0.1-5.7-1.7-4.9-5c0.3-1.5,4-9.4,7.1-17.1c1.8-5.6-2.8-9.6-8.9,0.6c-3.8,6.7-7.7,13.4-11.4,20.2
		c-1.5,2.8-3.8,4.5-6.9,5.4c-10,2.8-33.7,9.8-35.6,10.6c-9.9,5.6-6.1,12.1-2.1,11.2c0.9-0.1,20.6-5.1,30.2-7.6
		c4.4-1.2,3.9,0.2,3.7,1.3c-0.2,0.7-14.7,33.8-25.2,37.9c-0.6,0.4-6.1,4.4-6.3-3.7c0.1-3.6,0.6-7.1,1.3-10.6
		c0.7-3.4-1.8-5.8-5.1-5.1c-0.8,0.2-2.1,1.1-10.9,1.4c-3.5,0.4-6.7,1.4-9.6,3.6c-19.9,14.3-17.6,27.2-16.3,29.4
		c5.8,9.7,17.2,5.9,20.1,5.3c3.8-0.9,7.1-3.1,10.2-5.5c3.6-3.3,7.6-1.4,8.9-0.8c3,1.2,5.8,0.8,8.4-0.8c8.6-6.7,8.6-6.3,10.8-4.2
		c1.9,1.8,4.4,3.5,6.9,4c6.7,2,19.6-5.1,21.7-6c6.1-2.4,6.5,4.5,12.3,4.8c5.9,0.1,13.1-3.6,16.5-5.3c3.8-1.9,3,2.8,9.4,1.3
		c7.7-2.1,16.8-8.6,20.1-9.8c8.5-4.3,9.1-0.1,8.7,1.3c-0.3,0.9-4.6,7.7-5.4,10.5c-0.2,1.9,3.3,1.5,4.6,1.5c2.1-0.2,4.8-1.8,9.8-5.9
		c10.3-10,17-14.3,18.6-15c1.8-0.8,3.8-0.9,5.4,0.5c1.8,1.5,3.8,2.6,6.1,2.9C649.4,161.5,653.3,158.5,653.6,154.4"/>
</g>
<g>
	<defs>
		<rect id="SVGID_9_" x="157.2" y="-44.7" width="645.7" height="456.6"/>
	</defs>
	<clipPath id="SVGID_10_">
		<use xlink:href="#SVGID_9_"  style="overflow:visible;"/>
	</clipPath>
	<path class="st4" d="M572.8,329.6v-30.7h0.1l17.5,30.7h3.1v-34.4h-3.5v26.5h-0.2l-15-26.5h-5.4v34.4H572.8z M552.4,329.6h3.8v-34.4
		h-3.8V329.6z M542.4,329.6v-3.2h-16.3v-31.2h-3.8v34.4H542.4z M492,329.6V314h8.1l7,15.6h4.1l-7.3-16.4c4.1-1.3,6.8-4.1,6.8-9
		c0-5.8-4.1-9.1-11.5-9.1h-11v34.4H492z M492,298.5h6.9c4.9,0,8.1,1.4,8.1,6c0,4.4-2.8,6.3-8,6.3h-6.9L492,298.5L492,298.5z
		 M456.7,295.2v34.4h21.6v-3.2h-17.8v-13.2h12V310h-12v-11.6h16.8v-3.2L456.7,295.2L456.7,295.2z M426.2,298.5h8.2
		c4.4,0,6.5,1.8,6.5,5.7c0,2.9-2.2,5.8-8,5.8h-6.7L426.2,298.5L426.2,298.5z M426.2,313.2h6.6c5.4,0,9,2.6,9,7
		c0,4.3-2.8,6.2-8.4,6.2h-7.1L426.2,313.2L426.2,313.2z M422.3,329.6H433c9.4,0,12.5-4.1,12.5-9.3c0-4.3-2.8-7.7-6.6-8.7l-0.1-0.1
		c4.1-1.5,5.8-4.1,5.8-7.9c0-4.7-3.6-8.5-9.7-8.5h-12.7V329.6L422.3,329.6z"/>
</g>
</svg>
