<?xml version="1.0" encoding="utf-8"?>
<!-- Generator: Adobe Illustrator 21.1.0, SVG Export Plug-In . SVG Version: 6.00 Build 0)  -->
<svg version="1.1" id="Ebene_1" xmlns="http://www.w3.org/2000/svg" xmlns:xlink="http://www.w3.org/1999/xlink" x="0px" y="0px"
	 width="170.1px" height="170.1px" viewBox="0 0 170.1 170.1" style="enable-background:new 0 0 170.1 170.1;" xml:space="preserve"
	>
<style type="text/css">
	.st0{fill:#ADC913;}
</style>
<g>
	<path class="st0" d="M28.6,99.5c7.5,0,13.5-5.7,14.4-12.8h12.1c0.4,7.3,3.2,13.9,7.6,18.8l-14.2,14.2c-6.6-5.3-16.5-5-22.6,1.1
		c-6.6,6.6-6.6,17.2,0,24c3.4,3.4,7.6,5,12.1,5c4.3,0,8.7-1.6,11.9-5c6.2-6.2,6.6-16,1.1-22.6l14.2-14.2c4.8,4.3,11,6.9,17.8,7.5
		v11.7c-7.3,0.9-12.8,7.1-12.8,14.4c0,8,6.6,14.6,14.6,14.6s14.6-6.6,14.6-14.6c0-7.5-5.7-13.5-12.8-14.4v-11.7
		c7.3-0.4,13.9-3,19-7.6l14.2,14.2c-5.3,6.6-5,16.5,1.1,22.6c3.2,3.2,7.5,5,11.9,5l0,0c4.4,0,8.7-1.8,11.9-5c6.6-6.6,6.6-17.4,0-24
		c-3.2-3.2-7.5-5-11.9-5c-3.9,0-7.6,1.4-10.7,3.7l-14.2-14.2c4.4-5,7.3-11.2,7.6-18.1h11.4c0.9,7.3,7.1,12.8,14.4,12.8
		c8,0,14.6-6.6,14.6-14.6s-6.6-14.6-14.6-14.6c-7.5,0-13.5,5.7-14.4,12.8h-11.4c-0.4-7.1-3.2-13.5-7.6-18.5l14.2-14.2
		c3,2.5,6.9,3.7,10.7,3.7c4.3,0,8.7-1.6,11.9-5c6.6-6.6,6.6-17.2,0-24c-6.6-6.6-17.4-6.6-24,0c-6.2,6.2-6.6,16-1.1,22.6l-14.2,14.2
		c-5-4.4-11.4-7.1-18.3-7.5V42.8c7.3-0.9,12.8-7.1,12.8-14.4c0-8-6.6-14.6-14.6-14.6s-14.6,6.6-14.6,14.6c0,7.5,5.7,13.5,12.8,14.4
		v12.1c-6.9,0.4-13.3,3.2-18.3,7.5L51,48.1c5.3-6.6,5-16.5-1.1-22.6c-6.6-6.6-17.2-6.6-24,0c-6.6,6.6-6.6,17.4,0,24
		c3.4,3.6,7.6,5.3,12.1,5.3c3.7,0,7.6-1.2,10.7-3.7l14.2,14.2c-4.3,4.8-7.1,11-7.6,17.8H43.2c-0.9-7.3-7.1-12.8-14.4-12.8
		c-8,0-14.6,6.6-14.6,14.6C14,93,20.6,99.5,28.6,99.5z M47.6,142.2c-5.2,5.2-13.7,5.2-18.8,0c-5.2-5.2-5.3-13.7,0-18.8
		c2.7-2.7,6-3.9,9.4-3.9c3.4,0,6.9,1.2,9.4,3.9C52.8,128.5,52.8,137.1,47.6,142.2z M96,141.7c0,6-5,11-11,11s-11-5-11-11
		c0-6,5-11,11-11S96,135.6,96,141.7z M133,119.3L133,119.3c3.6,0,6.9,1.4,9.4,3.9c5.2,5.2,5.2,13.7,0,18.8c-2.5,2.5-5.9,3.9-9.4,3.9
		l0,0c-3.6,0-6.9-1.4-9.4-3.9c-5.2-5.2-5.2-13.7,0-18.8C126,120.7,129.2,119.3,133,119.3z M141.7,74.3c6,0,11,5,11,11
		c0,6-5,11-11,11c-6,0-11-5-11-11C130.7,79.3,135.6,74.3,141.7,74.3z M123.4,28.4c2.7-2.7,6-3.9,9.4-3.9c3.4,0,6.9,1.2,9.4,3.9
		c5.2,5.2,5.3,13.7,0,18.8c-5.2,5.2-13.7,5.2-18.8,0C118.2,42.1,118.2,33.6,123.4,28.4z M74.3,28.6c0-6,5-11,11-11c6,0,11,5,11,11
		s-5,11-11,11C79.3,39.6,74.3,34.6,74.3,28.6z M28.6,47.4c-5.2-5.2-5.2-13.7,0-18.8c2.7-2.7,6-3.9,9.4-3.9s6.8,1.2,9.4,3.9
		c5.2,5.2,5.2,13.7,0,18.8S33.7,52.6,28.6,47.4z M85.5,58.6c14.8,0,26.7,11.9,26.9,26.5c0,0.2,0,0.2,0,0.4v0.2
		c-0.2,14.6-12.1,26.3-26.9,26.3s-26.9-11.9-26.9-26.7S70.5,58.6,85.5,58.6z M28.6,73.7c6,0,11,5,11,11s-5,11-11,11s-11-4.8-11-11
		S22.5,73.7,28.6,73.7z"/>
	<path class="st0" d="M101,89.6V86H90.6c-0.2,0.9-0.5,1.6-0.9,2.3l7.3,7.3l2.5-2.5v6.4h-6.4l2.5-2.5l-7.3-7.3
		c-0.7,0.5-1.4,0.9-2.3,0.9V101h3.6l-4.4,4.4l-4.4-4.4h3.6V90.6c-0.9-0.2-1.6-0.5-2.3-0.9L74.5,97l2.5,2.5h-6.4v-6.4l2.5,2.5
		l7.5-7.3c-0.5-0.7-0.9-1.4-0.9-2.3H69.1v3.6l-4.4-4.4l4.4-4.4v3.6h10.3c0.2-0.9,0.5-1.6,1.1-2.3L73,74.6l-2.5,2.5v-6.4h6.4
		l-2.5,2.5l7.3,7.3c0.7-0.5,1.6-0.9,2.3-0.9V69.3h-3.6l4.4-4.4l4.4,4.4h-3.6v10.3c0.9,0.2,1.6,0.5,2.3,0.9l7.3-7.3L93,70.7h6.4v6.4
		l-2.5-2.5l-7.3,7.3c0.5,0.7,0.9,1.4,0.9,2.3h10.3v-3.6l4.6,4.4L101,89.6z"/>
</g>
</svg>
